<?xml version="1.0" encoding="UTF-8" standalone="no"?>
<!-- Created with Inkscape (http://www.inkscape.org/) -->

<svg
   xmlns:dc="http://purl.org/dc/elements/1.1/"
   xmlns:cc="http://creativecommons.org/ns#"
   xmlns:rdf="http://www.w3.org/1999/02/22-rdf-syntax-ns#"
   xmlns:svg="http://www.w3.org/2000/svg"
   xmlns="http://www.w3.org/2000/svg"
   xmlns:sodipodi="http://sodipodi.sourceforge.net/DTD/sodipodi-0.dtd"
   xmlns:inkscape="http://www.inkscape.org/namespaces/inkscape"
   width="185.68687mm"
   height="114.06074mm"
   viewBox="0 0 185.68687 114.06074"
   version="1.1"
   id="svg1108"
   inkscape:version="0.92.4 (5da689c313, 2019-01-14)"
   sodipodi:docname="logo_negativo_las_ceibas.svg">
  <defs
     id="defs1102" />
  <sodipodi:namedview
     id="base"
     pagecolor="#ffffff"
     bordercolor="#666666"
     borderopacity="1.0"
     inkscape:pageopacity="0.0"
     inkscape:pageshadow="2"
     inkscape:zoom="0.49497475"
     inkscape:cx="473.47498"
     inkscape:cy="388.42423"
     inkscape:document-units="mm"
     inkscape:current-layer="layer1"
     showgrid="false"
     inkscape:window-width="1366"
     inkscape:window-height="705"
     inkscape:window-x="-8"
     inkscape:window-y="-8"
     inkscape:window-maximized="1" />
  <metadata
     id="metadata1105">
    <rdf:RDF>
      <cc:Work
         rdf:about="">
        <dc:format>image/svg+xml</dc:format>
        <dc:type
           rdf:resource="http://purl.org/dc/dcmitype/StillImage" />
        <dc:title></dc:title>
      </cc:Work>
    </rdf:RDF>
  </metadata>
  <g
     inkscape:label="Capa 1"
     inkscape:groupmode="layer"
     id="layer1"
     transform="translate(159.27239,-95.869997)">
    <path
       style="fill:#ffff;stroke-width:1.10737312"
       d="m -99.116934,95.873061 c -0.941116,-0.044 -1.932836,0.38547 -2.504556,1.31064 -0.90537,1.46495 -3.59793,21.410099 -3.63141,26.877589 -0.0293,5.0384 1.38392,1.76349 5.413577,-12.5401 1.94292,-6.8967 3.259878,-13.250219 2.92631,-14.119019 -0.37166,-0.96894 -1.262851,-1.48537 -2.203921,-1.52911 z m -22.642766,0.0167 c -0.51078,0.0209 -0.97025,0.26744 -1.45127,0.74834 -1.31868,1.31872 -0.57766,4.649079 5.47631,24.654209 1.61471,5.33568 1.87826,5.67884 2.13687,2.76839 0.1624,-1.82711 -0.33315,-8.50391 -1.103,-14.83705 -1.0453,-8.59901 -1.87919,-11.816409 -3.29403,-12.708849 -0.69042,-0.43557 -1.2541,-0.64488 -1.76488,-0.62504 z m -18.95728,8.238229 c -0.81405,0 -1.97151,0.78203 -2.57374,1.73675 -0.85515,1.35572 0.93748,4.32191 8.18415,13.5437 5.10383,6.49478 9.44131,11.3361 9.6376,10.75797 0.58842,-1.73118 -13.6459,-26.03842 -15.24801,-26.03842 z m 61.636596,0.55372 c -2.06714,0 -3.792969,2.23799 -9.412669,12.20054 -3.784769,6.70957 -6.88,12.44015 -6.88,12.7348 0,1.87444 2.682891,-0.86947 10.243209,-10.47246 9.044291,-11.48789 10.28755,-14.46288 6.04946,-14.46288 z m -31.242186,3.8758 c -1.97649,0 -2.18835,0.65597 -1.9682,6.09056 0.1356,3.34978 0.53618,7.28371 0.8911,8.74218 1.12313,4.61644 2.63221,1.01554 2.96955,-7.08981 0.29589,-7.1109 0.14188,-7.74293 -1.89245,-7.74293 z m -15.97041,2.76844 c -3.63388,0 -3.43399,3.12122 0.63588,9.95338 3.79096,6.36395 6.67643,8.82761 5.52822,4.71931 -0.298,-1.06592 -1.34245,-4.80323 -2.32073,-8.30531 -1.35196,-4.83981 -2.27353,-6.36738 -3.84337,-6.36738 z m 32.102995,0 c -1.666478,0 -2.503969,1.15227 -3.425917,4.70634 -0.671581,2.58842 -1.648402,6.32586 -2.169351,8.30528 -1.433097,5.44505 0.316828,4.34233 4.907489,-3.09503 4.279601,-6.93349 4.48527,-9.91659 0.687779,-9.91659 z m -62.105905,7.7516 c -0.45089,0 -1.46144,0.77315 -2.24502,1.71729 -1.9366,2.33349 -0.77483,3.32274 12.78238,10.89203 6.09056,3.40051 11.77912,6.19033 12.64176,6.19871 0.86264,0.008 -3.8167,-4.21837 -10.39674,-9.39536 -6.57999,-5.17698 -12.33149,-9.41267 -12.78238,-9.41267 z m 91.901188,0.37417 c -0.244012,-0.0209 -0.481611,0.008 -0.705112,0.095 -1.830459,0.70238 -22.521649,17.27849 -22.521649,18.04236 0,0.93245 3.197569,-0.59872 14.50834,-6.94701 5.982499,-3.35774 11.189399,-6.60762 11.56901,-7.22173 0.851299,-1.3774 -1.14163,-3.83566 -2.850589,-3.9688 z m -75.982678,0.95815 c -0.0758,-0.0126 -0.14607,-0.008 -0.2076,0.002 -3.66586,0.70598 -1.8896,4.60149 4.23918,9.30021 3.34978,2.56817 6.26107,4.1995 6.47117,3.62493 0.67706,-1.85352 -8.15879,-12.60216 -10.50271,-12.92728 z m 60.107397,0 c -2.199481,0.3185 -10.673601,10.59993 -10.673601,13.08515 0,1.05785 3.26704,-0.98912 11.447931,-7.17415 2.40076,-1.81497 2.04693,-5.40479 -0.581801,-5.911 -0.0573,-0.0126 -0.12138,-0.008 -0.192529,0 z m 57.35416,16.3013 c -1.2559,0 -2.279631,1.01946 -2.279631,2.27528 0,1.25589 1.023731,2.27963 2.279631,2.27967 1.255861,0 2.27746,-1.02378 2.27746,-2.27967 0,-1.25582 -1.021599,-2.27528 -2.27746,-2.27528 z m 0,0.36329 c 1.0599,0 1.914092,0.85205 1.914092,1.91195 0,1.05989 -0.854192,1.9163 -1.914092,1.9163 -1.059899,0 -1.91626,-0.85641 -1.91626,-1.9163 0,-1.0599 0.856361,-1.91195 1.91626,-1.91195 z m -0.748339,0.6121 c -0.11175,0 -0.194202,0.0251 -0.24442,0.0737 -0.0502,0.0502 -0.0758,0.13226 -0.0758,0.24443 v 1.97038 c 0,0.10379 0.0209,0.18206 0.0691,0.23563 0.0456,0.0536 0.109662,0.082 0.19253,0.082 0.077,0 0.138112,-0.0251 0.185822,-0.0778 0.0477,-0.0511 0.0737,-0.13226 0.0737,-0.24024 v -0.82192 h 0.179549 c 0.0921,0 0.16909,0.0126 0.229359,0.0377 0.0607,0.0251 0.119282,0.0703 0.177451,0.13644 0.0594,0.0665 0.12682,0.16281 0.201321,0.28963 l 0.20759,0.34613 c 0.049,0.0816 0.0887,0.14188 0.116768,0.18373 0.0293,0.0419 0.064,0.077 0.103802,0.1038 0.0377,0.0293 0.0866,0.0431 0.144809,0.0431 0.049,0 0.0925,-0.008 0.129751,-0.0293 0.0377,-0.0168 0.0678,-0.0448 0.0887,-0.0778 0.0209,-0.0335 0.0335,-0.0657 0.0335,-0.0996 0,-0.0335 -0.0209,-0.0933 -0.0561,-0.17955 -0.0377,-0.0875 -0.0871,-0.18499 -0.153598,-0.29214 -0.0653,-0.1084 -0.140631,-0.20968 -0.224761,-0.30511 -0.0837,-0.0954 -0.172019,-0.16741 -0.264089,-0.21638 0.21889,-0.0477 0.383789,-0.12849 0.49094,-0.24233 0.1084,-0.11426 0.162388,-0.26745 0.162388,-0.45855 0,-0.0933 -0.01669,-0.18081 -0.0498,-0.26368 -0.0335,-0.0837 -0.077,-0.15736 -0.138528,-0.22056 -0.0619,-0.0628 -0.133932,-0.11133 -0.214291,-0.14482 -0.0666,-0.0293 -0.13979,-0.0515 -0.22266,-0.0607 -0.0829,-0.008 -0.184161,-0.0167 -0.300509,-0.0167 z m 0.201319,0.38924 h 0.477959 c 0.1783,0 0.29632,0.0126 0.35701,0.0377 0.064,0.0251 0.115522,0.0686 0.151511,0.12347 0.0377,0.0536 0.054,0.11719 0.054,0.18834 0,0.0908 -0.0209,0.16155 -0.0691,0.21429 -0.0444,0.0511 -0.10714,0.0879 -0.192521,0.11007 -0.085,0.0209 -0.19085,0.0335 -0.31558,0.0335 h -0.464989 z m -95.610457,5.5347 c -1.08772,0 -2.11226,0.20885 -3.07338,0.62722 -0.96112,0.41854 -1.79794,1.03135 -2.51322,1.83624 -0.71523,0.7968 -1.26715,1.75843 -1.65455,2.88521 -0.38003,1.12682 -0.57101,2.40147 -0.57101,3.82608 0,0.87729 0.0758,1.70653 0.22518,2.48726 0.15653,0.7807 0.38672,1.51824 0.69209,2.21041 0.30553,0.68414 0.67526,1.30256 1.1074,1.85788 0.48428,0.61173 1.01164,1.10761 1.58536,1.48588 0.5811,0.36998 1.22581,0.64253 1.93355,0.8197 0.70783,0.17704 1.49543,0.26619 2.35966,0.26619 1.13996,0 2.13658,-0.19588 2.99336,-0.59047 0.85682,-0.39426 1.5618,-0.90567 2.1131,-1.53347 0.55129,-0.63584 0.95359,-1.2795 1.20688,-1.93141 0.26074,-0.65999 0.39132,-1.27285 0.39132,-1.83624 0,-0.44268 -0.14313,-0.81175 -0.42605,-1.10953 -0.28293,-0.29758 -0.6217,-0.44771 -1.01654,-0.44771 -0.46191,0 -0.79702,0.14983 -1.00574,0.44771 -0.20885,0.28962 -0.38422,0.66651 -0.52556,1.1333 -0.33524,0.99 -0.83359,1.74291 -1.49672,2.25804 -0.65563,0.50701 -1.46002,0.76131 -2.4137,0.76131 -0.87912,0 -1.6478,-0.22642 -2.30343,-0.67698 -0.65568,-0.45072 -1.16073,-1.13008 -1.51832,-2.03956 -0.35743,-0.91755 -0.53853,-2.06471 -0.53853,-3.44106 0,-2.06041 0.4043,-3.6503 1.20902,-4.76908 0.81208,-1.1187 1.89814,-1.67833 3.26156,-1.67833 0.85681,0 1.5774,0.21848 2.15851,0.65317 0.58862,0.43461 1.09914,1.09087 1.53129,1.96816 0.26075,0.53116 0.4942,0.90516 0.70293,1.12251 0.21596,0.21722 0.53564,0.32436 0.96028,0.32436 0.38003,0 0.70515,-0.15527 0.97331,-0.46934 0.26828,-0.3139 0.4022,-0.67744 0.4022,-1.0879 0,-0.74855 -0.27497,-1.53987 -0.82623,-2.37698 -0.55128,-0.84507 -1.34562,-1.55457 -2.38125,-2.12604 -1.03566,-0.57146 -2.2166,-0.85648 -3.54272,-0.85648 z m 31.999197,0 c -0.48428,0 -0.879801,0.18081 -1.185251,0.54288 -0.305531,0.36204 -0.4585,0.90638 -0.4585,1.63074 v 13.94382 c 0,0.7244 0.153181,1.27139 0.4585,1.64162 0.31307,0.36203 0.708461,0.54288 1.185251,0.54288 0.499189,0 0.901401,-0.1808 1.206889,-0.54288 0.31306,-0.36203 0.469302,-0.90918 0.469302,-1.64162 v -13.94382 c 0,-0.73239 -0.15653,-1.27661 -0.469302,-1.63074 -0.30553,-0.36203 -0.7077,-0.54288 -1.206889,-0.54288 z m 33.751099,0 c -0.45448,0 -0.837689,0.0967 -1.150628,0.28963 -0.30553,0.18499 -0.554691,0.42954 -0.748342,0.73537 -0.186248,0.30595 -0.364958,0.69246 -0.5364,1.1593 -0.16364,0.45875 -0.304689,0.85309 -0.423889,1.18307 l -4.19158,11.4933 c -0.17118,0.45879 -0.292981,0.81739 -0.36789,1.07496 -0.0745,0.25782 -0.11259,0.50697 -0.11259,0.74834 0,0.41854 0.159879,0.79254 0.480139,1.12251 0.32018,0.32981 0.690131,0.4953 1.107361,0.4953 0.49182,0 0.843809,-0.15277 1.05982,-0.45855 0.215961,-0.3139 0.477459,-0.91412 0.78291,-1.79949 l 0.78295,-2.2688 h 6.66157 l 0.78077,2.22125 c 0.104219,0.27372 0.22852,0.5916 0.36999,0.9538 0.149001,0.35408 0.28628,0.61872 0.413089,0.79593 0.126402,0.16909 0.28293,0.30343 0.46935,0.40012 0.186251,0.10463 0.409742,0.15569 0.670451,0.15569 0.44703,0 0.82686,-0.16825 1.139841,-0.50613 0.32017,-0.34613 0.48014,-0.72499 0.48014,-1.13549 0,-0.39426 -0.166582,-1.02536 -0.50178,-1.89462 l -4.28027,-11.42198 c -0.200901,-0.57142 -0.36957,-1.02671 -0.503921,-1.36472 -0.12682,-0.34612 -0.286699,-0.66685 -0.480139,-0.96463 -0.186251,-0.298 -0.435451,-0.53958 -0.748342,-0.72457 -0.305528,-0.19295 -0.690838,-0.28963 -1.152808,-0.28963 z m 19.603961,0 c -1.25912,0 -2.354051,0.20592 -3.285329,0.61638 -0.93132,0.40263 -1.643001,0.98021 -2.134732,1.73679 -0.491778,0.75655 -0.73755,1.62153 -0.73755,2.59538 0,1.02219 0.230201,1.87947 0.692132,2.57164 0.469349,0.68414 1.100579,1.22832 1.89032,1.63078 0.797179,0.39426 1.78371,0.74035 2.960918,1.03814 0.879131,0.21764 1.578592,0.42334 2.100122,0.61642 0.52899,0.19294 0.959078,0.47331 1.28687,0.84351 0.335248,0.36203 0.50178,0.83778 0.50178,1.42532 0,0.74047 -0.30929,1.36103 -0.927852,1.86001 -0.610928,0.49098 -1.40644,0.73536 -2.389949,0.73536 -0.71524,0 -1.29286,-0.1197 -1.732399,-0.36119 -0.439632,-0.24945 -0.783712,-0.56469 -1.02952,-0.94296 -0.238141,-0.37835 -0.461812,-0.84896 -0.670492,-1.41235 -0.171598,-0.47499 -0.37919,-0.83142 -0.625078,-1.07278 -0.238561,-0.2415 -0.532251,-0.36329 -0.882401,-0.36329 -0.432131,0 -0.789649,0.15737 -1.07278,0.47148 -0.27582,0.30595 -0.415189,0.67493 -0.415189,1.10953 0,0.74855 0.232288,1.52175 0.694259,2.31856 0.469389,0.78877 1.07606,1.42193 1.821129,1.89684 1.050521,0.65995 2.384481,0.98841 4.001241,0.98841 1.3486,0 2.513881,-0.24149 3.49731,-0.72457 0.983441,-0.4829 1.72973,-1.14963 2.236359,-2.00277 0.514091,-0.85314 0.76998,-1.81476 0.76998,-2.88525 0,-0.8934 -0.149839,-1.64631 -0.447709,-2.258 -0.29046,-0.61972 -0.69945,-1.131 -1.228479,-1.53342 -0.521491,-0.40221 -1.159471,-0.74566 -1.911951,-1.02738 -0.745029,-0.28167 -1.578549,-0.53857 -2.502421,-0.77211 -0.737579,-0.20132 -1.267108,-0.35408 -1.5875,-0.45855 -0.320178,-0.10463 -0.636548,-0.24986 -0.949489,-0.43473 -0.31306,-0.18499 -0.558951,-0.4064 -0.737539,-0.66396 -0.178721,-0.2574 -0.26828,-0.56293 -0.26828,-0.91706 0,-0.57146 0.26158,-1.05968 0.78295,-1.46206 0.528989,-0.41058 1.22166,-0.61429 2.07849,-0.61429 0.92379,0 1.594239,0.18834 2.011428,0.5667 0.41728,0.3704 0.774711,0.88922 1.072791,1.55724 0.231031,0.46684 0.442222,0.8051 0.63588,1.01436 0.201319,0.20132 0.49379,0.30302 0.873771,0.30302 0.41728,0 0.76249,-0.17034 1.03818,-0.50827 0.28335,-0.34612 0.423889,-0.73268 0.423889,-1.1593 0,-0.46679 -0.111749,-0.94513 -0.33524,-1.43612 -0.223499,-0.49098 -0.57553,-0.95886 -1.059781,-1.4015 -0.484238,-0.45068 -1.09647,-0.80714 -1.834099,-1.07279 -0.730129,-0.27372 -1.598261,-0.411 -2.60404,-0.411 z m -71.060037,0.30051 c -0.4693,0 -0.85599,0.0762 -1.16143,0.22936 -0.298,0.14481 -0.51823,0.3838 -0.6597,0.71377 -0.14146,0.32185 -0.21178,0.73934 -0.21178,1.25443 v 13.30576 c 0,0.7727 0.15654,1.33233 0.46935,1.67837 0.32018,0.34613 0.84109,0.51911 1.56373,0.51911 h 9.019047 c 0.52166,0 0.913781,-0.12975 1.1744,-0.38715 0.268291,-0.26577 0.40222,-0.60662 0.40222,-1.02515 0,-0.43465 -0.13435,-0.78279 -0.40222,-1.04031 -0.260741,-0.26578 -0.652909,-0.39803 -1.1744,-0.39803 h -7.732177 v -5.03292 h 6.884346 c 0.51413,0 0.89399,-0.12473 1.139801,-0.37417 0.245679,-0.2574 0.36789,-0.58817 0.36789,-0.99059 0,-0.40263 -0.127241,-0.72541 -0.38087,-0.96678 -0.245679,-0.24944 -0.620231,-0.37417 -1.126821,-0.37417 h -6.884346 v -4.34514 h 7.474777 c 0.529018,0 0.92107,-0.12472 1.174451,-0.37417 0.260739,-0.2574 0.391329,-0.59582 0.391329,-1.01436 0,-0.41058 -0.131,-0.74114 -0.391329,-0.99059 -0.253222,-0.2574 -0.645433,-0.38714 -1.174451,-0.38714 z m 26.858126,0.002 c -0.707789,0 -1.2217,0.17285 -1.542129,0.51911 -0.313071,0.33817 -0.46931,0.89545 -0.46931,1.67619 v 13.30576 c 0,0.76462 0.153188,1.32424 0.45851,1.67836 0.31306,0.34613 0.830241,0.51911 1.552929,0.51911 h 5.00697 c 0.86428,0 1.62061,-0.0456 2.268791,-0.13393 0.64819,-0.0967 1.22242,-0.25698 1.721649,-0.48232 0.797222,-0.37835 1.429631,-0.96099 1.898971,-1.74976 0.469349,-0.79677 0.705069,-1.69193 0.705069,-2.68189 0,-2.14097 -1.078108,-3.5809 -3.231298,-4.32137 1.63911,-0.82092 2.459178,-2.11591 2.459178,-3.8866 0,-0.51513 -0.077,-1.00331 -0.23354,-1.46207 -0.15653,-0.46683 -0.385469,-0.88917 -0.683469,-1.26745 -0.29799,-0.3863 -0.63994,-0.70435 -1.027329,-0.9538 -0.454531,-0.29799 -0.968452,-0.4988 -1.542132,-0.60344 -0.573688,-0.10463 -1.252929,-0.15569 -2.03521,-0.15569 z m 86.2301719,0.52559 c -0.108821,2.7e-4 -0.20174,0.0209 -0.276659,0.0649 -0.0741,0.0419 -0.13476,0.0984 -0.181642,0.16658 -0.0448,0.0682 -0.0883,0.15486 -0.129749,0.25949 -0.0419,0.10254 -0.0749,0.19043 -0.103791,0.2641 l -1.012229,2.57378 c -0.0427,0.10254 -0.0741,0.18457 -0.0908,0.24233 -0.01669,0.0578 -0.02511,0.11258 -0.02511,0.16657 0,0.0937 0.0377,0.17914 0.116771,0.25322 0.0774,0.0741 0.164899,0.11049 0.26619,0.11049 0.119279,0 0.205081,-0.0335 0.257389,-0.10379 0.0523,-0.0703 0.116361,-0.20383 0.190442,-0.40222 l 0.190428,-0.50826 h 1.611321 l 0.190431,0.49746 -0.0021,0.002 c 0.02511,0.0615 0.0565,0.13519 0.0908,0.21638 0.0377,0.0791 0.0686,0.1377 0.0996,0.17746 0.0293,0.0377 0.0674,0.0666 0.11259,0.0887 0.0452,0.0209 0.0992,0.0335 0.162388,0.0335 0.1084,0 0.201732,-0.0377 0.2770721,-0.11468 0.0774,-0.0774 0.116769,-0.16113 0.116769,-0.25321 0,-0.0883 -0.0423,-0.22936 -0.123471,-0.42389 l -1.0338191,-2.55867 c -0.049,-0.12807 -0.0908,-0.23145 -0.12305,-0.30721 -0.0293,-0.0774 -0.0699,-0.14983 -0.116769,-0.21638 -0.0452,-0.0666 -0.103801,-0.12054 -0.179551,-0.16239 -0.0737,-0.0427 -0.167839,-0.0644 -0.27917,-0.0649 z m -4.046652,0.002 c -0.304688,0 -0.57046,0.0465 -0.79593,0.13853 -0.225589,0.09 -0.398018,0.21973 -0.516929,0.38924 -0.11928,0.16951 -0.179549,0.36162 -0.179549,0.57967 0,0.22894 0.0569,0.4223 0.168669,0.57745 0.113422,0.15319 0.265351,0.2754 0.456329,0.36538 0.192943,0.0883 0.433221,0.16491 0.718082,0.23145 0.212609,0.0486 0.382119,0.095 0.50827,0.13854 0.128069,0.0431 0.232281,0.10547 0.311388,0.18834 0.0812,0.0808 0.120952,0.18834 0.120952,0.32018 0,0.16574 -0.0749,0.30344 -0.22475,0.41519 -0.147741,0.11007 -0.339432,0.16448 -0.577501,0.16448 -0.17327,0 -0.313478,-0.0251 -0.419579,-0.0799 -0.106302,-0.0557 -0.189169,-0.12807 -0.24861,-0.21178 -0.0577,-0.085 -0.111329,-0.18959 -0.16197,-0.31599 -0.0419,-0.10631 -0.0921,-0.18583 -0.151511,-0.24024 -0.0573,-0.054 -0.129329,-0.082 -0.214289,-0.082 -0.104212,0 -0.190849,0.0377 -0.25949,0.10589 -0.0666,0.0682 -0.0996,0.15151 -0.0996,0.24861 0,0.16741 0.0548,0.34069 0.166579,0.51906 0.11384,0.17663 0.26116,0.31767 0.441211,0.4239 0.254058,0.14774 0.57775,0.22266 0.968949,0.22266 0.326462,0 0.60768,-0.054 0.845701,-0.16239 0.238139,-0.10799 0.418111,-0.25866 0.5407,-0.44985 0.124309,-0.19127 0.188339,-0.40681 0.188339,-0.64667 l -0.0021,0.002 c 0,-0.20005 -0.0377,-0.36914 -0.10799,-0.50609 -0.0703,-0.13895 -0.168248,-0.25363 -0.29632,-0.34403 -0.125979,-0.09 -0.280839,-0.16616 -0.462809,-0.22936 -0.18039,-0.0632 -0.38213,-0.12096 -0.605621,-0.17285 -0.1783,-0.0465 -0.30721,-0.0816 -0.385058,-0.1038 -0.0774,-0.0251 -0.153602,-0.0553 -0.229352,-0.0975 -0.0758,-0.0418 -0.13435,-0.0891 -0.177459,-0.14691 -0.0431,-0.0578 -0.0649,-0.12639 -0.0649,-0.2055 0,-0.12807 0.0619,-0.23898 0.188349,-0.32896 0.128071,-0.0917 0.296741,-0.13603 0.503949,-0.13603 0.223501,0 0.385471,0.0419 0.486632,0.12556 0.10087,0.0829 0.18751,0.2009 0.25949,0.35032 0.0557,0.10463 0.106728,0.18038 0.153609,0.22726 0.0486,0.0452 0.119701,0.067 0.211781,0.067 0.100859,0 0.18206,-0.0377 0.24861,-0.11259 0.0682,-0.0774 0.103788,-0.16406 0.103788,-0.25949 0,-0.10463 -0.02511,-0.2122 -0.0799,-0.32227 -0.054,-0.11008 -0.140211,-0.21471 -0.2574,-0.31348 -0.11719,-0.10087 -0.26493,-0.1829 -0.443392,-0.24233 -0.17662,-0.0615 -0.385889,-0.0908 -0.629348,-0.0908 z m 8.1127921,0 c -0.304691,0 -0.57046,0.0465 -0.795919,0.13853 -0.225592,0.09 -0.398032,0.21973 -0.516941,0.38924 -0.118861,0.16951 -0.17745,0.36162 -0.17745,0.57967 0,0.22894 0.0548,0.4223 0.166571,0.57745 0.113429,0.15319 0.267448,0.2754 0.458549,0.36538 0.19294,0.0883 0.431009,0.16491 0.715859,0.23145 0.21262,0.0486 0.38212,0.095 0.50827,0.13854 0.128072,0.0431 0.232291,0.10547 0.311391,0.18834 0.0812,0.0808 0.12096,0.18834 0.12096,0.32018 0,0.16574 -0.0762,0.30344 -0.225179,0.41519 -0.147741,0.11007 -0.339432,0.16448 -0.577451,0.16448 -0.17327,0 -0.31306,-0.0251 -0.419581,-0.0799 -0.10631,-0.0557 -0.18918,-0.12807 -0.248608,-0.21178 -0.0578,-0.085 -0.111752,-0.18959 -0.162391,-0.31599 -0.0418,-0.10631 -0.0921,-0.18583 -0.151511,-0.24024 -0.0573,-0.054 -0.129328,-0.082 -0.214289,-0.082 -0.104222,0 -0.190851,0.0377 -0.25949,0.10589 -0.0665,0.0682 -0.0996,0.15151 -0.0996,0.24861 0,0.16741 0.0569,0.34069 0.168669,0.51906 0.113419,0.17663 0.258649,0.31767 0.439039,0.4239 0.25405,0.14774 0.577702,0.22266 0.968952,0.22266 0.326458,0 0.607708,-0.054 0.845687,-0.16239 0.238152,-0.10799 0.418121,-0.25866 0.540711,-0.44985 0.124301,-0.19127 0.188341,-0.40681 0.188341,-0.64667 l -0.0021,0.002 c 0,-0.20005 -0.0377,-0.36914 -0.107979,-0.50609 -0.0703,-0.13895 -0.168251,-0.25363 -0.29632,-0.34403 -0.125981,-0.09 -0.280421,-0.16616 -0.46286,-0.22936 -0.18039,-0.0632 -0.382121,-0.12096 -0.60558,-0.17285 -0.178711,-0.0465 -0.307621,-0.0816 -0.385051,-0.1038 -0.0774,-0.0251 -0.153599,-0.0553 -0.22936,-0.0975 -0.0757,-0.0418 -0.133929,-0.0891 -0.177461,-0.14691 -0.0431,-0.0578 -0.0649,-0.12639 -0.0649,-0.2055 0,-0.12807 0.0619,-0.23898 0.188341,-0.32896 0.128069,-0.0917 0.296741,-0.13603 0.50396,-0.13603 0.223499,0 0.385469,0.0419 0.48663,0.12556 0.100859,0.0829 0.187499,0.2009 0.25949,0.35032 0.0557,0.10463 0.10673,0.18038 0.153601,0.22726 0.049,0.0452 0.118028,0.067 0.20969,0.067 0.10086,0 0.186249,-0.0377 0.253209,-0.11259 0.0686,-0.0774 0.101711,-0.16406 0.101711,-0.25949 0,-0.10463 -0.02511,-0.2122 -0.0799,-0.32227 -0.054,-0.11008 -0.1402,-0.21471 -0.257389,-0.31348 -0.11719,-0.10087 -0.264941,-0.1829 -0.4434,-0.24233 -0.17662,-0.0615 -0.385892,-0.0908 -0.629391,-0.0908 z m -26.540161,0.0649 -2.11959,0.002 c -0.113419,0 -0.207169,0.0168 -0.28125,0.0498 -0.072,0.0335 -0.12556,0.0862 -0.159879,0.15988 -0.0335,0.0724 -0.0498,0.16574 -0.0498,0.28125 v 2.98039 c 0,0.17285 0.0377,0.29883 0.11259,0.37626 0.0774,0.0774 0.203399,0.11677 0.378349,0.11677 h 2.182281 c 0.125979,0 0.220149,-0.0293 0.28335,-0.0866 0.0649,-0.0594 0.0971,-0.13769 0.0971,-0.23145 0,-0.0975 -0.0335,-0.17369 -0.0971,-0.23145 -0.0632,-0.0594 -0.157371,-0.0908 -0.28335,-0.0908 h -1.87085 v -1.12686 h 1.665398 c 0.124302,0 0.21721,-0.0293 0.276651,-0.0845 0.0594,-0.0578 0.0887,-0.13058 0.0887,-0.22057 0,-0.09 -0.0335,-0.16239 -0.0929,-0.21638 -0.0598,-0.0557 -0.149831,-0.0845 -0.27246,-0.0845 h -1.665401 v -0.97326 h 1.80816 c 0.127651,0 0.223909,-0.0293 0.28544,-0.0845 0.0632,-0.0578 0.0929,-0.13351 0.0929,-0.22726 0,-0.0921 -0.0293,-0.16491 -0.0929,-0.22057 -0.0611,-0.0578 -0.157371,-0.0887 -0.28544,-0.0887 z m 6.0624299,0 c -0.17662,0 -0.305948,0.0377 -0.387138,0.11468 -0.0812,0.0757 -0.120963,0.20173 -0.120963,0.37835 v 3.0561 c 0,0.15863 0.0377,0.27833 0.110072,0.3612 0.0741,0.0812 0.171188,0.12305 0.29214,0.12305 0.11552,0 0.212198,-0.0427 0.287539,-0.12556 0.0758,-0.0829 0.11258,-0.20299 0.11258,-0.36329 v -1.12251 h 0.735412 v -0.002 c 0.492069,0 0.862809,-0.10212 1.111668,-0.3093 0.249031,-0.20926 0.374171,-0.51756 0.374171,-0.92136 0,-0.18918 -0.0335,-0.3591 -0.0929,-0.51044 -0.0615,-0.1511 -0.151511,-0.27833 -0.270369,-0.38296 -0.11719,-0.10464 -0.2574,-0.17955 -0.419622,-0.22476 -0.164068,-0.0469 -0.398028,-0.0716 -0.702889,-0.0716 z m 4.955029,0 -1.30633,0.002 c -0.172849,0 -0.296738,0.0377 -0.374168,0.11468 -0.0774,0.0774 -0.116771,0.2034 -0.116771,0.37626 v 3.05175 c 0,0.16029 0.0377,0.28041 0.105891,0.36328 0.0703,0.0829 0.168249,0.12556 0.29632,0.12556 0.11887,0 0.21639,-0.0377 0.289629,-0.11886 0.0741,-0.0791 0.11049,-0.20215 0.11049,-0.36998 v -1.2739 h 0.28126 c 0.142722,0 0.26116,0.0168 0.354499,0.0561 0.0937,0.0377 0.187503,0.10966 0.277072,0.21178 0.0917,0.10296 0.195868,0.25112 0.311388,0.4477 l 0.32018,0.5364 c 0.0757,0.12598 0.136441,0.22057 0.179552,0.28544 0.0448,0.0649 0.0988,0.11845 0.15988,0.15988 0.0615,0.0431 0.136861,0.0649 0.227258,0.0649 0.0758,0 0.141052,-0.0168 0.198811,-0.0456 0.0577,-0.0293 0.103791,-0.0682 0.13644,-0.11886 0.0335,-0.0523 0.0498,-0.10589 0.0498,-0.15779 0,-0.0506 -0.0293,-0.14146 -0.0866,-0.27456 -0.0561,-0.13519 -0.135609,-0.28628 -0.238149,-0.45202 -0.100869,-0.16783 -0.216378,-0.32562 -0.34613,-0.47365 -0.130159,-0.14775 -0.2666,-0.25949 -0.408908,-0.33525 0.339018,-0.0741 0.591269,-0.19964 0.75701,-0.37626 0.167827,-0.17662 0.253209,-0.41142 0.253209,-0.70728 0,-0.1444 -0.02511,-0.28084 -0.0758,-0.40891 -0.0485,-0.12975 -0.120539,-0.24233 -0.216389,-0.33944 -0.0954,-0.0975 -0.20633,-0.17243 -0.33106,-0.22475 -0.10254,-0.0473 -0.218051,-0.0791 -0.34612,-0.0929 -0.12808,-0.0167 -0.28252,-0.0251 -0.46286,-0.0251 z m 4.756111,0 -2.119591,0.002 c -0.113419,0 -0.207169,0.0168 -0.281249,0.0498 -0.072,0.0335 -0.125558,0.0862 -0.15988,0.15988 -0.0335,0.0724 -0.0498,0.16574 -0.0498,0.28125 v 2.98039 c 0,0.17285 0.0377,0.29883 0.112591,0.37626 0.0774,0.0774 0.203398,0.11677 0.378349,0.11677 h 2.18228 c 0.125982,0 0.22015,-0.0293 0.283351,-0.0866 0.0649,-0.0594 0.0996,-0.13769 0.0996,-0.23145 0,-0.0975 -0.0335,-0.17369 -0.0996,-0.23145 -0.0632,-0.0594 -0.157369,-0.0908 -0.283351,-0.0908 h -1.87085 v -1.12686 h 1.665391 c 0.124309,0 0.21848,-0.0293 0.277069,-0.0845 0.0594,-0.0578 0.0887,-0.13058 0.0887,-0.22057 0,-0.09 -0.0335,-0.16239 -0.0929,-0.21638 -0.0599,-0.0557 -0.150252,-0.0845 -0.272471,-0.0845 h -1.66539 v -0.97326 h 1.80816 c 0.127651,0 0.224329,-0.0293 0.28544,-0.0845 0.0632,-0.0578 0.0929,-0.13351 0.0929,-0.22726 0,-0.0921 -0.0293,-0.16491 -0.0929,-0.22057 -0.0611,-0.0578 -0.157369,-0.0887 -0.28544,-0.0887 z m -14.1860699,0.002 c -0.15318,0 -0.275399,0.0293 -0.365379,0.0908 -0.09,0.0594 -0.133932,0.17536 -0.133932,0.34822 v 3.13826 c 0,0.15318 0.0335,0.26828 0.101701,0.34403 0.0682,0.0741 0.157789,0.11049 0.266192,0.11049 0.111749,0 0.199218,-0.0377 0.266189,-0.11467 0.0686,-0.0757 0.103788,-0.18792 0.103788,-0.33944 v -2.73813 l 0.635881,2.52619 h -0.0021 c 0.0209,0.0829 0.0431,0.16239 0.0628,0.24024 0.0209,0.0757 0.0506,0.1469 0.0866,0.20968 0.0377,0.0632 0.0862,0.11385 0.151511,0.15361 0.0649,0.0418 0.14397,0.0628 0.23772,0.0628 0.124309,0 0.22183,-0.0335 0.29214,-0.095 0.0703,-0.0632 0.11761,-0.13226 0.142719,-0.2076 0.02511,-0.0774 0.0624,-0.19922 0.103801,-0.36328 l 0.6358809,-2.5262 v 2.73814 c 0,0.15151 0.0335,0.2641 0.101698,0.33943 0.0686,0.0758 0.159462,0.11468 0.266192,0.11468 0.113419,0 0.20383,-0.0377 0.27037,-0.11468 0.0686,-0.0757 0.103799,-0.18792 0.103799,-0.33943 v -3.13826 c 0,-0.17285 -0.0439,-0.28879 -0.13393,-0.34822 -0.09,-0.0615 -0.212201,-0.0908 -0.365379,-0.0908 h -0.24861 c -0.1494209,0 -0.2578209,0.0126 -0.3264619,0.0431 -0.0666,0.0251 -0.117189,0.0766 -0.149418,0.14691 -0.0335,0.0703 -0.0682,0.1829 -0.110072,0.34152 l -0.575318,2.17149 -0.57745,-2.17149 c -0.0419,-0.15862 -0.0779,-0.27204 -0.11049,-0.34152 -0.0335,-0.0695 -0.085,-0.11928 -0.153612,-0.14691 -0.0665,-0.0293 -0.17494,-0.0431 -0.324358,-0.0431 z m 4.7690409,0.60126 h 0.540739 v 0.002 c 0.359111,0 0.596331,0.0582 0.711549,0.17537 0.102542,0.11007 0.153612,0.25111 0.153612,0.42606 0,0.14607 -0.0335,0.26452 -0.0996,0.3545 -0.0665,0.09 -0.164061,0.15486 -0.292132,0.19462 -0.1264,0.0377 -0.28461,0.0607 -0.47366,0.0607 h -0.54075 z m 3.666029,0 h 0.74185 v 0.002 c 0.275809,0 0.45993,0.0168 0.55368,0.0586 0.0992,0.0418 0.177871,0.10547 0.23354,0.19043 0.0557,0.0829 0.082,0.17788 0.082,0.28754 0,0.14062 -0.0335,0.25195 -0.103788,0.33315 -0.0682,0.0791 -0.16909,0.13644 -0.300511,0.17076 -0.131839,0.0335 -0.293809,0.0477 -0.486669,0.0477 h -0.72022 z m 12.44931,0.17746 0.596911,1.63509 h -1.183071 z m -84.9195209,1.31717 h 2.69272 c 1.207011,0 2.104192,0.14984 2.692731,0.44771 0.588579,0.28963 0.884611,0.88014 0.884611,1.77354 0,0.41854 -0.095,0.79744 -0.281252,1.13549 -0.23857,0.47478 -0.583729,0.79768 -1.03818,0.96677 -0.44699,0.16909 -1.084959,0.25321 -1.911948,0.25321 h -3.038772 z m 23.26781,0.78509 2.469981,7.30394 h -4.894511 z m -100.796886,1.2004 c -0.22476,0 -0.40766,0.0837 -0.54724,0.24861 -0.13644,0.16532 -0.2055,0.41393 -0.2055,0.74399 v 6.21386 c 0,0.3524 0.0728,0.60796 0.21638,0.76562 0.14649,0.15779 0.38547,0.23355 0.71591,0.23355 h 3.66167 c 0.24819,0 0.43909,-0.0607 0.56888,-0.18165 0.12932,-0.12472 0.19252,-0.28628 0.19252,-0.48445 0,-0.1942 -0.0657,-0.35576 -0.1988,-0.4845 -0.12933,-0.12849 -0.31725,-0.19252 -0.56239,-0.19252 h -3.07552 v -5.87199 c 0,-0.334 -0.0707,-0.58273 -0.21429,-0.74403 -0.13979,-0.16533 -0.32352,-0.24652 -0.5515,-0.24652 z m 8.37019,0 c -0.2076,0 -0.38212,0.046 -0.5256,0.13393 -0.13937,0.0841 -0.25321,0.19588 -0.34194,0.33525 -0.0858,0.13895 -0.16867,0.31474 -0.24652,0.52777 -0.0749,0.20927 -0.14021,0.39049 -0.19462,0.54071 l -1.91626,5.24056 c -0.0787,0.20884 -0.13477,0.37123 -0.16867,0.4888 -0.0335,0.11761 -0.0498,0.22978 -0.0498,0.33943 0,0.19085 0.0724,0.36203 0.21847,0.51258 0.14649,0.15026 0.31516,0.22726 0.50609,0.22726 0.22518,0 0.38799,-0.0703 0.48663,-0.20968 0.0992,-0.14314 0.21722,-0.41603 0.35701,-0.8197 l 0.35911,-1.03382 h 3.0453 l 0.35701,1.01218 h -0.002 c 0.0481,0.12472 0.10422,0.26954 0.16867,0.43473 0.0682,0.16156 0.13268,0.28293 0.19043,0.36329 0.0582,0.077 0.12891,0.1377 0.21429,0.18164 0.0846,0.0477 0.18751,0.0712 0.30721,0.0712 0.20424,0 0.37794,-0.077 0.52124,-0.23145 0.14607,-0.15779 0.21848,-0.32981 0.21848,-0.51694 0,-0.17997 -0.0762,-0.46876 -0.22936,-0.86515 l -1.95736,-5.20808 c -0.0917,-0.26033 -0.16742,-0.46645 -0.22936,-0.62077 -0.0578,-0.15779 -0.13226,-0.30553 -0.22057,-0.44122 -0.0845,-0.1356 -0.1988,-0.24401 -0.34194,-0.32855 -0.13979,-0.0883 -0.31474,-0.13393 -0.5256,-0.13393 z m 7.32117,0 c -0.57569,0 -1.07739,0.0942 -1.50316,0.28126 -0.42569,0.18331 -0.75052,0.44657 -0.97544,0.79157 -0.22475,0.34487 -0.33734,0.73905 -0.33734,1.18307 0,0.46604 0.10463,0.85888 0.31558,1.17446 0.2147,0.3118 0.50412,0.55824 0.86515,0.74185 0.36454,0.17997 0.81581,0.33817 1.35392,0.47365 0.40179,0.0992 0.72143,0.19295 0.96028,0.28126 0.2415,0.0883 0.43603,0.21596 0.58616,0.38505 0.15318,0.1649 0.23145,0.38086 0.23145,0.64885 0,0.33734 -0.14314,0.62015 -0.42611,0.84783 -0.27916,0.22392 -0.64262,0.33734 -1.09221,0.33734 -0.32687,0 -0.59042,-0.0565 -0.79161,-0.16658 -0.2009,-0.11384 -0.35911,-0.25572 -0.47148,-0.42824 -0.1084,-0.17244 -0.20927,-0.38756 -0.30512,-0.64455 -0.0783,-0.2168 -0.17285,-0.38086 -0.28544,-0.49094 -0.10965,-0.11007 -0.24484,-0.16448 -0.4043,-0.16448 -0.19797,0 -0.36161,0.0728 -0.49098,0.21638 -0.12598,0.13937 -0.18834,0.30804 -0.18834,0.50609 0,0.34111 0.10421,0.69209 0.31557,1.05546 0.21471,0.35953 0.49207,0.64865 0.83272,0.86516 0.48027,0.30092 1.09066,0.45201 1.82975,0.45201 0.61658,0 1.14875,-0.11091 1.59834,-0.33106 0.44942,-0.22015 0.79111,-0.52375 1.02302,-0.91274 0.23522,-0.38882 0.35241,-0.82907 0.35241,-1.31717 0,-0.40723 -0.0691,-0.75047 -0.2055,-1.02951 -0.13309,-0.28251 -0.3206,-0.51497 -0.56234,-0.69858 -0.23857,-0.18331 -0.52978,-0.33859 -0.87378,-0.46716 -0.34069,-0.12891 -0.7218,-0.24652 -1.14415,-0.35241 -0.33734,-0.0917 -0.57837,-0.16197 -0.72456,-0.20969 -0.14607,-0.0473 -0.2913,-0.11258 -0.43474,-0.19671 -0.14313,-0.0841 -0.25572,-0.18541 -0.33733,-0.3026 -0.0816,-0.11761 -0.12347,-0.25823 -0.12347,-0.41962 0,-0.26033 0.12012,-0.48257 0.3591,-0.66614 0.24191,-0.18708 0.55782,-0.28126 0.94949,-0.28126 0.4223,0 0.72837,0.0871 0.91923,0.25949 0.19043,0.16867 0.35449,0.40473 0.49094,0.70942 0.10589,0.21304 0.20341,0.36748 0.29213,0.46286 0.0917,0.0917 0.22434,0.13853 0.39803,0.13853 0.19085,0 0.3499,-0.077 0.47583,-0.23145 0.12933,-0.1582 0.19462,-0.33566 0.19462,-0.5299 0,-0.21303 -0.0515,-0.42938 -0.1536,-0.65317 -0.10212,-0.22391 -0.26326,-0.43845 -0.4845,-0.64023 -0.2214,-0.2055 -0.5019,-0.36789 -0.83916,-0.48876 -0.33399,-0.12515 -0.7298,-0.18835 -1.18956,-0.18835 z m 127.153237,1.63727 c -0.106731,0 -0.186248,0.0168 -0.237728,0.054 -0.0523,0.0377 -0.113422,0.11928 -0.183732,0.2507 l -0.12096,0.22726 c -0.0469,0.0758 -0.0691,0.12933 -0.0691,0.15988 0,0.0452 0.0377,0.0691 0.114678,0.0691 0.11719,0 0.2281,-0.0293 0.33106,-0.0799 0.0377,-0.0209 0.109662,-0.0749 0.212201,-0.16867 0.10254,-0.0937 0.206341,-0.19378 0.3072,-0.29632 0.10087,-0.10338 0.151511,-0.16071 0.151511,-0.17495 0,-0.0293 -0.0464,-0.0418 -0.13853,-0.0418 z m -134.483077,0.0866 1.129,3.33078 h -2.23853 z m 133.103208,0.87812 v 0.002 c -0.118861,0 -0.21387,0.0418 -0.28753,0.11887 -0.072,0.0808 -0.107982,0.20298 -0.107982,0.36537 v 1.9076 h -0.0021 c 0,0.29925 0.0335,0.5559 0.0975,0.77216 0.0649,0.21471 0.166161,0.39133 0.30511,0.5299 0.138959,0.13687 0.31851,0.24024 0.53857,0.30721 0.219731,0.0649 0.48257,0.0971 0.78727,0.0971 0.25614,0 0.47934,-0.0335 0.670491,-0.0929 0.190849,-0.0615 0.359519,-0.15862 0.503921,-0.29214 0.167828,-0.15695 0.2799979,-0.33776 0.3394279,-0.54506 0.0615,-0.20759 0.0929,-0.46637 0.0929,-0.77646 v -1.9076 c 0,-0.16406 -0.0377,-0.28418 -0.114681,-0.36329 -0.0741,-0.0812 -0.1711799,-0.12305 -0.2921289,-0.12305 -0.12096,0 -0.215551,0.0423 -0.287542,0.12305 -0.072,0.0791 -0.107979,0.19923 -0.107979,0.36329 v 1.96603 c 0,0.33901 -0.0649,0.5936 -0.19462,0.76131 -0.129741,0.16574 -0.352401,0.24861 -0.666181,0.24861 -0.227258,0 -0.403889,-0.0427 -0.52986,-0.12347 -0.125978,-0.0829 -0.212619,-0.19797 -0.264099,-0.34613 -0.0485,-0.14941 -0.0737,-0.33399 -0.0737,-0.55585 v -1.95088 c 0,-0.16197 -0.0377,-0.28418 -0.11008,-0.36538 -0.072,-0.0812 -0.172011,-0.12095 -0.29632,-0.12095 z m 7.9851889,0.002 c -0.118869,0 -0.215551,0.0418 -0.289629,0.11887 -0.072,0.0808 -0.107981,0.20298 -0.107981,0.36537 v 3.05393 c 0,0.17285 0.0377,0.29883 0.114681,0.37626 0.0774,0.0774 0.203401,0.11468 0.378348,0.11468 h 1.937901 c 0.131422,0 0.231871,-0.0293 0.300511,-0.0887 0.0686,-0.0615 0.103799,-0.14063 0.103799,-0.23773 0,-0.0958 -0.0377,-0.17495 -0.105889,-0.23773 -0.0686,-0.0632 -0.168672,-0.0929 -0.298421,-0.0929 h -1.62647 v -2.88525 h -0.0021 c 0,-0.16407 -0.0377,-0.28628 -0.112588,-0.36538 -0.0741,-0.0812 -0.17118,-0.12096 -0.292132,-0.12096 z m 3.512471,0 c -0.117189,0 -0.21136,0.0418 -0.285451,0.11887 -0.0741,0.0808 -0.11258,0.20298 -0.11258,0.36537 v 3.12311 c 0,0.16239 0.0377,0.28419 0.11258,0.36789 0.0758,0.0812 0.169931,0.12347 0.285451,0.12347 0.120949,0 0.218048,-0.0423 0.292129,-0.12347 0.0758,-0.0812 0.114681,-0.20299 0.114681,-0.36789 v -3.12311 c 0,-0.16406 -0.0377,-0.28627 -0.114681,-0.36537 -0.0741,-0.0812 -0.17118,-0.11887 -0.292129,-0.11887 z m 2.97389,0 c -0.26325,0 -0.51153,0.0469 -0.744029,0.14063 -0.232702,0.0937 -0.434811,0.23061 -0.607751,0.411 -0.17285,0.1783 -0.306372,0.39426 -0.400121,0.64668 -0.0917,0.25237 -0.138528,0.53957 -0.138528,0.85862 0,0.19629 0.01669,0.38087 0.054,0.55586 0.0377,0.17495 0.0946,0.34027 0.16867,0.49529 0.0741,0.15319 0.163642,0.29088 0.268279,0.41519 0.116771,0.13686 0.244002,0.24819 0.382961,0.33315 0.140621,0.0829 0.295902,0.1444 0.467169,0.18374 0.17118,0.0377 0.361612,0.0607 0.571,0.0607 0.27582,0 0.517192,-0.0456 0.724533,-0.13393 0.207168,-0.0883 0.37919,-0.20341 0.512619,-0.34404 0.133509,-0.14272 0.230608,-0.28669 0.29214,-0.43255 0.0632,-0.14775 0.0929,-0.28461 0.0929,-0.41101 l 0.0021,0.002 c 0,-0.0992 -0.0335,-0.18206 -0.103801,-0.24861 -0.0686,-0.0666 -0.151091,-0.1017 -0.24652,-0.1017 -0.11175,0 -0.193781,0.0335 -0.24442,0.1017 -0.0506,0.0649 -0.0912,0.14858 -0.125561,0.25322 -0.0812,0.22182 -0.202988,0.39049 -0.363288,0.50613 -0.158621,0.11342 -0.35324,0.17076 -0.583981,0.17076 -0.212619,0 -0.39928,-0.0502 -0.55799,-0.15151 -0.158631,-0.10087 -0.280839,-0.25489 -0.36789,-0.45854 -0.0866,-0.2055 -0.129749,-0.46165 -0.129749,-0.76994 0,-0.4616 0.0971,-0.8179 0.29214,-1.06848 0.196289,-0.2507 0.461729,-0.37626 0.791609,-0.37626 0.207179,0 0.38045,0.0498 0.52125,0.14691 0.142299,0.0975 0.265351,0.24484 0.369981,0.44121 0.0632,0.11929 0.120538,0.20174 0.170759,0.25071 0.0523,0.0486 0.12891,0.0737 0.23145,0.0737 0.0917,0 0.17077,-0.0377 0.23564,-0.10589 0.0649,-0.0703 0.0975,-0.15277 0.0975,-0.24443 0,-0.16783 -0.0657,-0.34445 -0.199218,-0.53208 -0.133522,-0.18918 -0.326882,-0.3478 -0.577461,-0.47583 -0.250701,-0.12807 -0.535551,-0.19253 -0.856491,-0.19253 z m 4.143999,0 c -0.110069,0 -0.203409,0.0168 -0.279159,0.0628 -0.0741,0.0418 -0.13268,0.0979 -0.179551,0.16658 -0.0448,0.0682 -0.0883,0.15486 -0.129749,0.25949 -0.0419,0.10254 -0.0749,0.19211 -0.103802,0.26619 l -1.014399,2.57378 c -0.0427,0.10254 -0.072,0.18457 -0.0887,0.24233 -0.0167,0.0578 -0.02511,0.11258 -0.02511,0.16658 0,0.0937 0.0377,0.17704 0.116771,0.2507 0.0774,0.0741 0.16741,0.11258 0.26828,0.11258 0.119279,0 0.205078,-0.0335 0.2574,-0.10379 0.0523,-0.0703 0.11426,-0.20383 0.188341,-0.40221 l 0.190428,-0.50823 h 1.611321 l 0.192529,0.49743 v 0.002 c 0.02511,0.0611 0.0544,0.1331 0.0887,0.21429 0.0377,0.0791 0.0686,0.1377 0.0996,0.17746 0.0293,0.0377 0.0695,0.0665 0.114678,0.0887 0.0452,0.0209 0.0996,0.0335 0.162391,0.0335 0.108399,0 0.19713,-0.0377 0.27246,-0.11468 0.0774,-0.0774 0.116771,-0.16113 0.116771,-0.25321 0,-0.0883 -0.0419,-0.23145 -0.118862,-0.42607 l -1.036,-2.55649 c -0.049,-0.12807 -0.0929,-0.23145 -0.12556,-0.30721 -0.0293,-0.0774 -0.0678,-0.14942 -0.114679,-0.21638 -0.0452,-0.0666 -0.105891,-0.12054 -0.181641,-0.16239 -0.0741,-0.0431 -0.167,-0.0649 -0.27916,-0.0649 z m 4.0985891,0.002 c -0.3046991,0 -0.5683271,0.0423 -0.7937971,0.13393 -0.225592,0.09 -0.398021,0.21973 -0.51689,0.38924 -0.119282,0.1695 -0.179552,0.3637 -0.179552,0.5818 0,0.22894 0.0569,0.42017 0.168669,0.57528 0.113422,0.15318 0.265351,0.27539 0.456333,0.36538 0.192939,0.0883 0.433218,0.16699 0.718079,0.23354 0.2126081,0.0486 0.3821191,0.0929 0.5082701,0.13603 0.128069,0.0431 0.23019,0.10756 0.30929,0.19043 0.0812,0.0808 0.12347,0.18625 0.12347,0.31809 0,0.16574 -0.0753,0.30553 -0.22475,0.41727 -0.147741,0.11008 -0.34153,0.16449 -0.579671,0.16449 -0.1732801,0 -0.3109701,-0.0251 -0.4172791,-0.0779 -0.10631,-0.0557 -0.18918,-0.12724 -0.248611,-0.21178 -0.0578,-0.085 -0.11217,-0.1896 -0.16239,-0.31557 -0.0419,-0.10631 -0.0921,-0.18583 -0.151509,-0.24024 -0.0573,-0.054 -0.129331,-0.082 -0.214291,-0.082 -0.104219,0 -0.190849,0.0377 -0.25949,0.10588 -0.0666,0.0682 -0.0996,0.15151 -0.0996,0.24861 0,0.16742 0.0548,0.34069 0.166571,0.51907 0.11384,0.17662 0.26117,0.31767 0.441219,0.42394 0.254051,0.14774 0.57775,0.22266 0.9689501,0.22266 0.326461,0 0.607631,-0.0544 0.84565,-0.1624 0.238152,-0.10798 0.418121,-0.25865 0.540711,-0.44988 0.12388,-0.19043 0.185409,-0.40556 0.18583,-0.6445 v -0.002 c -2.65e-4,-0.19922 -0.0377,-0.36747 -0.10799,-0.50391 -0.0703,-0.13896 -0.168251,-0.25363 -0.29632,-0.34404 -0.125981,-0.09 -0.280421,-0.16616 -0.462859,-0.22935 -0.180391,-0.0632 -0.382122,-0.12096 -0.605571,-0.17286 -0.1787211,-0.046 -0.3076311,-0.0816 -0.3850611,-0.1038 -0.0774,-0.0251 -0.153599,-0.0565 -0.229349,-0.0975 -0.0758,-0.0418 -0.136451,-0.0891 -0.179559,-0.1469 -0.0431,-0.0578 -0.0649,-0.1264 -0.0649,-0.2055 0,-0.12807 0.064,-0.23857 0.190439,-0.32855 0.128069,-0.0917 0.29464,-0.13645 0.50178,-0.13645 0.2234911,0 0.3879791,0.0419 0.4887991,0.12557 0.10087,0.0829 0.185412,0.20089 0.2574,0.35031 0.0557,0.10463 0.10882,0.18039 0.155702,0.22726 0.0486,0.0448 0.11761,0.067 0.209679,0.067 0.10087,0 0.186249,-0.0377 0.25322,-0.11467 0.0686,-0.0774 0.1017,-0.16407 0.1017,-0.2595 0,-0.10463 -0.02511,-0.2101 -0.0799,-0.32018 -0.054,-0.11007 -0.140208,-0.2147 -0.2574,-0.31348 -0.117189,-0.10086 -0.26493,-0.1829 -0.443389,-0.24233 -0.17663,-0.0615 -0.3884,-0.0908 -0.631531,-0.0908 z m -17.3265091,0.0628 -1.284729,0.002 c -0.17118,0 -0.296741,0.0335 -0.374171,0.11468 -0.0758,0.0758 -0.112589,0.20132 -0.112589,0.37626 v 2.98048 c 0,0.17118 0.0377,0.29716 0.110498,0.37627 0.0758,0.0774 0.201311,0.11468 0.376262,0.11468 h 1.211199 v -0.002 c 0.209269,0 0.39258,-0.008 0.54937,-0.0293 0.156951,-0.0209 0.29464,-0.0578 0.415181,-0.10798 0.19295,-0.085 0.34697,-0.21764 0.46068,-0.39343 0.113429,-0.17829 0.168669,-0.3771 0.168669,-0.59909 0,-0.47968 -0.259908,-0.8032 -0.78077,-0.96895 0.39677,-0.18373 0.594781,-0.47281 0.594781,-0.86946 0,-0.11552 -0.0167,-0.22601 -0.0561,-0.32897 -0.0377,-0.10421 -0.0925,-0.19838 -0.16448,-0.28335 -0.072,-0.0866 -0.154861,-0.1582 -0.248611,-0.21428 -0.11008,-0.0678 -0.23522,-0.11175 -0.374168,-0.13394 -0.138952,-0.0209 -0.30176,-0.0335 -0.490943,-0.0335 z m -8.9779399,0.002 c -0.17662,0 -0.305951,0.0377 -0.387149,0.11468 -0.0812,0.0758 -0.123052,0.19964 -0.123052,0.37626 v 3.0561 c 0,0.15863 0.0377,0.27833 0.112591,0.3612 0.0741,0.0812 0.17118,0.12096 0.292139,0.12096 0.115512,0 0.210101,-0.0423 0.285441,-0.12305 0.0758,-0.0829 0.114681,-0.20508 0.114681,-0.36539 v -1.12251 h 0.735359 c 0.492109,0 0.862811,-0.10421 1.11171,-0.31138 0.249031,-0.20927 0.372081,-0.51535 0.372081,-0.91919 0,-0.18918 -0.0293,-0.3591 -0.0908,-0.51044 -0.0615,-0.15151 -0.151511,-0.28042 -0.270372,-0.38506 -0.117189,-0.10421 -0.2574,-0.17746 -0.41959,-0.22266 -0.16406,-0.0469 -0.398438,-0.0691 -0.702918,-0.0691 z m 0.29423,0.60127 h 0.5407 c 0.359111,0 0.596371,0.0624 0.7116,0.17955 0.102541,0.11008 0.153601,0.25112 0.153601,0.42611 0,0.14607 -0.0335,0.26494 -0.0996,0.35492 -0.0666,0.09 -0.164071,0.15486 -0.29214,0.19462 -0.126402,0.0377 -0.284602,0.0586 -0.473662,0.0586 h -0.5407 z m 7.7148509,0 h 0.650989 c 0.291721,0 0.510611,0.0335 0.6532,0.10171 0.142312,0.0649 0.211781,0.19796 0.211781,0.39802 0,0.0937 -0.0209,0.17955 -0.067,0.25531 -0.0578,0.10631 -0.141049,0.17829 -0.250708,0.21638 -0.108403,0.0377 -0.262832,0.0561 -0.462852,0.0561 h -0.73537 z m 14.192549,0.17746 0.599091,1.63726 h -1.185249 z m -14.192549,1.42528 h 0.83485 c 0.27958,0 0.4909,0.046 0.631529,0.13644 0.140621,0.09 0.209679,0.2348 0.209679,0.43473 0,0.39133 -0.270787,0.58612 -0.81321,0.58612 h -0.862978 z m -68.3543419,0.28753 h 3.45191 c 1.154821,0 2.022901,0.2009 2.60404,0.6034 0.58113,0.40221 0.87164,1.05098 0.87164,1.94439 0,1.74654 -1.120629,2.61919 -3.363219,2.61919 h -3.564371 z m 70.2835719,3.22908 c -0.0921,0 -0.178292,0.0293 -0.257392,0.0799 -0.0791,0.0506 -0.13435,0.11552 -0.168669,0.19671 -0.0293,0.0741 -0.0431,0.17537 -0.0431,0.30511 v 3.05828 c 0,0.14983 0.0335,0.26451 0.1017,0.34403 0.0686,0.0774 0.161139,0.11677 0.274561,0.11677 0.110069,0 0.200059,-0.0377 0.27037,-0.11677 0.0703,-0.0774 0.103798,-0.19252 0.103798,-0.34403 v -2.32291 l 1.507522,2.30993 c 0.0431,0.0632 0.0866,0.12473 0.129749,0.18583 0.0431,0.0599 0.09,0.11301 0.140621,0.15779 0.0506,0.0456 0.10464,0.0783 0.16239,0.0975 0.0573,0.0209 0.122219,0.0335 0.19462,0.0335 0.288369,0 0.432559,-0.17327 0.432559,-0.52124 v -3.11884 c 0,-0.1536 -0.0335,-0.26577 -0.0996,-0.34152 -0.0666,-0.0774 -0.159049,-0.11678 -0.274561,-0.11678 -0.11175,0 -0.199221,0.0377 -0.266189,0.11678 -0.0649,0.0757 -0.0996,0.18875 -0.0996,0.34152 v 2.35966 l -1.54427,-2.33802 v -0.002 c -0.0431,-0.0686 -0.0837,-0.13393 -0.125561,-0.19671 -0.0377,-0.0632 -0.0795,-0.11384 -0.118858,-0.15361 -0.0377,-0.0418 -0.0837,-0.0728 -0.136441,-0.095 -0.0506,-0.0209 -0.111752,-0.0335 -0.18374,-0.0335 z m 14.51701,0 -0.0021,0.002 c -0.110069,0 -0.203412,0.0209 -0.279162,0.0649 -0.0741,0.0419 -0.134768,0.0958 -0.18165,0.16448 -0.0448,0.0682 -0.0883,0.15486 -0.129738,0.25949 -0.0419,0.10254 -0.0749,0.19211 -0.103802,0.26619 l -1.012229,2.57378 c -0.0427,0.10254 -0.0741,0.18248 -0.0908,0.24024 -0.0167,0.0578 -0.02511,0.11468 -0.02511,0.16867 0,0.0937 0.0377,0.17662 0.116771,0.2507 0.0774,0.0741 0.164899,0.11259 0.26619,0.11259 0.119279,0 0.205081,-0.0335 0.2574,-0.1038 0.0523,-0.0703 0.11844,-0.20383 0.192521,-0.40221 l 0.190439,-0.50827 h 1.611321 l 0.190428,0.49747 -0.0021,0.002 c 0.02511,0.0611 0.0544,0.13059 0.0887,0.21178 0.0377,0.0791 0.0707,0.13979 0.101712,0.17955 0.0293,0.0377 0.0674,0.0665 0.112577,0.0887 0.0452,0.0209 0.0992,0.0335 0.162391,0.0335 0.1084,0 0.201321,-0.0377 0.276651,-0.11259 0.0774,-0.0774 0.1146781,-0.16114 0.1146781,-0.25321 0,-0.0883 -0.0419,-0.23145 -0.1209491,-0.42607 l -1.036,-2.55863 c -0.049,-0.12807 -0.0887,-0.22936 -0.120959,-0.30511 -0.0293,-0.0774 -0.0699,-0.14942 -0.116772,-0.21639 -0.0452,-0.0666 -0.106309,-0.12472 -0.181639,-0.16657 -0.0737,-0.0431 -0.16533,-0.0649 -0.276659,-0.0649 z m -6.960031,0.002 c -0.117189,0 -0.21387,0.0418 -0.28753,0.12095 -0.0741,0.0812 -0.11049,0.20341 -0.11049,0.36538 v 3.12315 c 0,0.16239 0.0377,0.28377 0.11049,0.36789 0.0758,0.0812 0.172442,0.12347 0.28753,0.12347 0.12096,0 0.218062,-0.0427 0.29214,-0.12347 0.0758,-0.0812 0.112591,-0.20382 0.112591,-0.36789 v -3.12315 c 0,-0.16406 -0.0377,-0.28627 -0.112591,-0.36538 -0.0741,-0.0812 -0.17118,-0.12095 -0.29214,-0.12095 z m 1.418791,0 c -0.11091,5.3e-4 -0.203401,0.0377 -0.276651,0.11258 -0.0741,0.0758 -0.11049,0.15863 -0.11049,0.25112 0,0.0377 0.004,0.082 0.0167,0.13394 0.01259,0.0523 0.02511,0.0996 0.0431,0.14481 0.01669,0.0452 0.0335,0.0917 0.0498,0.13853 l 0.945168,2.56947 c 0.0335,0.0992 0.0674,0.19253 0.101712,0.28126 0.0335,0.0883 0.0737,0.16783 0.118858,0.23772 0.0469,0.0682 0.107561,0.12263 0.181642,0.16449 0.0758,0.0431 0.166579,0.0649 0.274558,0.0649 0.1084,0 0.19839,-0.0209 0.272471,-0.0649 0.0757,-0.0431 0.13644,-0.0975 0.181642,-0.16449 0.0448,-0.0682 0.0845,-0.14732 0.118869,-0.23563 0.0335,-0.09 0.0674,-0.18416 0.1017,-0.28335 l 0.960329,-2.59111 c 0.0167,-0.0469 0.0335,-0.0908 0.0498,-0.13393 0.0168,-0.0448 0.0293,-0.0912 0.0431,-0.13644 0.01259,-0.0469 0.0168,-0.09 0.0168,-0.12974 0,-0.0578 -0.0168,-0.11301 -0.0519,-0.16868 -0.0335,-0.0577 -0.0791,-0.10421 -0.138541,-0.13853 -0.0573,-0.0335 -0.1197,-0.0519 -0.188341,-0.0519 -0.0937,0 -0.168669,0.0209 -0.22266,0.067 -0.0553,0.0431 -0.0921,0.0933 -0.114679,0.14942 -0.02511,0.054 -0.059,0.1536 -0.105891,0.29423 l -0.901899,2.6754 -0.89754,-2.65594 -0.0021,-0.004 c -0.0594,-0.18374 -0.11761,-0.31516 -0.175369,-0.39803 -0.0552,-0.0845 -0.151511,-0.12723 -0.28753,-0.12765 z m 16.7944591,0.002 c -0.304689,0 -0.57046,0.0439 -0.795919,0.13644 -0.225589,0.09 -0.398029,0.21973 -0.516941,0.38924 -0.119279,0.16951 -0.17745,0.36371 -0.17745,0.58181 0,0.22893 0.0548,0.4202 0.166571,0.57531 0.113429,0.15319 0.267451,0.2754 0.458509,0.36538 0.19294,0.0883 0.431052,0.167 0.715902,0.23355 0.212619,0.0486 0.382119,0.0933 0.50827,0.13644 0.128069,0.0431 0.232288,0.10756 0.311388,0.19043 0.0812,0.0808 0.12096,0.18625 0.12096,0.31809 0,0.16574 -0.0745,0.30553 -0.224759,0.41728 -0.14774,0.11007 -0.339431,0.16448 -0.57745,0.16448 -0.173271,0 -0.31306,-0.0293 -0.419621,-0.082 -0.10631,-0.0557 -0.18918,-0.12514 -0.248608,-0.20968 -0.0578,-0.085 -0.111752,-0.18918 -0.162391,-0.31558 -0.0419,-0.10631 -0.0921,-0.18792 -0.151511,-0.24233 -0.0573,-0.054 -0.129328,-0.0799 -0.214289,-0.0799 -0.104219,-4e-5 -0.190859,0.0377 -0.25949,0.10589 -0.0666,0.0682 -0.0996,0.15151 -0.0996,0.24861 0,0.16741 0.0569,0.34069 0.168669,0.51907 0.113429,0.17662 0.258659,0.31766 0.439049,0.42393 0.254051,0.14774 0.5777,0.22057 0.96895,0.22057 0.32645,0 0.607671,-0.054 0.84569,-0.16239 0.238141,-0.10799 0.41811,-0.25657 0.5407,-0.44771 0.124312,-0.19127 0.188341,-0.40723 0.188341,-0.64668 h -0.0021 c 0,-0.20006 -0.0335,-0.36705 -0.105889,-0.50396 -0.0703,-0.13895 -0.170352,-0.25363 -0.298421,-0.34403 -0.125978,-0.09 -0.280418,-0.16825 -0.462859,-0.23145 -0.18038,-0.0632 -0.382119,-0.11887 -0.605571,-0.17076 -0.17872,-0.0465 -0.307631,-0.0816 -0.385061,-0.1038 -0.0774,-0.0251 -0.153598,-0.0553 -0.229349,-0.0975 -0.0758,-0.0419 -0.133929,-0.0917 -0.177458,-0.14942 -0.0431,-0.0578 -0.0649,-0.12639 -0.0649,-0.2055 0,-0.12807 0.0619,-0.23647 0.188341,-0.32646 0.128069,-0.0917 0.296741,-0.13853 0.50395,-0.13853 0.223501,0 0.385471,0.0427 0.486629,0.12765 0.100873,0.0833 0.18751,0.19881 0.259501,0.34823 0.0557,0.10463 0.10672,0.18038 0.153601,0.22726 0.0486,0.0452 0.1197,0.0691 0.212199,0.0691 0.100861,0 0.183311,-0.0377 0.2507,-0.11468 0.0686,-0.0774 0.101701,-0.16407 0.101701,-0.25949 0,-0.10464 -0.02511,-0.21011 -0.0799,-0.32018 -0.054,-0.11008 -0.140208,-0.21722 -0.2574,-0.316 -0.117189,-0.10086 -0.26493,-0.1808 -0.443388,-0.24023 -0.17662,-0.0615 -0.38589,-0.0908 -0.629402,-0.0908 z m -35.72143,0.0628 c -0.17286,0 -0.298839,0.0377 -0.376269,0.11677 -0.0774,0.0774 -0.116772,0.20341 -0.116772,0.37627 v 2.90685 c 0,0.12807 0.01259,0.23228 0.0335,0.31348 0.02511,0.0791 0.0691,0.14063 0.142719,0.18583 0.0741,0.0431 0.187082,0.0649 0.33315,0.0649 h 1.04684 c 0.18206,0 0.344451,-0.008 0.48881,-0.0335 0.146061,-0.0251 0.282511,-0.0632 0.4089,-0.12096 0.1264,-0.0578 0.241922,-0.13602 0.348221,-0.23145 0.135189,-0.1243 0.24652,-0.26493 0.333161,-0.42176 0.0866,-0.15862 0.15109,-0.33566 0.192518,-0.53208 0.0419,-0.19629 0.0628,-0.41309 0.0628,-0.65099 0,-0.72113 -0.20801,-1.26017 -0.62072,-1.61349 -0.158631,-0.13854 -0.335251,-0.23271 -0.52987,-0.28335 -0.19462,-0.0506 -0.428501,-0.0758 -0.700792,-0.0758 z m 4.24348,0.002 c -0.113419,0 -0.207179,0.0168 -0.28126,0.0519 -0.072,0.0335 -0.125561,0.0862 -0.15988,0.15988 -0.0335,0.072 -0.0519,0.16574 -0.0519,0.28125 v 2.98039 c 0,0.17285 0.0377,0.29674 0.112591,0.37417 0.0774,0.0774 0.20592,0.11677 0.38087,0.11677 h 2.1823209 c 0.125979,0 0.220149,-0.0293 0.28335,-0.0866 0.0649,-0.0594 0.0975,-0.13561 0.0975,-0.22936 0,-0.0975 -0.0335,-0.17578 -0.0975,-0.23354 -0.0632,-0.0594 -0.157371,-0.0887 -0.28335,-0.0887 h -1.8730299 v -1.12682 h 1.667528 c 0.1243119,0 0.2151299,-0.0293 0.2745609,-0.0845 0.0594,-0.0578 0.0887,-0.13268 0.0887,-0.22266 0,-0.09 -0.0293,-0.16198 -0.0908,-0.21638 -0.0599,-0.0557 -0.15235,-0.082 -0.2745579,-0.082 h -1.665392 v -0.9753 h 1.8102799 v 0.002 c 0.128082,0 0.221831,-0.0293 0.28335,-0.0845 0.0632,-0.0578 0.095,-0.13351 0.095,-0.22726 0,-0.0921 -0.0335,-0.167 -0.095,-0.22266 -0.0615,-0.0578 -0.155268,-0.0866 -0.28335,-0.0866 z m 9.6743919,0 c -0.113432,0 -0.207182,0.0168 -0.28126,0.0519 -0.072,0.0335 -0.123471,0.0862 -0.157793,0.15988 -0.0335,0.072 -0.0519,0.16574 -0.0519,0.28125 v 2.98039 c 0,0.17285 0.0377,0.29674 0.112581,0.37417 0.0774,0.0774 0.203409,0.11677 0.378359,0.11677 h 2.182281 c 0.126399,0 0.222239,-0.0293 0.285438,-0.0866 0.0649,-0.0594 0.0975,-0.13561 0.0975,-0.22936 0,-0.0975 -0.0335,-0.17578 -0.0975,-0.23354 -0.0632,-0.0594 -0.159459,-0.0887 -0.285438,-0.0887 h -1.87085 v -1.12682 h 1.665388 c 0.124311,0 0.21722,-0.0293 0.276651,-0.0845 0.0594,-0.0578 0.0887,-0.13268 0.0887,-0.22266 0,-0.09 -0.0293,-0.16198 -0.0908,-0.21638 -0.0598,-0.0557 -0.15235,-0.082 -0.274558,-0.082 h -1.665391 v -0.9753 h 1.808149 l 0.0021,0.002 c 0.127651,0 0.221819,-0.0293 0.28334,-0.0845 0.0632,-0.0578 0.095,-0.13351 0.095,-0.22726 0,-0.0921 -0.0335,-0.167 -0.095,-0.22266 -0.0611,-0.0578 -0.155271,-0.0866 -0.28334,-0.0866 z m 15.3085691,0 c -0.113421,0 -0.207171,0.0168 -0.281249,0.0519 -0.072,0.0335 -0.125561,0.0862 -0.15988,0.15988 -0.0335,0.072 -0.0519,0.16574 -0.0519,0.28125 v 2.98039 c 0,0.17285 0.0377,0.29674 0.114679,0.37417 0.0774,0.0774 0.203411,0.11677 0.378351,0.11677 h 2.182289 c 0.125981,0 0.220152,-0.0293 0.283339,-0.0866 0.0649,-0.0594 0.0971,-0.13561 0.0971,-0.22936 0,-0.0975 -0.0335,-0.17578 -0.0971,-0.23354 -0.0632,-0.0594 -0.157358,-0.0887 -0.283339,-0.0887 h -1.87085 v -1.12682 h 1.66539 c 0.124301,0 0.21722,-0.0293 0.276651,-0.0845 0.0594,-0.0578 0.0887,-0.13268 0.0887,-0.22266 0,-0.09 -0.0335,-0.16198 -0.0929,-0.21638 -0.0598,-0.0557 -0.149829,-0.082 -0.27246,-0.082 h -1.665388 v -0.9753 h 1.808109 v 0.002 c 0.127648,0 0.223909,-0.0293 0.285441,-0.0845 0.0632,-0.0578 0.0929,-0.13351 0.0929,-0.22726 0,-0.0921 -0.0293,-0.167 -0.0929,-0.22266 -0.0611,-0.0578 -0.157372,-0.0866 -0.285441,-0.0866 z m 10.952599,0 c -0.17662,0 -0.303858,0.0377 -0.385048,0.11258 -0.0812,0.0757 -0.12347,0.20467 -0.12347,0.38045 v 3.05392 c 0,0.15863 0.0377,0.28042 0.11258,0.36329 0.0741,0.0812 0.17118,0.12096 0.292139,0.12096 0.11552,0 0.210109,-0.0423 0.285441,-0.12347 0.0758,-0.0829 0.114678,-0.20508 0.114678,-0.36538 v -1.12251 h 0.73537 c 0.492072,0 0.862812,-0.10421 1.111671,-0.31139 0.24902,-0.20927 0.37207,-0.51538 0.37207,-0.91923 0,-0.18918 -0.0293,-0.35868 -0.0908,-0.51044 -0.0615,-0.15151 -0.151511,-0.28042 -0.270369,-0.38506 -0.117192,-0.10421 -0.2574,-0.17955 -0.419622,-0.22475 -0.164068,-0.0469 -0.398449,-0.0691 -0.702889,-0.0691 z m 0.29632,0.60344 h 0.540711 c 0.358679,0 0.596029,0.0573 0.711549,0.17537 0.102542,0.11007 0.153601,0.25321 0.153601,0.4282 0,0.14607 -0.0335,0.26493 -0.0996,0.3545 -0.0666,0.09 -0.16407,0.15486 -0.292139,0.19462 -0.126402,0.0377 -0.284602,0.0582 -0.47366,0.0582 h -0.540702 z m -40.16393,0.0293 h 0.53208 c 0.245261,0 0.454239,0.0293 0.627221,0.0799 0.17285,0.0523 0.31767,0.17704 0.434729,0.37208 0.118862,0.19462 0.177461,0.48684 0.177461,0.87809 0,0.55531 -0.133511,0.94726 -0.402211,1.17444 -0.0594,0.0523 -0.130591,0.0904 -0.212199,0.11887 -0.0812,0.0293 -0.157792,0.0456 -0.233542,0.054 -0.0758,0.008 -0.180388,0.0126 -0.313489,0.0126 h -0.609931 z m 24.1502519,0.14481 0.59695,1.63727 h -1.183071 z m 8.5064601,2.43964 c -0.113422,0 -0.208011,0.0377 -0.285441,0.11677 -0.0774,0.0795 -0.116771,0.17328 -0.116771,0.28335 0,0.13017 0.0419,0.23062 0.120959,0.3026 0.0808,0.0724 0.178301,0.10798 0.289632,0.10798 0.1084,0 0.201729,-0.0377 0.281249,-0.10798 0.0812,-0.0741 0.12096,-0.17453 0.12096,-0.3026 0,-0.11175 -0.0419,-0.20592 -0.12096,-0.28335 -0.0791,-0.0791 -0.176199,-0.11677 -0.289628,-0.11677 z m 5.51738,0 c -0.113422,0 -0.210101,0.0377 -0.287531,0.11677 -0.0774,0.0795 -0.116771,0.17328 -0.116771,0.28335 0,0.13017 0.0423,0.23062 0.12305,0.3026 0.0808,0.0724 0.175781,0.10798 0.28753,0.10798 0.1084,0 0.201732,-0.0377 0.28125,-0.10798 0.0812,-0.0741 0.12347,-0.17453 0.12347,-0.3026 0,-0.11175 -0.0423,-0.20592 -0.12347,-0.28335 -0.0791,-0.0791 -0.174109,-0.11677 -0.287528,-0.11677 z m -155.060339,7.78226 c -0.87461,-0.29758 -24.21395,12.32262 -25.95187,14.0325 -0.47671,0.4691 -0.54757,1.68381 -0.15779,2.69922 0.38966,1.01544 1.44972,1.8449 2.35748,1.8449 1.92279,0 25.09242,-18.12092 23.75231,-18.57662 z m 45.367698,0.33315 c -0.55635,0.10756 0.277489,1.08317 2.727338,3.00198 1.760529,1.3789 6.694842,5.34959 10.965571,8.82225 7.903991,6.4269 12.196271,7.75528 12.196271,3.77632 0,-1.5069 -3.507071,-4.08038 -12.559602,-9.2202 -7.61289,-4.32242 -12.402349,-6.55936 -13.329578,-6.38035 z m -3.345892,3.84767 c -0.741598,0 0.97364,3.01755 3.810891,6.7048 5.118169,6.65144 8.37755,8.13686 9.142339,4.16564 0.364551,-1.89253 -10.33354,-10.87044 -12.95323,-10.87044 z m -38.918116,0.20341 c -1.38903,-0.51149 -13.23876,8.67844 -13.23876,10.26699 0,0.73892 0.34948,1.69247 0.77647,2.11959 0.42707,0.42858 1.52104,0.63173 2.43106,0.45637 2.02487,-0.39008 11.36719,-12.35092 10.03123,-12.84295 z m 34.882228,3.46919 c -0.0624,-0.0126 -0.109651,-0.008 -0.140632,0.0251 -0.53128,0.53129 10.69679,21.58262 13.262531,24.86615 1.451189,1.85708 4.523819,1.25264 4.9529,-0.97543 0.341529,-1.77354 -16.142341,-23.46264 -18.074842,-23.91453 z m -30.861528,0.0477 c -1.72307,0.63488 -18.36682,21.741 -18.36682,23.38894 0,0.72272 0.33148,1.64656 0.73755,2.05253 1.67208,1.67213 3.80845,0.50384 6.24843,-3.41511 5.22147,-8.38639 12.05342,-21.47054 11.49978,-22.02418 -0.0251,-0.0251 -0.0632,-0.0209 -0.11886,-0.002 z m 25.16896,1.79949 c -0.29508,0.0858 -0.29423,0.71766 0.0649,1.95523 0.3093,1.06584 1.113258,4.18032 1.788686,6.92106 0.675352,2.74077 1.438172,5.6061 1.693482,6.36742 0.63111,1.88165 4.88823,1.75918 5.62552,-0.16239 0.326459,-0.85105 -1.305829,-4.58848 -3.629242,-8.30532 -2.816018,-4.50498 -4.893878,-6.96505 -5.543316,-6.77617 z m -20.03003,0.0168 c -1.50438,0 -9.33516,14.24726 -8.5389,15.53563 0.40891,0.66192 1.78894,1.05006 3.06472,0.86298 2.29407,-0.3365 2.4388,-0.682 5.61042,-13.35335 0.41937,-1.67489 0.35784,-3.04526 -0.13645,-3.04526 z m 4.77121,1.30633 c -0.0335,-0.004 -0.0661,0.0126 -0.10379,0.0498 -1.18253,1.18249 -8.22764,27.99864 -7.71703,29.37348 0.89755,2.4167 4.92677,1.60228 5.47849,-1.10736 1.75968,-8.64299 3.34087,-28.19781 2.34233,-28.31588 z m 10.83583,1.04897 c -0.23522,0.008 -0.35492,0.56654 -0.35492,1.67837 0,2.29018 1.81782,17.88336 2.85491,24.48119 0.40807,2.59571 1.15273,3.59893 2.666777,3.59893 1.154571,0 2.433569,-0.54246 2.844149,-1.20684 0.410581,-0.66438 -0.882441,-7.01795 -2.874409,-14.11902 -2.684567,-9.56929 -4.430947,-14.46113 -5.136757,-14.43263 z m -5.18435,0.44771 c -0.21555,-0.0465 -0.43733,0.12347 -0.65965,0.5364 -1.27704,2.372 -2.55022,14.1255 -1.68268,15.52918 0.40389,0.65329 1.55825,1.01955 2.56729,0.81322 1.44893,-0.29591 1.80372,-1.58441 1.68485,-6.12731 -0.16407,-6.27266 -0.97543,-10.54934 -1.90981,-10.75149 z"
       id="path1712"
       inkscape:connector-curvature="0" />
  </g>
</svg>
