<?xml version="1.0" encoding="UTF-8" standalone="no"?>
<!-- Created with Inkscape (http://www.inkscape.org/) -->

<svg
   xmlns:dc="http://purl.org/dc/elements/1.1/"
   xmlns:cc="http://creativecommons.org/ns#"
   xmlns:rdf="http://www.w3.org/1999/02/22-rdf-syntax-ns#"
   xmlns:svg="http://www.w3.org/2000/svg"
   xmlns="http://www.w3.org/2000/svg"
   xmlns:sodipodi="http://sodipodi.sourceforge.net/DTD/sodipodi-0.dtd"
   xmlns:inkscape="http://www.inkscape.org/namespaces/inkscape"
   width="140.41779mm"
   height="164.89653mm"
   viewBox="0 0 140.41778 164.89652"
   version="1.1"
   id="svg2206"
   inkscape:version="0.92.4 (5da689c313, 2019-01-14)"
   sodipodi:docname="filtros_exteriores.svg">
  <defs
     id="defs2200" />
  <sodipodi:namedview
     id="base"
     pagecolor="#ffffff"
     bordercolor="#666666"
     borderopacity="1.0"
     inkscape:pageopacity="0.0"
     inkscape:pageshadow="2"
     inkscape:zoom="0.49497475"
     inkscape:cx="139.8339"
     inkscape:cy="322.11989"
     inkscape:document-units="mm"
     inkscape:current-layer="layer1"
     showgrid="false"
     inkscape:window-width="1366"
     inkscape:window-height="705"
     inkscape:window-x="-8"
     inkscape:window-y="-8"
     inkscape:window-maximized="1" />
  <metadata
     id="metadata2203">
    <rdf:RDF>
      <cc:Work
         rdf:about="">
        <dc:format>image/svg+xml</dc:format>
        <dc:type
           rdf:resource="http://purl.org/dc/dcmitype/StillImage" />
        <dc:title></dc:title>
      </cc:Work>
    </rdf:RDF>
  </metadata>
  <g
     inkscape:label="Capa 1"
     inkscape:groupmode="layer"
     id="layer1"
     transform="translate(163.40354,62.348715)">
    <path
       inkscape:connector-curvature="0"
       style="opacity:1;fill:#ac9393;fill-opacity:1;stroke:none;stroke-width:2;stroke-linecap:round;stroke-linejoin:round;stroke-miterlimit:4;stroke-dasharray:none;stroke-dashoffset:0;stroke-opacity:1"
       d="m -161.11272,-61.349742 c -0.71528,0 -1.29141,0.576117 -1.29141,1.291394 V 100.25692 c 0,0.71528 0.57613,1.29088 1.29141,1.29088 h 14.12729 c 0.71527,0 1.29088,-0.5756 1.29088,-1.29088 V -60.058348 c 0,-0.715277 -0.57561,-1.291394 -1.29088,-1.291394 z m 121.708332,0 c -0.715274,0 -1.291405,0.576117 -1.291405,1.291394 V 100.25692 c 0,0.71528 0.576131,1.29088 1.291405,1.29088 h 14.126792 c 0.715274,0 1.291378,-0.5756 1.291378,-1.29088 V -60.058348 c 0,-0.715277 -0.576104,-1.291394 -1.291378,-1.291394 z"
       id="rect1672" />
    <path
       id="path1676"
       d="m -144.47406,-61.354394 c -0.6298,0 -1.1369,0.507021 -1.1369,1.13688 V 100.41349 c 0,0.62987 0.5071,1.13689 1.1369,1.13689 h 102.535895 c 0.629801,0 1.136902,-0.50702 1.136902,-1.13689 V -60.217514 c 0,-0.629859 -0.507101,-1.13688 -1.136902,-1.13688 z m 19.94039,20.440601 c 0.42111,-0.006 0.76411,0.33697 0.7576,0.75811 v 20.101619 c 0,1.055 -0.30009,2.11505 -1.01389,2.92952 -0.7136,0.814491 -1.8362,1.322411 -3.24011,1.322411 -1.56329,0 -2.61149,-1.051801 -3.18949,-1.982311 -0.57801,-0.930489 -0.7948,-1.847959 -0.7948,-1.847959 -0.2646,-0.98566 1.2355,-1.348909 1.45109,-0.35139 0,0 0.17691,0.71242 0.61141,1.41179 0.43439,0.699371 1.0155,1.277459 1.92179,1.277459 1.06541,0 1.6949,-0.33242 2.11721,-0.814438 0.4224,-0.481991 0.6428,-1.17266 0.6428,-1.945082 v -20.101619 c -0.01,-0.41283 0.32359,-0.75244 0.73639,-0.75811 z m 8.12871,0 c 0.4211,-0.006 0.7641,0.33697 0.7576,0.75811 v 20.101619 c 0,0.772422 0.22059,1.463091 0.6429,1.945082 0.4224,0.481989 1.0516,0.814438 2.11719,0.814438 0.90621,0 1.48741,-0.578088 1.92181,-1.277459 0.43449,-0.69937 0.6134,-1.41179 0.6134,-1.41179 0.2156,-0.997519 1.7157,-0.63427 1.45109,0.35139 0,0 -0.21889,0.91747 -0.79689,1.847959 -0.5779,0.93051 -1.6262,1.982311 -3.18941,1.982311 -1.40409,0 -2.52649,-0.50792 -3.24019,-1.322411 -0.7137,-0.81447 -1.01391,-1.874549 -1.01391,-2.92952 v -20.101619 c -0.01,-0.41283 0.32361,-0.75244 0.73641,-0.75811 z m 46.969294,0 c 0.421101,-0.006 0.764001,0.33697 0.7576,0.75811 v 20.101619 c 0,1.055 -0.300098,2.11505 -1.013899,2.92952 -0.7136,0.814491 -1.8362,1.322411 -3.2401,1.322411 -1.5634,0 -2.611499,-1.051801 -3.1895,-1.982311 -0.578,-0.930489 -0.7948,-1.847959 -0.7948,-1.847959 -0.264599,-0.98566 1.2354,-1.348909 1.451102,-0.35139 0,0 0.1768,0.71242 0.611299,1.41179 0.4344,0.699371 1.0156,1.277459 1.921899,1.277459 1.0654,0 1.694801,-0.33242 2.1171,-0.814438 0.422399,-0.481991 0.642901,-1.17266 0.642901,-1.945082 v -20.101619 c -0.01,-0.41283 0.3235,-0.75244 0.736398,-0.75811 z m 8.128702,0 c 0.4211,-0.006 0.764,0.33697 0.7576,0.75811 v 20.101619 c 0,0.772422 0.220501,1.463091 0.6428,1.945082 0.422399,0.481989 1.0517,0.814438 2.117201,0.814438 0.906298,0 1.4874,-0.578088 1.921899,-1.277459 0.434501,-0.69937 0.613302,-1.41179 0.613302,-1.41179 0.215598,-0.997519 1.715698,-0.63427 1.451099,0.35139 0,0 -0.2188,0.91747 -0.796801,1.847959 -0.5779,0.93051 -1.626201,1.982311 -3.189499,1.982311 -1.404001,0 -2.526401,-0.50792 -3.240101,-1.322411 -0.7137,-0.81447 -1.013899,-1.874549 -1.013899,-2.92952 v -20.101619 c -0.01,-0.41283 0.323498,-0.75244 0.736399,-0.75811 z M -124.53367,7.5416577 c 0.42091,-0.006 0.76381,0.33665 0.7576,0.757579 V 28.400845 c 0,1.05498 -0.30009,2.11715 -1.01389,2.93161 -0.7136,0.81447 -1.8362,1.32239 -3.24011,1.32239 -1.56329,0 -2.61149,-1.0518 -3.18949,-1.98231 -0.57801,-0.93049 -0.7948,-1.84793 -0.7948,-1.84793 -0.22141,-0.95869 1.20679,-1.30661 1.45109,-0.35348 0,0 0.17691,0.71297 0.61141,1.41232 0.43439,0.69937 1.0155,1.27743 1.92179,1.27743 1.06541,0 1.6949,-0.33086 2.11721,-0.81285 0.4224,-0.48202 0.6428,-1.17475 0.6428,-1.94718 V 8.2992367 c -0.01,-0.412621 0.3238,-0.751909 0.73639,-0.757579 z m 8.12871,0 c 0.4209,-0.006 0.7638,0.33665 0.7576,0.757579 V 28.400845 c 0,0.77246 0.22059,1.46516 0.6429,1.94718 0.4224,0.48194 1.0516,0.81285 2.11719,0.81285 0.90621,0 1.48741,-0.57806 1.92181,-1.27743 0.43449,-0.69935 0.6134,-1.41232 0.6134,-1.41232 0.2443,-0.95313 1.6725,-0.60521 1.45109,0.35348 0,0 -0.21889,0.91744 -0.79689,1.84793 -0.5779,0.93051 -1.6262,1.98231 -3.18941,1.98231 -1.40409,0 -2.52649,-0.50792 -3.24019,-1.32239 -0.7137,-0.81449 -1.01391,-1.87663 -1.01391,-2.93161 V 8.2992367 c -0.01,-0.412621 0.32381,-0.751909 0.73641,-0.757579 z m 46.969294,0 c 0.420902,-0.006 0.763702,0.33665 0.7576,0.757579 V 28.400845 c 0,1.05498 -0.300098,2.11715 -1.013899,2.93161 -0.7136,0.81447 -1.8362,1.32239 -3.2401,1.32239 -1.5634,0 -2.611499,-1.0518 -3.1895,-1.98231 -0.578,-0.93049 -0.7948,-1.84793 -0.7948,-1.84793 -0.221499,-0.95869 1.206802,-1.30661 1.451102,-0.35348 0,0 0.1768,0.71297 0.611299,1.41232 0.4344,0.69937 1.0156,1.27743 1.921899,1.27743 1.0654,0 1.694801,-0.33086 2.1171,-0.81285 0.422399,-0.48202 0.642901,-1.17475 0.642901,-1.94718 V 8.2992367 c -0.01,-0.412621 0.323699,-0.751909 0.736398,-0.757579 z m 8.128702,0 c 0.420899,-0.006 0.763701,0.33665 0.7576,0.757579 V 28.400845 c 0,0.77246 0.220501,1.46516 0.6428,1.94718 0.422399,0.48194 1.0517,0.81285 2.117201,0.81285 0.906298,0 1.4874,-0.57806 1.921899,-1.27743 0.434501,-0.69935 0.613302,-1.41232 0.613302,-1.41232 0.244199,-0.95313 1.6725,-0.60521 1.451099,0.35348 0,0 -0.2188,0.91744 -0.796801,1.84793 -0.5779,0.93051 -1.626201,1.98231 -3.189499,1.98231 -1.404001,0 -2.526401,-0.50792 -3.240101,-1.32239 -0.7137,-0.81449 -1.013899,-1.87663 -1.013899,-2.93161 V 8.2992367 c -0.01,-0.412621 0.323699,-0.751909 0.736399,-0.757579 z M -124.53367,55.998635 c 0.42091,-0.006 0.76381,0.33665 0.7576,0.75758 v 20.10162 c 0,1.055 -0.30009,2.11508 -1.01389,2.92954 -0.7136,0.81447 -1.8362,1.32239 -3.24011,1.32239 -1.56329,0 -2.61149,-1.05183 -3.18949,-1.98229 -0.57801,-0.93048 -0.7948,-1.84745 -0.7948,-1.84745 -0.2604,-0.98293 1.23229,-1.34493 1.45109,-0.35192 0,3e-5 0.17691,0.71297 0.61141,1.41232 0.43439,0.69937 1.0155,1.27746 1.92179,1.27746 1.06541,0 1.6949,-0.33245 2.11721,-0.81444 0.4224,-0.48199 0.6428,-1.17316 0.6428,-1.94561 v -20.10162 c -0.01,-0.41262 0.3238,-0.75191 0.73639,-0.75758 z m 8.12871,0 c 0.4209,-0.006 0.7638,0.33665 0.7576,0.75758 v 20.10162 c 0,0.77245 0.22059,1.46362 0.6429,1.94561 0.4224,0.48199 1.0516,0.81444 2.11719,0.81444 0.90621,0 1.48741,-0.57809 1.92181,-1.27746 0.43449,-0.69935 0.6134,-1.41229 0.6134,-1.41232 0.2188,-0.99301 1.71149,-0.63101 1.45109,0.35192 0,0 -0.21889,0.91697 -0.79689,1.84745 -0.5779,0.93046 -1.6262,1.98229 -3.18941,1.98229 -1.40409,0 -2.52649,-0.50789 -3.24019,-1.32239 -0.7137,-0.81446 -1.01391,-1.87454 -1.01391,-2.92954 v -20.10162 c -0.01,-0.41262 0.32381,-0.75191 0.73641,-0.75758 z m 46.969294,0 c 0.420902,-0.006 0.763702,0.33665 0.7576,0.75758 v 20.10162 c 0,1.055 -0.300098,2.11508 -1.013899,2.92954 -0.7136,0.81447 -1.8362,1.32239 -3.2401,1.32239 -1.5634,0 -2.611499,-1.0518 -3.1895,-1.98229 -0.578,-0.93048 -0.7948,-1.84745 -0.7948,-1.84745 -0.2604,-0.98293 1.232299,-1.34493 1.451102,-0.35192 0,3e-5 0.1768,0.71297 0.611299,1.41232 0.4344,0.69937 1.0156,1.27746 1.921899,1.27746 1.0654,0 1.694801,-0.33245 2.1171,-0.81444 0.422399,-0.48199 0.642901,-1.17316 0.642901,-1.94561 v -20.10162 c -0.01,-0.41262 0.323699,-0.75191 0.736398,-0.75758 z m 8.128702,0 c 0.420899,-0.006 0.763701,0.33665 0.7576,0.75758 v 20.10162 c 0,0.77245 0.220501,1.46362 0.6428,1.94561 0.422399,0.48199 1.0517,0.81444 2.117201,0.81444 0.906298,0 1.4874,-0.57809 1.921899,-1.27746 0.434501,-0.69935 0.613302,-1.41232 0.613302,-1.41232 0.218799,-0.99301 1.711499,-0.63101 1.451099,0.35192 0,0 -0.2188,0.91697 -0.796801,1.84745 -0.5779,0.93049 -1.626201,1.98229 -3.189499,1.98229 -1.404001,0 -2.526401,-0.50789 -3.240101,-1.32239 -0.7137,-0.81446 -1.013899,-1.87454 -1.013899,-2.92954 v -20.10162 c -0.01,-0.41262 0.323699,-0.75191 0.736399,-0.75758 z"
       style="opacity:1;fill:#0088aa;fill-opacity:1;stroke:none;stroke-width:1.99261463;stroke-linecap:round;stroke-linejoin:round;stroke-miterlimit:4;stroke-dasharray:none;stroke-dashoffset:0;stroke-opacity:1"
       inkscape:connector-curvature="0"
       sodipodi:nodetypes="sssssssssccscsccccscsccccscsccccscsccccscsccccscsccccscsscccscsccccscsccccscsccccscsccccscsccccscsccccscsccccscsccccscsccccscsccccscsccccscsccccscsccccscsccccscsccccscsccccscscc" />
    <path
       inkscape:connector-curvature="0"
       style="color:#000000;font-style:normal;font-variant:normal;font-weight:normal;font-stretch:normal;font-size:medium;line-height:normal;font-family:sans-serif;font-variant-ligatures:normal;font-variant-position:normal;font-variant-caps:normal;font-variant-numeric:normal;font-variant-alternates:normal;font-feature-settings:normal;text-indent:0;text-align:start;text-decoration:none;text-decoration-line:none;text-decoration-style:solid;text-decoration-color:#000000;letter-spacing:normal;word-spacing:normal;text-transform:none;writing-mode:lr-tb;direction:ltr;text-orientation:mixed;dominant-baseline:auto;baseline-shift:baseline;text-anchor:start;white-space:normal;shape-padding:0;clip-rule:nonzero;display:inline;overflow:visible;visibility:visible;opacity:1;isolation:auto;mix-blend-mode:normal;color-interpolation:sRGB;color-interpolation-filters:linearRGB;solid-color:#000000;solid-opacity:1;vector-effect:none;fill:#000000;fill-opacity:1;fill-rule:nonzero;stroke:none;stroke-width:2;stroke-linecap:round;stroke-linejoin:round;stroke-miterlimit:4;stroke-dasharray:none;stroke-dashoffset:0;stroke-opacity:1;color-rendering:auto;image-rendering:auto;shape-rendering:auto;text-rendering:auto;enable-background:accumulate"
       d="m -161.11272,-62.348647 c -1.25201,0 -2.29082,1.038836 -2.29082,2.290815 V 100.25692 c 0,1.25198 1.03881,2.29082 2.29082,2.29082 h 14.12679 c 0.26963,0 0.52832,-0.0509 0.76996,-0.13902 a 1.0001,1.0001 0 0 0 0.52142,0.13902 h 106.290665 14.126792 c 1.252008,0 2.291344,-1.03884 2.291344,-2.29082 V -60.057832 c 0,-1.251979 -1.039336,-2.290815 -2.291344,-2.290815 H -39.403885 -145.69455 a 1.0001,1.0001 0 0 0 -0.52039,0.139009 c -0.24191,-0.08837 -0.50099,-0.139009 -0.77099,-0.139009 z m 0,1.999876 h 14.12679 c 0.17859,0 0.29144,0.112358 0.29144,0.290939 V 100.25692 c 0,0.17859 -0.11285,0.29094 -0.29144,0.29094 h -14.12679 c -0.1786,0 -0.29094,-0.11235 -0.29094,-0.29094 V -60.057832 c 0,-0.178581 0.11234,-0.290939 0.29094,-0.290939 z m 16.39692,0 h 103.042293 c -0.01243,0.09562 -0.02117,0.19227 -0.02117,0.290939 V 100.25692 c 0,0.0987 0.0087,0.19532 0.02117,0.29094 H -144.7158 c 0.0124,-0.0956 0.0212,-0.19228 0.0212,-0.29094 V -60.057832 c 0,-0.09867 -0.009,-0.195318 -0.0212,-0.290939 z m 105.311915,0 h 14.126792 c 0.178593,0 0.291465,0.112358 0.291465,0.290939 V 100.25692 c 0,0.17859 -0.112872,0.29094 -0.291465,0.29094 h -14.126792 c -0.178594,0 -0.290936,-0.11235 -0.290936,-0.29094 V -60.057832 c 0,-0.178581 0.112342,-0.290939 0.290936,-0.290939 z"
       id="rect2077" />
  </g>
</svg>
