<?xml version="1.0" encoding="UTF-8" standalone="no"?>
<!-- Created with Inkscape (http://www.inkscape.org/) -->

<svg
   xmlns:dc="http://purl.org/dc/elements/1.1/"
   xmlns:cc="http://creativecommons.org/ns#"
   xmlns:rdf="http://www.w3.org/1999/02/22-rdf-syntax-ns#"
   xmlns:svg="http://www.w3.org/2000/svg"
   xmlns="http://www.w3.org/2000/svg"
   xmlns:sodipodi="http://sodipodi.sourceforge.net/DTD/sodipodi-0.dtd"
   xmlns:inkscape="http://www.inkscape.org/namespaces/inkscape"
   width="170.05057mm"
   height="164.89938mm"
   viewBox="0 0 170.05056 164.89937"
   version="1.1"
   id="svg2206"
   inkscape:version="0.92.4 (5da689c313, 2019-01-14)"
   sodipodi:docname="filtros_interiores.svg">
  <defs
     id="defs2200" />
  <sodipodi:namedview
     id="base"
     pagecolor="#ffffff"
     bordercolor="#666666"
     borderopacity="1.0"
     inkscape:pageopacity="0.0"
     inkscape:pageshadow="2"
     inkscape:zoom="0.49497475"
     inkscape:cx="255.11818"
     inkscape:cy="306.45135"
     inkscape:document-units="mm"
     inkscape:current-layer="layer1"
     showgrid="false"
     inkscape:window-width="1366"
     inkscape:window-height="705"
     inkscape:window-x="-8"
     inkscape:window-y="-8"
     inkscape:window-maximized="1" />
  <metadata
     id="metadata2203">
    <rdf:RDF>
      <cc:Work
         rdf:about="">
        <dc:format>image/svg+xml</dc:format>
        <dc:type
           rdf:resource="http://purl.org/dc/dcmitype/StillImage" />
        <dc:title></dc:title>
      </cc:Work>
    </rdf:RDF>
  </metadata>
  <g
     inkscape:label="Capa 1"
     inkscape:groupmode="layer"
     id="layer1"
     transform="translate(193.90584,66.497204)">
    <path
       inkscape:connector-curvature="0"
       style="opacity:1;fill:#0088aa;fill-opacity:1;stroke:none;stroke-width:1.99261451;stroke-linecap:round;stroke-linejoin:round;stroke-miterlimit:4;stroke-dasharray:none;stroke-dashoffset:0;stroke-opacity:1"
       d="m -175.07028,-65.50295 c -0.62982,0 -1.13689,0.507021 -1.13689,1.136883 V 96.264951 c 0,0.62986 0.50707,1.13689 1.13689,1.13689 h 61.28313 c 0.62971,0 1.13691,-0.50703 1.13691,-1.13689 V -64.366067 c 0,-0.629862 -0.5072,-1.136883 -1.13691,-1.136883 z m 71.28703,0 c -0.62971,0 -1.13692,0.507021 -1.13692,1.136883 V 96.264951 c 0,0.62986 0.50721,1.13689 1.13692,1.13689 h 61.283053 c 0.629973,0 1.136914,-0.50703 1.136914,-1.13689 V -64.366067 c 0,-0.629862 -0.506941,-1.136883 -1.136914,-1.136883 z m 19.423059,15.380449 c 3.837517,0 6.965156,3.127507 6.965156,6.964971 0,3.837358 -3.127639,6.964944 -6.965156,6.964944 -3.837252,0 -6.964362,-3.127586 -6.964362,-6.964944 0,-3.837464 3.12711,-6.964971 6.964362,-6.964971 z m 0,1.500187 c -3.026569,0 -5.464704,2.438003 -5.464704,5.464784 0,3.026701 2.438135,5.464757 5.464704,5.464757 3.026833,0 5.465498,-2.438056 5.465498,-5.464757 0,-3.026781 -2.438665,-5.464784 -5.465498,-5.464784 z m -78.008959,12.003379 h 0.005 c 0.86757,0 1.6174,0.322871 2.1008,0.874368 0.47598,0.543349 0.66145,1.233805 0.66145,1.88931 v 10.683055 c 0,0.01349 0,0.02696 0,0.0403 v 2.102723 c 0,0.316178 0.0937,0.56396 0.21855,0.706411 0.13705,0.156607 0.28628,0.261488 0.7493,0.261488 0.26935,0 0.40719,-0.135255 0.59796,-0.442357 0.17992,-0.28956 0.26194,-0.585046 0.26194,-0.596344 0.0571,-0.253921 0.22833,-0.481065 0.43973,-0.595313 0.21141,-0.1143 0.44186,-0.130439 0.64797,-0.08062 0.20611,0.04993 0.40375,0.169651 0.53948,0.367956 0.13547,0.197802 0.1823,0.4767 0.11748,0.728107 v 0.0026 c -0.003,0.01111 -0.13097,0.554672 -0.48287,1.121383 -0.36142,0.581845 -1.06574,1.290876 -2.12169,1.290876 -0.86783,0 -1.6166,-0.323639 -2.09973,-0.874871 -0.47599,-0.543349 -0.66199,-1.233303 -0.66199,-1.888781 v -10.685648 c 0,-0.01588 0,-0.0308 0,-0.04651 v -2.093912 c 0,-0.316283 -0.0942,-0.564515 -0.21908,-0.706941 -0.13678,-0.156157 -0.2868,-0.262017 -0.74982,-0.262017 -0.26935,0 -0.40614,0.135811 -0.59743,0.443389 -0.1831,0.295037 -0.26591,0.607193 -0.26591,0.607193 v -0.01349 c -0.0558,0.255376 -0.22675,0.484187 -0.43894,0.59944 -0.2122,0.115305 -0.44239,0.130201 -0.64903,0.08009 -0.20664,-0.05008 -0.40454,-0.167349 -0.54054,-0.366898 -0.1352,-0.19849 -0.18177,-0.479134 -0.11562,-0.730699 0,-0.0095 0.12806,-0.555334 0.48048,-1.122945 0.36116,-0.581528 1.06733,-1.290876 2.12355,-1.290876 z m 32.14688,0 h 0.005 c 0.86757,0 1.61634,0.322871 2.09973,0.874368 0.47625,0.543349 0.66199,1.233805 0.66199,1.88931 v 10.683055 c 0,0.01349 0,0.02696 0,0.0403 v 2.102723 c 0,0.316178 0.0937,0.56396 0.21854,0.706411 0.13706,0.156607 0.28681,0.261488 0.74983,0.261488 0.26935,0 0.4072,-0.135255 0.59796,-0.442357 0.17939,-0.28956 0.26141,-0.585046 0.26141,-0.596344 0.0572,-0.253921 0.22886,-0.481065 0.44027,-0.595313 0.2114,-0.1143 0.44185,-0.130439 0.64796,-0.08062 0.20611,0.04993 0.40323,0.169651 0.53896,0.367956 0.13546,0.197802 0.1823,0.4767 0.11747,0.728107 v 0.0026 c -0.003,0.01111 -0.1315,0.554672 -0.48339,1.121383 -0.36142,0.581845 -1.06468,1.290876 -2.12064,1.290876 -0.86783,0 -1.6166,-0.323639 -2.09973,-0.874871 -0.47625,-0.543349 -0.66252,-1.233303 -0.66252,-1.888781 v -10.685648 c 0,-0.01588 0,-0.0308 0,-0.04651 v -2.093912 c 0,-0.316283 -0.0937,-0.564515 -0.21854,-0.706941 -0.13679,-0.156157 -0.28734,-0.262017 -0.75036,-0.262017 -0.26935,0 -0.4056,0.135811 -0.5969,0.443389 -0.18362,0.295037 -0.2659,0.607193 -0.2659,0.607193 v -0.01349 c -0.0558,0.255376 -0.22781,0.484187 -0.44001,0.59944 -0.21193,0.115305 -0.44132,0.130201 -0.64796,0.08009 -0.20664,-0.05008 -0.40561,-0.167349 -0.5416,-0.366898 -0.13468,-0.19849 -0.18071,-0.479134 -0.11457,-0.730699 0,-0.0095 0.1278,-0.555334 0.48049,-1.122945 0.36115,-0.581528 1.06653,-1.290876 2.12301,-1.290876 z m 69.061804,7.055405 c 2.091267,0 3.802856,1.7095 3.802856,3.800793 0,2.091267 -1.711589,3.802353 -3.802856,3.802353 -2.091267,0 -3.802327,-1.711086 -3.802327,-3.802353 0,-2.091293 1.71106,-3.800793 3.802327,-3.800793 z m 0,1.499632 c -1.280583,0 -2.302139,1.020525 -2.302139,2.301161 0,1.28061 1.021556,2.302695 2.302139,2.302695 1.280583,0 2.302669,-1.022085 2.302669,-2.302695 0,-1.280636 -1.022086,-2.301161 -2.302669,-2.301161 z m -0.187589,13.564553 c 3.377935,0 6.133041,2.755026 6.133041,6.1329617 0,3.377909 -2.755106,6.1329623 -6.133041,6.1329623 -3.377936,0 -6.133042,-2.7550533 -6.133042,-6.1329623 0,-3.3779357 2.755106,-6.1329617 6.133042,-6.1329617 z m -84.947655,1.163743 h 0.005 c 0.86757,0 1.61581,0.322871 2.09921,0.874368 0.47625,0.543349 0.66251,1.233303 0.66251,1.888781 V 0.11113135 c 0,0.013494 0,0.026961 0,0.040296 V 2.2541505 c 0,0.316177 0.0937,0.5639593 0.21855,0.706411 0.13705,0.1566069 0.28628,0.2614877 0.7493,0.2614877 0.26934,0 0.40772,-0.1357577 0.59849,-0.4428596 0.17938,-0.2895864 0.2614,-0.5845439 0.2614,-0.5958416 0.0572,-0.2538942 0.22781,-0.4815946 0.43921,-0.5958153 0.2114,-0.1143 0.44292,-0.1299368 0.64903,-0.080116 0.20611,0.049953 0.40322,0.1696508 0.53895,0.3679561 0.13547,0.1978025 0.1823,0.4766997 0.11748,0.7281068 v 0.00265 c -0.003,0.011112 -0.1315,0.5546725 -0.4834,1.1213835 -0.36142,0.5818452 -1.06521,1.2908756 -2.12116,1.2908756 -0.86783,0 -1.61608,-0.3236383 -2.09921,-0.8748712 -0.47625,-0.5433484 -0.66251,-1.2333023 -0.66251,-1.8887811 V -8.4309152 c 0,-0.015875 0,-0.030798 0,-0.046514 v -2.0939128 c 0,-0.316283 -0.0942,-0.564515 -0.21908,-0.70694 -0.13679,-0.156157 -0.28681,-0.262017 -0.74983,-0.262017 -0.26934,0 -0.40613,0.135811 -0.59743,0.443389 -0.18362,0.295037 -0.26643,0.607192 -0.26643,0.607192 v -0.01349 c -0.0558,0.25535 -0.22675,0.484188 -0.43894,0.5994402 -0.21194,0.1153054 -0.44239,0.1302014 -0.64903,0.080089 -0.20664,-0.050086 -0.40455,-0.167349 -0.54054,-0.3668972 -0.1352,-0.198491 -0.18071,-0.479134 -0.11457,-0.7307 0,-0.0095 0.127,-0.555334 0.47943,-1.122945 0.36116,-0.581528 1.06733,-1.290875 2.12355,-1.290875 z m 84.947655,0.336418 c -2.567252,0 -4.632855,2.065549 -4.632855,4.6328007 0,2.5672521 2.065603,4.6328013 4.632855,4.6328013 2.567252,0 4.633383,-2.0655492 4.633383,-4.6328013 0,-2.5672517 -2.066131,-4.6328007 -4.633383,-4.6328007 z M -84.92243,5.2270882 c 2.091266,0 3.80312,1.7115895 3.80312,3.8028825 0,2.0912673 -1.711854,3.8028563 -3.80312,3.8028563 -2.091267,0 -3.802857,-1.711589 -3.802857,-3.8028563 0,-2.091293 1.71159,-3.8028825 3.802857,-3.8028825 z m 0,1.5001875 c -1.280584,0 -2.302669,1.022059 -2.302669,2.302695 0,1.2806103 1.022085,2.3026953 2.302669,2.3026953 1.280583,0 2.302933,-1.022085 2.302933,-2.3026953 0,-1.280636 -1.02235,-2.302695 -2.302933,-2.302695 z m 0.81862,12.7325443 c 3.837252,0 6.964363,3.127533 6.964363,6.964944 0,3.837438 -3.127111,6.964442 -6.964363,6.964442 -3.837516,0 -6.964362,-3.127004 -6.964362,-6.964442 0,-3.837411 3.126846,-6.964944 6.964362,-6.964944 z m 0,1.499658 c -3.026833,0 -5.465233,2.438532 -5.465233,5.465286 0,3.026781 2.4384,5.464784 5.465233,5.464784 3.026834,0 5.464969,-2.438003 5.464969,-5.464784 0,-3.026754 -2.438135,-5.465286 -5.464969,-5.465286 z m -78.26534,5.921587 h 0.005 c 0.86757,0 1.6174,0.322871 2.1008,0.874368 0.47598,0.543349 0.66145,1.233805 0.66145,1.88931 v 10.683055 c 0,0.01349 0,0.02696 0,0.0403 v 2.102723 c 0,0.316177 0.0937,0.56396 0.21855,0.706411 0.13705,0.156607 0.28628,0.261488 0.7493,0.261488 0.26935,0 0.40719,-0.135255 0.59796,-0.442357 0.17992,-0.28956 0.26194,-0.585046 0.26194,-0.596344 0.0571,-0.253921 0.22833,-0.481066 0.43973,-0.595313 0.21141,-0.1143 0.44186,-0.130439 0.64797,-0.08062 0.20611,0.04993 0.40375,0.169651 0.53948,0.367956 0.13547,0.197802 0.1823,0.4767 0.11748,0.728107 v 0.0026 c -0.003,0.01111 -0.13097,0.554672 -0.48287,1.121383 -0.36142,0.581845 -1.06574,1.290876 -2.12169,1.290876 -0.86783,0 -1.6166,-0.323639 -2.09973,-0.874871 -0.47599,-0.543349 -0.66199,-1.233303 -0.66199,-1.888782 V 31.785752 c 0,-0.01588 0,-0.0308 0,-0.04651 V 29.64533 c 0,-0.316283 -0.0942,-0.564515 -0.21908,-0.706941 -0.13678,-0.156157 -0.2868,-0.262017 -0.74982,-0.262017 -0.26935,0 -0.40614,0.135811 -0.59743,0.443389 -0.1831,0.295037 -0.26591,0.607192 -0.26591,0.607192 v -0.01349 c -0.0558,0.255376 -0.22675,0.484187 -0.43894,0.59944 -0.2122,0.115305 -0.44239,0.130201 -0.64903,0.08009 -0.20664,-0.05009 -0.40454,-0.167349 -0.54054,-0.366898 -0.1352,-0.19849 -0.18177,-0.479134 -0.11562,-0.730699 0,-0.0095 0.12806,-0.555334 0.48048,-1.122945 0.36116,-0.581528 1.06733,-1.290876 2.12355,-1.290876 z m 32.14688,0 h 0.005 c 0.86757,0 1.61634,0.322871 2.09973,0.874368 0.47625,0.543349 0.66199,1.233805 0.66199,1.88931 v 10.683055 c 0,0.01349 0,0.02696 0,0.0403 v 2.102723 c 0,0.316177 0.0937,0.56396 0.21854,0.706411 0.13706,0.156607 0.28681,0.261488 0.74983,0.261488 0.26935,0 0.4072,-0.135255 0.59796,-0.442357 0.17939,-0.28956 0.26141,-0.585046 0.26141,-0.596344 0.0572,-0.253921 0.22886,-0.481066 0.44027,-0.595313 0.2114,-0.1143 0.44185,-0.130439 0.64796,-0.08062 0.20611,0.04993 0.40323,0.169651 0.53896,0.367956 0.13546,0.197802 0.1823,0.4767 0.11747,0.728107 v 0.0026 c -0.003,0.01111 -0.1315,0.554672 -0.48339,1.121383 -0.36142,0.581845 -1.06468,1.290876 -2.12064,1.290876 -0.86783,0 -1.6166,-0.323639 -2.09973,-0.874871 -0.47625,-0.543349 -0.66252,-1.233303 -0.66252,-1.888782 V 31.785752 c 0,-0.01588 0,-0.0308 0,-0.04651 V 29.64533 c 0,-0.316283 -0.0937,-0.564515 -0.21854,-0.706941 -0.13679,-0.156157 -0.28734,-0.262017 -0.75036,-0.262017 -0.26935,0 -0.4056,0.135811 -0.5969,0.443389 -0.18362,0.295037 -0.2659,0.607192 -0.2659,0.607192 v -0.01349 c -0.0558,0.255376 -0.22781,0.484187 -0.44001,0.59944 -0.21193,0.115305 -0.44132,0.130201 -0.64796,0.08009 -0.20664,-0.05009 -0.40561,-0.167349 -0.5416,-0.366898 -0.13468,-0.19849 -0.18071,-0.479134 -0.11457,-0.730699 0,-0.0095 0.1278,-0.555334 0.48049,-1.122945 0.36115,-0.581528 1.06653,-1.290876 2.12301,-1.290876 z m 69.318185,13.135133 c 2.091267,0 3.802327,1.711564 3.802327,3.802857 0,2.091293 -1.71106,3.802882 -3.802327,3.802882 -2.091531,0 -3.803385,-1.711589 -3.803385,-3.802882 0,-2.091293 1.711854,-3.802857 3.803385,-3.802857 z m 0,1.500161 c -1.280848,0 -2.303197,1.022059 -2.303197,2.302696 0,1.280636 1.022349,2.302695 2.303197,2.302695 1.280584,0 2.30214,-1.022059 2.30214,-2.302695 0,-1.280637 -1.021556,-2.302696 -2.30214,-2.302696 z m -85.391625,8.648039 h 0.005 c 0.86757,0 1.61581,0.322871 2.09921,0.874369 0.47625,0.543348 0.66251,1.233302 0.66251,1.888781 v 10.683584 c 0,0.01349 0,0.02696 0,0.0403 v 2.102723 c 0,0.316177 0.0937,0.563959 0.21855,0.706411 0.13705,0.156607 0.28628,0.261487 0.7493,0.261487 0.26934,0 0.40772,-0.135757 0.59849,-0.442859 0.17938,-0.289587 0.2614,-0.584544 0.2614,-0.595842 0.0572,-0.253894 0.22781,-0.481594 0.43921,-0.595815 0.2114,-0.1143 0.44292,-0.129937 0.64903,-0.08012 0.20611,0.04995 0.40322,0.169651 0.53895,0.367956 0.13547,0.197803 0.1823,0.4767 0.11748,0.728107 v 0.0026 c -0.003,0.01111 -0.1315,0.554672 -0.4834,1.121383 -0.36142,0.581846 -1.06521,1.290876 -2.12116,1.290876 -0.86783,0 -1.61608,-0.323638 -2.09921,-0.874871 -0.47625,-0.543348 -0.66251,-1.233302 -0.66251,-1.888781 V 55.069085 c 0,-0.01588 0,-0.0308 0,-0.04651 v -2.093912 c 0,-0.316283 -0.0942,-0.564515 -0.21908,-0.70694 -0.13679,-0.156157 -0.28681,-0.262017 -0.74983,-0.262017 -0.26934,0 -0.40613,0.13581 -0.59743,0.443389 -0.18362,0.295036 -0.26643,0.607192 -0.26643,0.607192 v -0.01349 c -0.0558,0.255349 -0.22675,0.484188 -0.43894,0.59944 -0.21194,0.115305 -0.44239,0.130202 -0.64903,0.08009 -0.20664,-0.05009 -0.40455,-0.167349 -0.54054,-0.366897 -0.1352,-0.198491 -0.18071,-0.479134 -0.11457,-0.7307 0,-0.0095 0.127,-0.555334 0.47943,-1.122945 0.36116,-0.581527 1.06733,-1.290875 2.12355,-1.290875 z m 85.204036,4.918578 c 3.377671,0 6.132512,2.754524 6.132512,6.132433 0,3.377935 -2.754841,6.132962 -6.132512,6.132962 -3.377936,0 -6.130925,-2.755027 -6.130925,-6.132962 0,-3.377909 2.752989,-6.132433 6.130925,-6.132433 z m 0,1.499658 c -2.567517,0 -4.631267,2.065523 -4.631267,4.632775 0,2.567252 2.06375,4.632801 4.631267,4.632801 2.567252,0 4.632325,-2.065549 4.632325,-4.632801 0,-2.567252 -2.065073,-4.632775 -4.632325,-4.632775 z m -23.572788,18.224712 c 2.091267,0 3.803386,1.711589 3.803386,3.802882 0,2.091267 -1.712119,3.802354 -3.803386,3.802354 -2.091266,0 -3.802327,-1.711087 -3.802327,-3.802354 0,-2.091293 1.711061,-3.802882 3.802327,-3.802882 z m 0,1.500161 c -1.280583,0 -2.302139,1.022085 -2.302139,2.302721 0,1.28061 1.021556,2.302696 2.302139,2.302696 1.280584,0 2.302669,-1.022086 2.302669,-2.302696 0,-1.280636 -1.022085,-2.302721 -2.302669,-2.302721 z"
       id="path1716" />
    <path
       inkscape:connector-curvature="0"
       style="opacity:1;fill:#ac9393;fill-opacity:1;stroke:none;stroke-width:1.9925549;stroke-linecap:round;stroke-linejoin:round;stroke-miterlimit:4;stroke-dasharray:none;stroke-dashoffset:0;stroke-opacity:1"
       d="m -111.56042,-65.500365 c -0.71543,0 -1.29143,0.575567 -1.29143,1.290876 v 160.32251 c 0,0.7153 0.576,1.29141 1.29143,1.29141 h 5.35835 c 0.71516,0 1.29143,-0.57611 1.29143,-1.29141 v -160.32251 c 0,-0.715309 -0.57627,-1.290876 -1.29143,-1.290876 z m -80.05511,0.0021 c -0.71527,0 -1.2914,0.576117 -1.2914,1.291394 V 96.108421 c 0,0.71527 0.57613,1.29087 1.2914,1.29087 h 14.12679 c 0.71528,0 1.29138,-0.5756 1.29138,-1.29087 V -64.206905 c 0,-0.715277 -0.5761,-1.291394 -1.29138,-1.291394 z m 151.341537,0 c -0.715169,0 -1.291167,0.576117 -1.291167,1.291394 V 96.108421 c 0,0.71527 0.575998,1.29087 1.291167,1.29087 h 14.126898 c 0.715168,0 1.291431,-0.5756 1.291431,-1.29087 V -64.206905 c 0,-0.715277 -0.576263,-1.291394 -1.291431,-1.291394 z"
       id="rect1714" />
    <path
       inkscape:connector-curvature="0"
       style="color:#000000;font-style:normal;font-variant:normal;font-weight:normal;font-stretch:normal;font-size:medium;line-height:normal;font-family:sans-serif;font-variant-ligatures:normal;font-variant-position:normal;font-variant-caps:normal;font-variant-numeric:normal;font-variant-alternates:normal;font-feature-settings:normal;text-indent:0;text-align:start;text-decoration:none;text-decoration-line:none;text-decoration-style:solid;text-decoration-color:#000000;letter-spacing:normal;word-spacing:normal;text-transform:none;writing-mode:lr-tb;direction:ltr;text-orientation:mixed;dominant-baseline:auto;baseline-shift:baseline;text-anchor:start;white-space:normal;shape-padding:0;clip-rule:nonzero;display:inline;overflow:visible;visibility:visible;opacity:1;isolation:auto;mix-blend-mode:normal;color-interpolation:sRGB;color-interpolation-filters:linearRGB;solid-color:#000000;solid-opacity:1;vector-effect:none;fill:#000000;fill-opacity:1;fill-rule:nonzero;stroke:none;stroke-width:1.9925549;stroke-linecap:round;stroke-linejoin:round;stroke-miterlimit:4;stroke-dasharray:none;stroke-dashoffset:0;stroke-opacity:1;color-rendering:auto;image-rendering:auto;shape-rendering:auto;text-rendering:auto;enable-background:accumulate"
       d="m -191.61502,-66.497204 c -1.25199,0 -2.29082,1.038836 -2.29082,2.290815 v 160.31476 c 0,1.25198 1.03883,2.29081 2.29082,2.29081 h 7.06262 7.06417 65.88733 c 0.0132,2.7e-4 0.0267,0.003 0.0405,0.003 h 5.3594 c 0.0132,0 0.0267,-0.003 0.0402,-0.003 h 65.887338 7.062787 7.064111 c 1.252008,0 2.291292,-1.03883 2.291292,-2.29081 v -160.31476 c 0,-1.251979 -1.039284,-2.290815 -2.291292,-2.290815 h -7.064111 -7.062787 -65.927548 -5.3594 -65.92782 -7.06417 z m 0,1.999877 h 7.06262 7.06417 c 0.17859,0 0.29093,0.112358 0.29093,0.290938 v 160.31476 c 0,0.17859 -0.11234,0.29093 -0.29093,0.29093 h -7.06417 -7.06262 c -0.1786,0 -0.29094,-0.11234 -0.29094,-0.29093 v -160.31476 c 0,-0.17858 0.11234,-0.290938 0.29094,-0.290938 z m 16.39641,0 h 61.39151 c -0.0132,0.09432 -0.0212,0.190034 -0.0212,0.287322 V 96.114061 c 0,0.0967 0.008,0.19147 0.0212,0.28524 h -61.39098 c 0.0124,-0.0956 0.0212,-0.19227 0.0212,-0.29093 v -160.31476 c 0,-0.09867 -0.009,-0.195318 -0.0217,-0.290938 z m 63.61216,0 h 5.45121 c 0.15213,0.01908 0.24923,0.123677 0.24923,0.287322 V 96.114061 c 0,0.16327 -0.0968,0.26611 -0.24818,0.28524 h -5.45332 c -0.15134,-0.0191 -0.24792,-0.12197 -0.24792,-0.28524 V -64.210005 c 0,-0.163576 0.0971,-0.268187 0.24898,-0.287322 z m 7.67185,0 h 61.39154 c -0.01323,0.09562 -0.02117,0.19227 -0.02117,0.290938 v 160.31476 c 0,0.0987 0.0079,0.19531 0.02117,0.29093 h -61.39101 c 0.0132,-0.0938 0.0212,-0.18854 0.0212,-0.28524 V -64.210005 c 0,-0.09731 -0.008,-0.192982 -0.0212,-0.287322 z m 63.661136,0 h 7.062787 7.064111 c 0.178594,0 0.291571,0.112358 0.291571,0.290938 v 160.31476 c 0,0.17859 -0.112977,0.29093 -0.291571,0.29093 h -7.064111 -7.062787 c -0.178594,0 -0.290777,-0.11234 -0.290777,-0.29093 v -160.31476 c 0,-0.17858 0.112183,-0.290938 0.290777,-0.290938 z"
       id="rect2057" />
  </g>
</svg>
