<?xml version="1.0" encoding="UTF-8" standalone="no"?>
<!-- Created with Inkscape (http://www.inkscape.org/) -->

<svg
   xmlns:dc="http://purl.org/dc/elements/1.1/"
   xmlns:cc="http://creativecommons.org/ns#"
   xmlns:rdf="http://www.w3.org/1999/02/22-rdf-syntax-ns#"
   xmlns:svg="http://www.w3.org/2000/svg"
   xmlns="http://www.w3.org/2000/svg"
   xmlns:sodipodi="http://sodipodi.sourceforge.net/DTD/sodipodi-0.dtd"
   xmlns:inkscape="http://www.inkscape.org/namespaces/inkscape"
   width="162.89951mm"
   height="162.89677mm"
   viewBox="0 0 162.8995 162.89677"
   version="1.1"
   id="svg2206"
   inkscape:version="0.92.4 (5da689c313, 2019-01-14)"
   sodipodi:docname="floculadores.svg">
  <defs
     id="defs2200" />
  <sodipodi:namedview
     id="base"
     pagecolor="#ffffff"
     bordercolor="#666666"
     borderopacity="1.0"
     inkscape:pageopacity="0.0"
     inkscape:pageshadow="2"
     inkscape:zoom="0.49497475"
     inkscape:cx="227.27989"
     inkscape:cy="395.89067"
     inkscape:document-units="mm"
     inkscape:current-layer="layer1"
     showgrid="false"
     inkscape:window-width="1366"
     inkscape:window-height="705"
     inkscape:window-x="-8"
     inkscape:window-y="-8"
     inkscape:window-maximized="1" />
  <metadata
     id="metadata2203">
    <rdf:RDF>
      <cc:Work
         rdf:about="">
        <dc:format>image/svg+xml</dc:format>
        <dc:type
           rdf:resource="http://purl.org/dc/dcmitype/StillImage" />
        <dc:title></dc:title>
      </cc:Work>
    </rdf:RDF>
  </metadata>
  <g
     inkscape:label="Capa 1"
     inkscape:groupmode="layer"
     id="layer1"
     transform="translate(159.2788,-31.33234)">
    <g
       transform="translate(2477.3155,-154.3825)"
       id="g2769">
      <path
         inkscape:connector-curvature="0"
         id="rect1487"
         d="m -2618.7476,202.42294 c -0.6299,0 -1.1369,0.50705 -1.1369,1.13689 v 55.74852 h 57.8858 v -56.88541 z m 72.457,0 v 56.88541 h 55.886 v -55.74852 c 0,-0.62984 -0.507,-1.13689 -1.1369,-1.13689 z m -62.0846,7.49205 v 0 c 0.8675,0 1.6164,0.32337 2.0996,0.87487 0.4762,0.54335 0.662,1.2333 0.662,1.88878 v 10.68358 c 0,0.0134 3e-4,0.0264 0,0.0398 v 2.10272 c 0,0.31618 0.094,0.56446 0.2186,0.70694 0.1371,0.1565 0.2867,0.26146 0.7498,0.26146 0.2694,0 0.4071,-0.13576 0.5979,-0.44286 0.1794,-0.28959 0.2615,-0.58452 0.2615,-0.59584 0.057,-0.25382 0.2283,-0.4816 0.4397,-0.59582 0.2116,-0.1143 0.4423,-0.12999 0.6486,-0.0801 0.206,0.0499 0.4033,0.1691 0.539,0.3674 0.1353,0.19781 0.1823,0.47673 0.1173,0.72814 v 0.002 c 0,0.011 -0.1308,0.55467 -0.4827,1.12139 -0.3615,0.58181 -1.0652,1.29087 -2.1213,1.29087 -0.8677,0 -1.6167,-0.32364 -2.0996,-0.8749 -0.4762,-0.54332 -0.662,-1.23327 -0.662,-1.88875 v -10.68565 c 0,-0.0159 -6e-4,-0.0308 0,-0.0465 v -2.09394 c 0,-0.31626 -0.094,-0.56449 -0.2191,-0.70694 -0.1368,-0.15616 -0.2868,-0.26199 -0.7498,-0.26199 -0.2694,0 -0.4063,0.13581 -0.5974,0.44339 -0.1832,0.29501 -0.2661,0.60719 -0.2661,0.60719 v -0.0134 c -0.056,0.25537 -0.2272,0.48421 -0.4393,0.59946 -0.2121,0.1152 -0.4418,0.13018 -0.6485,0.0801 -0.2068,-0.0501 -0.4052,-0.16732 -0.5411,-0.36689 -0.1352,-0.19849 -0.1812,-0.47914 -0.1152,-0.73073 0,-0.009 0.128,-0.55533 0.4806,-1.12292 0.3612,-0.58155 1.0666,-1.29087 2.1228,-1.29087 z m 32.1469,0 v 0 c 0.8675,0 1.6165,0.32337 2.0996,0.87487 0.4762,0.54335 0.662,1.2333 0.662,1.88878 v 10.68358 c 0,0.0134 4e-4,0.0264 0,0.0398 v 2.10272 c 0,0.31618 0.094,0.56446 0.2186,0.70694 0.137,0.1565 0.2867,0.26146 0.7498,0.26146 0.2694,0 0.4072,-0.13576 0.5979,-0.44286 0.1795,-0.28959 0.2615,-0.58452 0.2615,-0.59584 0.057,-0.25382 0.2283,-0.4816 0.4397,-0.59582 0.2115,-0.1143 0.4423,-0.12999 0.6486,-0.0801 0.206,0.0499 0.4032,0.1691 0.5389,0.3674 0.1353,0.19781 0.1823,0.47673 0.1173,0.72814 v 0.002 c 0,0.011 -0.1308,0.55467 -0.4826,1.12139 -0.3616,0.58181 -1.0652,1.29087 -2.1213,1.29087 -0.8677,0 -1.6166,-0.32364 -2.0996,-0.8749 -0.4762,-0.54332 -0.662,-1.23327 -0.662,-1.88875 v -10.68565 c 0,-0.0159 -5e-4,-0.0308 0,-0.0465 v -2.09394 c 0,-0.31626 -0.094,-0.56449 -0.2191,-0.70694 -0.1368,-0.15616 -0.2869,-0.26199 -0.7499,-0.26199 -0.2694,0 -0.4062,0.13581 -0.5973,0.44339 -0.1831,0.29501 -0.2662,0.60719 -0.2662,0.60719 v -0.0134 c -0.056,0.25537 -0.2272,0.48421 -0.4392,0.59946 -0.2121,0.1152 -0.4418,0.13018 -0.6486,0.0801 -0.2068,-0.0501 -0.4052,-0.16732 -0.541,-0.36689 -0.1353,-0.19849 -0.1812,-0.47914 -0.1152,-0.73073 0,-0.009 0.1279,-0.55533 0.4806,-1.12292 0.3611,-0.58155 1.0666,-1.29087 2.1228,-1.29087 z m 41.0141,0 v 0 c 0.8675,0 1.6164,0.32337 2.0996,0.87487 0.4762,0.54335 0.662,1.2333 0.662,1.88878 v 10.68358 c 0,0.0134 3e-4,0.0264 0,0.0398 v 2.10272 c 0,0.31618 0.094,0.56446 0.2186,0.70694 0.1371,0.15653 0.2867,0.26146 0.7498,0.26146 0.2694,0 0.4071,-0.13576 0.5979,-0.44286 0.1794,-0.28959 0.2615,-0.58452 0.2615,-0.59584 0.057,-0.25384 0.2284,-0.4816 0.4398,-0.59582 0.2114,-0.1143 0.4422,-0.12999 0.6485,-0.0801 0.206,0.0499 0.4033,0.1691 0.539,0.3674 0.1353,0.19781 0.1823,0.47673 0.1173,0.72814 v 0.002 c 0,0.011 -0.1308,0.55467 -0.4827,1.12139 -0.3615,0.58181 -1.0652,1.29087 -2.1213,1.29087 -0.8677,0 -1.6167,-0.32364 -2.0996,-0.8749 -0.4762,-0.54332 -0.662,-1.23327 -0.662,-1.88875 v -10.68565 c 0,-0.0159 -6e-4,-0.0308 0,-0.0465 v -2.09394 c 0,-0.31626 -0.094,-0.56449 -0.2191,-0.70694 -0.1368,-0.15616 -0.2868,-0.26199 -0.7498,-0.26199 -0.2694,0 -0.4063,0.13581 -0.5974,0.44339 -0.1832,0.29501 -0.2661,0.60719 -0.2661,0.60719 v -0.0134 c -0.056,0.25537 -0.2272,0.48421 -0.4393,0.59946 -0.2121,0.11523 -0.4418,0.13018 -0.6485,0.0801 -0.2068,-0.0501 -0.4052,-0.16732 -0.5411,-0.36689 -0.1352,-0.19849 -0.1812,-0.47914 -0.1152,-0.73073 0,-0.009 0.128,-0.55533 0.4806,-1.12292 0.3612,-0.58155 1.0666,-1.29087 2.1229,-1.29087 z m 32.1468,0 v 0 c 0.8675,0 1.6165,0.32337 2.0996,0.87487 0.4762,0.54335 0.662,1.2333 0.662,1.88878 v 10.68358 c 0,0.0134 4e-4,0.0264 0,0.0398 v 2.10272 c 0,0.31618 0.094,0.56446 0.2185,0.70694 0.1372,0.15653 0.2868,0.26146 0.7499,0.26146 0.2694,0 0.4072,-0.13576 0.5979,-0.44286 0.1795,-0.28959 0.2615,-0.58452 0.2615,-0.59584 0.057,-0.25384 0.2283,-0.4816 0.4397,-0.59582 0.2115,-0.1143 0.4424,-0.12999 0.6486,-0.0801 0.2061,0.0499 0.4033,0.1691 0.5389,0.3674 0.1353,0.19781 0.1824,0.47673 0.1174,0.72814 v 0.002 c 0,0.011 -0.1309,0.55467 -0.4827,1.12139 -0.3616,0.58181 -1.0652,1.29087 -2.1213,1.29087 -0.8677,0 -1.6166,-0.32364 -2.0996,-0.8749 -0.4762,-0.54332 -0.662,-1.23327 -0.662,-1.88875 v -10.68565 c 0,-0.0159 -5e-4,-0.0308 0,-0.0465 v -2.09394 c 0,-0.31626 -0.094,-0.56449 -0.2191,-0.70694 -0.1368,-0.15616 -0.2868,-0.26199 -0.7498,-0.26199 -0.2694,0 -0.4063,0.13581 -0.5974,0.44339 -0.1831,0.29501 -0.2662,0.60719 -0.2662,0.60719 v -0.0134 c -0.056,0.25537 -0.2272,0.48421 -0.4392,0.59946 -0.2121,0.11523 -0.4419,0.13018 -0.6485,0.0801 -0.2068,-0.0501 -0.4053,-0.16732 -0.5411,-0.36689 -0.1353,-0.19849 -0.1812,-0.47914 -0.1152,-0.73073 0,-0.009 0.128,-0.55533 0.4805,-1.12292 0.3613,-0.58155 1.0667,-1.29087 2.1229,-1.29087 z m -89.2343,23.28333 v 0 c 0.8675,0 1.6165,0.3234 2.0996,0.87487 0.4762,0.54335 0.662,1.2333 0.662,1.88878 v 10.68359 c 0,0.0134 4e-4,0.0264 0,0.0398 v 2.10322 c 0,0.31618 0.094,0.56399 0.2186,0.70644 0.1371,0.15653 0.2867,0.26146 0.7498,0.26146 0.2694,0 0.4072,-0.13575 0.5979,-0.44286 0.1795,-0.28958 0.2615,-0.58451 0.2615,-0.59584 0.057,-0.25384 0.2284,-0.48159 0.4398,-0.59581 0.2116,-0.1143 0.4423,-0.12999 0.6485,-0.0801 0.2061,0.05 0.4033,0.16962 0.539,0.36793 0.1353,0.1978 0.1823,0.47672 0.1173,0.7281 v 0.002 c 0,0.011 -0.1308,0.55468 -0.4827,1.12139 -0.3615,0.58182 -1.0652,1.29087 -2.1213,1.29087 -0.8677,0 -1.6166,-0.32363 -2.0996,-0.87489 -0.4762,-0.5433 -0.662,-1.23331 -0.662,-1.88876 v -10.68565 c 0,-0.0159 -5e-4,-0.0308 0,-0.0465 v -2.09394 c 0,-0.31626 -0.094,-0.56449 -0.2191,-0.70694 -0.1368,-0.15613 -0.2868,-0.26199 -0.7498,-0.26199 -0.2694,0 -0.4063,0.13581 -0.5974,0.44339 -0.1831,0.29501 -0.2661,0.60719 -0.2661,0.60719 v -0.0134 c -0.056,0.25538 -0.2272,0.48421 -0.4393,0.59947 -0.212,0.1152 -0.4418,0.13017 -0.6485,0.0801 -0.2068,-0.0501 -0.4052,-0.16735 -0.541,-0.3669 -0.1352,-0.19849 -0.1813,-0.47916 -0.1153,-0.73073 0,-0.009 0.128,-0.55533 0.4806,-1.12292 0.3612,-0.58155 1.0668,-1.29087 2.1229,-1.29087 z m 73.1609,0 v 0 c 0.8675,0 1.6164,0.3234 2.0996,0.87487 0.4762,0.54335 0.662,1.2333 0.662,1.88878 v 10.68359 c 0,0.0134 4e-4,0.0264 0,0.0398 v 2.10322 c 0,0.31618 0.094,0.56399 0.2186,0.70644 0.1371,0.15656 0.2867,0.26146 0.7498,0.26146 0.2694,0 0.4072,-0.13575 0.5979,-0.44286 0.1795,-0.28958 0.2615,-0.58451 0.2615,-0.59584 0.057,-0.25387 0.2284,-0.48159 0.4398,-0.59581 0.2116,-0.1143 0.4423,-0.12999 0.6485,-0.0801 0.2061,0.05 0.4033,0.16962 0.539,0.36793 0.1353,0.1978 0.1823,0.47672 0.1173,0.7281 v 0.002 c 0,0.011 -0.1307,0.55468 -0.4826,1.12139 -0.3615,0.58182 -1.0653,1.29087 -2.1214,1.29087 -0.8677,0 -1.6166,-0.32363 -2.0996,-0.87489 -0.4762,-0.5433 -0.662,-1.23331 -0.662,-1.88876 v -10.68565 c 0,-0.0159 -6e-4,-0.0308 0,-0.0465 v -2.09394 c 0,-0.31626 -0.094,-0.56449 -0.2191,-0.70694 -0.1368,-0.15613 -0.2868,-0.26199 -0.7498,-0.26199 -0.2694,0 -0.4062,0.13581 -0.5974,0.44339 -0.183,0.29501 -0.2661,0.60719 -0.2661,0.60719 v -0.0134 c -0.056,0.25538 -0.2271,0.48421 -0.4392,0.59947 -0.2122,0.11522 -0.4419,0.13017 -0.6486,0.0801 -0.2068,-0.0501 -0.4051,-0.16735 -0.541,-0.3669 -0.1352,-0.19849 -0.1813,-0.47916 -0.1153,-0.73073 0,-0.009 0.128,-0.55533 0.4806,-1.12292 0.3612,-0.58155 1.0668,-1.29087 2.1229,-1.29087 z m -100.7437,41.81811 v 55.74906 c 0,0.62984 0.507,1.13688 1.1369,1.13688 h 56.7489 v -56.88594 z m 73.5939,0 v 56.88594 h 54.7491 c 0.6299,0 1.1369,-0.50704 1.1369,-1.13688 v -55.74906 z m -62.0846,7.62487 v 0 c 0.8675,0 1.6164,0.32337 2.0996,0.87487 0.4762,0.54335 0.662,1.2333 0.662,1.88878 v 10.68358 c 0,0.0134 3e-4,0.0264 0,0.0398 v 2.10272 c 0,0.31618 0.094,0.56446 0.2186,0.70691 0.1371,0.15661 0.2867,0.26149 0.7498,0.26149 0.2694,0 0.4071,-0.13576 0.5979,-0.44286 0.1794,-0.28959 0.2615,-0.58452 0.2615,-0.59584 0.057,-0.25392 0.2283,-0.48159 0.4397,-0.59582 0.2116,-0.1143 0.4423,-0.12999 0.6486,-0.0801 0.206,0.0499 0.4033,0.16909 0.539,0.3674 0.1353,0.1978 0.1823,0.47672 0.1173,0.72813 v 0.002 c 0,0.011 -0.1308,0.55468 -0.4827,1.12139 -0.3615,0.58181 -1.0652,1.29087 -2.1213,1.29087 -0.8677,0 -1.6167,-0.32364 -2.0996,-0.8749 -0.4762,-0.54332 -0.662,-1.23327 -0.662,-1.88875 V 287.5453 c 0,-0.0159 -6e-4,-0.0308 0,-0.0465 v -2.09394 c 0,-0.31626 -0.094,-0.56452 -0.2191,-0.70694 -0.1368,-0.15616 -0.2868,-0.26199 -0.7498,-0.26199 -0.2694,0 -0.4063,0.13581 -0.5974,0.44339 -0.1832,0.29501 -0.2661,0.60719 -0.2661,0.60719 v -0.0134 c -0.056,0.25537 -0.2272,0.48421 -0.4393,0.59944 -0.2121,0.1153 -0.4418,0.1302 -0.6485,0.0801 -0.2068,-0.0501 -0.4052,-0.16732 -0.5411,-0.36689 -0.1352,-0.19849 -0.1812,-0.47914 -0.1152,-0.73073 0,-0.009 0.128,-0.55533 0.4806,-1.12292 0.3612,-0.58155 1.0666,-1.29087 2.1228,-1.29087 z m 32.1469,0 v 0 c 0.8675,0 1.6165,0.32337 2.0996,0.87487 0.4762,0.54335 0.662,1.2333 0.662,1.88878 v 10.68358 c 0,0.0134 4e-4,0.0264 0,0.0398 v 2.10272 c 0,0.31618 0.094,0.56446 0.2186,0.70691 0.137,0.15661 0.2867,0.26149 0.7498,0.26149 0.2694,0 0.4072,-0.13576 0.5979,-0.44286 0.1795,-0.28959 0.2615,-0.58452 0.2615,-0.59584 0.057,-0.25392 0.2283,-0.48159 0.4397,-0.59582 0.2115,-0.1143 0.4423,-0.12999 0.6486,-0.0801 0.206,0.0499 0.4032,0.16909 0.5389,0.3674 0.1353,0.1978 0.1823,0.47672 0.1173,0.72813 v 0.002 c 0,0.011 -0.1308,0.55468 -0.4826,1.12139 -0.3616,0.58181 -1.0652,1.29087 -2.1213,1.29087 -0.8677,0 -1.6166,-0.32364 -2.0996,-0.8749 -0.4762,-0.54332 -0.662,-1.23327 -0.662,-1.88875 V 287.5453 c 0,-0.0159 -5e-4,-0.0308 0,-0.0465 v -2.09394 c 0,-0.31626 -0.094,-0.56452 -0.2191,-0.70694 -0.1368,-0.15616 -0.2869,-0.26199 -0.7499,-0.26199 -0.2694,0 -0.4062,0.13581 -0.5973,0.44339 -0.1831,0.29501 -0.2662,0.60719 -0.2662,0.60719 v -0.0134 c -0.056,0.25537 -0.2272,0.48421 -0.4392,0.59944 -0.2121,0.1153 -0.4418,0.1302 -0.6486,0.0801 -0.2068,-0.0501 -0.4052,-0.16732 -0.541,-0.36689 -0.1353,-0.19849 -0.1812,-0.47914 -0.1152,-0.73073 0,-0.009 0.1279,-0.55533 0.4806,-1.12292 0.3611,-0.58155 1.0666,-1.29087 2.1228,-1.29087 z m 41.0141,0 v 0 c 0.8675,0 1.6164,0.32337 2.0996,0.87487 0.4762,0.54335 0.662,1.2333 0.662,1.88878 v 10.68358 c 0,0.0134 3e-4,0.0264 0,0.0398 v 2.10272 c 0,0.31618 0.094,0.56446 0.2186,0.70691 0.1371,0.15661 0.2867,0.26149 0.7498,0.26149 0.2694,0 0.4071,-0.13576 0.5979,-0.44286 0.1794,-0.28959 0.2615,-0.58452 0.2615,-0.59584 0.057,-0.25392 0.2284,-0.48159 0.4398,-0.59582 0.2114,-0.1143 0.4422,-0.12999 0.6485,-0.0801 0.206,0.0499 0.4033,0.16909 0.539,0.3674 0.1353,0.1978 0.1823,0.47672 0.1173,0.72813 v 0.002 c 0,0.011 -0.1308,0.55468 -0.4827,1.12139 -0.3615,0.58181 -1.0652,1.29087 -2.1213,1.29087 -0.8677,0 -1.6167,-0.32364 -2.0996,-0.8749 -0.4762,-0.54332 -0.662,-1.23327 -0.662,-1.88875 V 287.5453 c 0,-0.0159 -6e-4,-0.0308 0,-0.0465 v -2.09394 c 0,-0.31626 -0.094,-0.56452 -0.2191,-0.70694 -0.1368,-0.15616 -0.2868,-0.26199 -0.7498,-0.26199 -0.2694,0 -0.4063,0.13581 -0.5974,0.44339 -0.1832,0.29501 -0.2661,0.60719 -0.2661,0.60719 v -0.0134 c -0.056,0.25537 -0.2272,0.48421 -0.4393,0.59944 -0.2121,0.1153 -0.4418,0.1302 -0.6485,0.0801 -0.2068,-0.0501 -0.4052,-0.16732 -0.5411,-0.36689 -0.1352,-0.19849 -0.1812,-0.47914 -0.1152,-0.73073 0,-0.009 0.128,-0.55533 0.4806,-1.12292 0.3612,-0.58155 1.0666,-1.29087 2.1229,-1.29087 z m 32.1468,0 v 0 c 0.8675,0 1.6165,0.32337 2.0996,0.87487 0.4762,0.54335 0.662,1.2333 0.662,1.88878 v 10.68358 c 0,0.0134 4e-4,0.0264 0,0.0398 v 2.10272 c 0,0.31618 0.094,0.56446 0.2185,0.70691 0.1372,0.15661 0.2868,0.26149 0.7499,0.26149 0.2694,0 0.4072,-0.13576 0.5979,-0.44286 0.1795,-0.28959 0.2615,-0.58452 0.2615,-0.59584 0.057,-0.25392 0.2283,-0.48159 0.4397,-0.59582 0.2115,-0.1143 0.4424,-0.12999 0.6486,-0.0801 0.2061,0.0499 0.4033,0.16909 0.5389,0.3674 0.1353,0.1978 0.1824,0.47672 0.1174,0.72813 v 0.002 c 0,0.011 -0.1309,0.55468 -0.4827,1.12139 -0.3616,0.58181 -1.0652,1.29087 -2.1213,1.29087 -0.8677,0 -1.6166,-0.32364 -2.0996,-0.8749 -0.4762,-0.54332 -0.662,-1.23327 -0.662,-1.88875 V 287.5453 c 0,-0.0159 -5e-4,-0.0308 0,-0.0465 v -2.09394 c 0,-0.31626 -0.094,-0.56452 -0.2191,-0.70694 -0.1368,-0.15616 -0.2868,-0.26199 -0.7498,-0.26199 -0.2694,0 -0.4063,0.13581 -0.5974,0.44339 -0.1831,0.29501 -0.2662,0.60719 -0.2662,0.60719 v -0.0134 c -0.056,0.25537 -0.2272,0.48421 -0.4392,0.59944 -0.2121,0.1153 -0.4419,0.1302 -0.6485,0.0801 -0.2068,-0.0501 -0.4053,-0.16732 -0.5411,-0.36689 -0.1353,-0.19849 -0.1812,-0.47914 -0.1152,-0.73073 0,-0.009 0.128,-0.55533 0.4805,-1.12292 0.3613,-0.58155 1.0667,-1.29087 2.1229,-1.29087 z m -89.2343,23.28333 v 0 c 0.8675,0 1.6165,0.3234 2.0996,0.87487 0.4762,0.54335 0.662,1.2333 0.662,1.88878 v 10.68359 c 0,0.0134 4e-4,0.0264 0,0.0398 v 2.10272 c 0,0.31615 0.094,0.56449 0.2186,0.70692 0.1371,0.15663 0.2867,0.26148 0.7498,0.26148 0.2694,0 0.4072,-0.13575 0.5979,-0.44286 0.1795,-0.28958 0.2615,-0.58451 0.2615,-0.59584 0.057,-0.25392 0.2284,-0.48159 0.4398,-0.59581 0.2116,-0.1143 0.4423,-0.12999 0.6485,-0.0801 0.2061,0.05 0.4033,0.16909 0.539,0.3674 0.1353,0.1978 0.1823,0.47672 0.1173,0.72813 v 0.002 c 0,0.011 -0.1308,0.55467 -0.4827,1.12138 -0.3615,0.58182 -1.0652,1.29087 -2.1213,1.29087 -0.8677,0 -1.6166,-0.32363 -2.0996,-0.87489 -0.4762,-0.54332 -0.662,-1.23331 -0.662,-1.88876 v -10.68567 c 0,-0.0159 -5e-4,-0.0308 0,-0.0465 v -2.09394 c 0,-0.31625 -0.094,-0.56451 -0.2191,-0.70694 -0.1368,-0.15613 -0.2868,-0.26199 -0.7498,-0.26199 -0.2694,0 -0.4063,0.13581 -0.5974,0.44339 -0.1831,0.29501 -0.2661,0.60719 -0.2661,0.60719 v -0.0134 c -0.056,0.25538 -0.2272,0.48422 -0.4393,0.59944 -0.212,0.11531 -0.4418,0.1302 -0.6485,0.0801 -0.2068,-0.0501 -0.4052,-0.16735 -0.541,-0.3669 -0.1352,-0.19849 -0.1813,-0.47916 -0.1153,-0.73073 0,-0.009 0.128,-0.55533 0.4806,-1.12291 0.3612,-0.58156 1.0668,-1.29088 2.1229,-1.29088 z m 73.1609,0 v 0 c 0.8675,0 1.6164,0.3234 2.0996,0.87487 0.4762,0.54335 0.662,1.2333 0.662,1.88878 v 10.68359 c 0,0.0134 4e-4,0.0264 0,0.0398 v 2.10272 c 0,0.31615 0.094,0.56449 0.2186,0.70692 0.1371,0.15663 0.2867,0.26148 0.7498,0.26148 0.2694,0 0.4072,-0.13575 0.5979,-0.44286 0.1795,-0.28958 0.2615,-0.58451 0.2615,-0.59584 0.057,-0.25392 0.2284,-0.48159 0.4398,-0.59581 0.2116,-0.1143 0.4423,-0.12999 0.6485,-0.0801 0.2061,0.05 0.4033,0.16909 0.539,0.3674 0.1353,0.1978 0.1823,0.47672 0.1173,0.72813 v 0.002 c 0,0.011 -0.1307,0.55467 -0.4826,1.12138 -0.3615,0.58182 -1.0653,1.29087 -2.1214,1.29087 -0.8677,0 -1.6166,-0.32363 -2.0996,-0.87489 -0.4762,-0.54332 -0.662,-1.23331 -0.662,-1.88876 v -10.68567 c 0,-0.0159 -6e-4,-0.0308 0,-0.0465 v -2.09394 c 0,-0.31625 -0.094,-0.56451 -0.2191,-0.70694 -0.1368,-0.15613 -0.2868,-0.26199 -0.7498,-0.26199 -0.2694,0 -0.4062,0.13581 -0.5974,0.44339 -0.183,0.29501 -0.2661,0.60719 -0.2661,0.60719 v -0.0134 c -0.056,0.25538 -0.2271,0.48422 -0.4392,0.59944 -0.2122,0.11531 -0.4419,0.1302 -0.6486,0.0801 -0.2068,-0.0501 -0.4051,-0.16735 -0.541,-0.3669 -0.1352,-0.19849 -0.1813,-0.47916 -0.1153,-0.73073 0,-0.009 0.128,-0.55533 0.4806,-1.12291 0.3612,-0.58156 1.0668,-1.29088 2.1229,-1.29088 z"
         style="opacity:1;fill:#0088aa;fill-opacity:1;stroke:none;stroke-width:2;stroke-linecap:round;stroke-linejoin:round;stroke-miterlimit:4;stroke-dasharray:none;stroke-dashoffset:0;stroke-opacity:1" />
      <path
         inkscape:connector-curvature="0"
         id="rect1465"
         d="m -2633.8465,186.71407 c -0.908,0 -1.6499,0.68668 -1.7374,1.57096 -0.01,0.0577 -0.01,0.11595 -0.01,0.17518 0,0.001 0,0.002 0,0.004 v 12.2127 60.3777 12.21631 60.37771 12.21269 0.004 c 2e-4,0.0592 0,0.11803 0.01,0.17569 0.088,0.88402 0.8296,1.57046 1.7374,1.57046 h 73.5939 12.2163 71.5941 c 0.9082,0 1.6496,-0.68649 1.7369,-1.57097 0.01,-0.0577 0.01,-0.11599 0.01,-0.17518 v -12.21631 -60.37771 -12.21631 -60.3777 -12.2127 c 0,-10e-4 0,-0.002 0,-0.004 0,-0.0592 0,-0.1175 -0.01,-0.17518 -0.088,-0.88428 -0.8289,-1.57096 -1.7369,-1.57096 z m 13.9619,15.7086 h 57.8859 v 56.88592 h -57.8859 z m 73.594,0 h 55.886 v 56.88592 h -55.886 z m -73.594,72.59402 h 57.8859 v 56.88592 h -57.8859 z m 73.594,0 h 55.886 v 56.88592 h -55.886 z"
         style="opacity:1;fill:#ac9393;fill-opacity:1;stroke:none;stroke-width:2;stroke-linecap:butt;stroke-linejoin:miter;stroke-miterlimit:4;stroke-dasharray:none;stroke-dashoffset:0;stroke-opacity:1" />
      <path
         inkscape:connector-curvature="0"
         id="path2107"
         d="m -2633.8457,185.71484 c -1.4081,0 -2.5839,1.08361 -2.7266,2.46289 -0.015,0.12319 -0.021,0.23468 -0.022,0.28321 v 0.004 12.21289 60.37696 12.21679 60.37696 12.21289 0.006 0.002 c 2e-4,0.045 0.01,0.15581 0.022,0.28125 0.1435,1.37858 1.3188,2.46094 2.7266,2.46094 h 73.5937 12.2149 71.5957 c 1.408,0 2.5823,-1.08371 2.7246,-2.46289 0.015,-0.12322 0.022,-0.23471 0.022,-0.28321 v -12.21679 -60.37696 -12.21679 -60.37696 -12.21289 -0.004 c 0,-0.0488 -0.01,-0.16057 -0.022,-0.28516 -0.1433,-1.37818 -1.3165,-2.46094 -2.7246,-2.46094 z m 0,2 h 157.4043 c 0.4038,0 0.7019,0.28526 0.7402,0.66993 v 0.0351 l 0.01,0.0371 c -0.01,-0.0541 0,-0.0553 0,0.004 v 0.004 12.21289 60.37696 12.21679 60.37696 12.21679 c 0,0.0592 -0.01,0.0579 0,0.004 l -0.01,0.0371 v 0.0352 c -0.038,0.38406 -0.3359,0.66992 -0.7402,0.66992 h -71.5957 -12.2149 -73.5937 c -0.4037,0 -0.704,-0.28618 -0.7422,-0.66992 v -0.0352 l -0.01,-0.0352 c 0.01,0.0574 0,0.0539 0,-0.01 v -12.21289 -60.37696 -12.21679 -60.37696 -12.21289 -0.004 c 0,-0.0592 0.01,-0.0597 0,-0.006 l 0.01,-0.0352 v -0.0371 c 0.038,-0.38355 0.3384,-0.66797 0.7422,-0.66797 z m 12.9609,13.70704 v 1 57.88671 h 59.8868 v -58.88671 z m 73.5938,0 v 1 57.88671 h 57.8867 v -58.88671 z m -71.5938,2 h 55.8868 v 54.88671 h -55.8868 z m 73.5938,0 h 53.8867 v 54.88671 h -53.8867 z m -75.5938,70.5957 v 1 57.88476 h 59.8868 v -58.88476 z m 73.5938,0 v 1 57.88476 h 57.8867 v -58.88476 z m -71.5938,2 h 55.8868 v 54.88476 h -55.8868 z m 73.5938,0 h 53.8867 v 54.88476 h -53.8867 z"
         style="color:#000000;font-style:normal;font-variant:normal;font-weight:normal;font-stretch:normal;font-size:medium;line-height:normal;font-family:sans-serif;font-variant-ligatures:normal;font-variant-position:normal;font-variant-caps:normal;font-variant-numeric:normal;font-variant-alternates:normal;font-feature-settings:normal;text-indent:0;text-align:start;text-decoration:none;text-decoration-line:none;text-decoration-style:solid;text-decoration-color:#000000;letter-spacing:normal;word-spacing:normal;text-transform:none;writing-mode:lr-tb;direction:ltr;text-orientation:mixed;dominant-baseline:auto;baseline-shift:baseline;text-anchor:start;white-space:normal;shape-padding:0;clip-rule:nonzero;display:inline;overflow:visible;visibility:visible;opacity:1;isolation:auto;mix-blend-mode:normal;color-interpolation:sRGB;color-interpolation-filters:linearRGB;solid-color:#000000;solid-opacity:1;vector-effect:none;fill:#000000;fill-opacity:1;fill-rule:nonzero;stroke:none;stroke-width:2;stroke-linecap:butt;stroke-linejoin:miter;stroke-miterlimit:4;stroke-dasharray:none;stroke-dashoffset:0;stroke-opacity:1;color-rendering:auto;image-rendering:auto;shape-rendering:auto;text-rendering:auto;enable-background:accumulate" />
    </g>
  </g>
</svg>
