<?xml version="1.0" encoding="UTF-8" standalone="no"?>
<!-- Created with Inkscape (http://www.inkscape.org/) -->

<svg
   xmlns:dc="http://purl.org/dc/elements/1.1/"
   xmlns:cc="http://creativecommons.org/ns#"
   xmlns:rdf="http://www.w3.org/1999/02/22-rdf-syntax-ns#"
   xmlns:svg="http://www.w3.org/2000/svg"
   xmlns="http://www.w3.org/2000/svg"
   xmlns:sodipodi="http://sodipodi.sourceforge.net/DTD/sodipodi-0.dtd"
   xmlns:inkscape="http://www.inkscape.org/namespaces/inkscape"
   width="162.89729mm"
   height="164.89838mm"
   viewBox="0 0 162.89729 164.89837"
   version="1.1"
   id="svg2206"
   inkscape:version="0.92.4 (5da689c313, 2019-01-14)"
   sodipodi:docname="sedimentadores.svg">
  <defs
     id="defs2200" />
  <sodipodi:namedview
     id="base"
     pagecolor="#ffffff"
     bordercolor="#666666"
     borderopacity="1.0"
     inkscape:pageopacity="0.0"
     inkscape:pageshadow="2"
     inkscape:zoom="0.49497475"
     inkscape:cx="68.426723"
     inkscape:cy="353.95626"
     inkscape:document-units="mm"
     inkscape:current-layer="layer1"
     showgrid="false"
     inkscape:window-width="1366"
     inkscape:window-height="705"
     inkscape:window-x="-8"
     inkscape:window-y="-8"
     inkscape:window-maximized="1" />
  <metadata
     id="metadata2203">
    <rdf:RDF>
      <cc:Work
         rdf:about="">
        <dc:format>image/svg+xml</dc:format>
        <dc:type
           rdf:resource="http://purl.org/dc/dcmitype/StillImage" />
        <dc:title></dc:title>
      </cc:Work>
    </rdf:RDF>
  </metadata>
  <g
     inkscape:label="Capa 1"
     inkscape:groupmode="layer"
     id="layer1"
     transform="translate(117.2489,-18.23559)">
    <g
       transform="translate(2308.4867,-165.50064)"
       id="g2798">
      <path
         inkscape:connector-curvature="0"
         id="rect1583"
         transform="matrix(0.26458333,0,0,0.26458333,-4605.1778,-75.570427)"
         d="m 8307.9004,987.61523 v 0.002 c 0.042,0.3614 0.078,0.72657 0.078,1.09961 v 26.58586 c 0.1738,-0.011 0.3437,-0.027 0.5175,-0.027 h 164.4375 c 0.1818,0 0.3556,0.016 0.5333,0.027 v -26.60149 c -1e-4,-0.36771 0.031,-0.72953 0.076,-1.08594 z m 174.0391,0 c -0.5768,0.0717 -0.9434,0.46701 -0.9434,1.08594 v 34.35353 0.2969 18.2773 0.2969 499.4922 0.2968 18.2696 0.2968 34.3692 c 4e-4,0.619 0.3681,1.0078 0.9434,1.0781 h 20.6015 c 0.5749,-0.071 0.9414,-0.4596 0.9414,-1.0781 V 988.70117 c 0,-0.61852 -0.3669,-1.01375 -0.9414,-1.08594 z m 28.9921,0 c 0.042,0.35657 0.08,0.71819 0.08,1.08594 v 605.94923 c 0,0.3655 -0.031,0.7236 -0.076,1.0781 h 67.8086 c -0.041,-0.3544 -0.08,-0.7126 -0.08,-1.0781 V 988.70117 c 0,-0.36771 0.035,-0.72953 0.08,-1.08594 h -67.8105 z m 76.2071,0 c -0.5749,0.0717 -0.9414,0.46701 -0.9414,1.08594 v 605.94923 c 0,0.619 0.3661,1.0078 0.9414,1.0781 h 20.5937 c 0.5749,-0.071 0.9414,-0.4591 0.9414,-1.0781 v -34.3926 -0.2734 -18.2696 c 0,-0.092 0,-0.1819 0,-0.2734 v -499.541 -0.2715 -18.2773 c 0,-0.092 0,-0.182 0,-0.2735 v -34.37693 c 0,-0.61893 -0.3661,-1.01412 -0.9414,-1.08594 z m 28.9941,0 c 0.042,0.35595 0.078,0.71885 0.078,1.08594 v 26.60153 c 0.1758,-0.011 0.3536,-0.027 0.5313,-0.027 h 164.4316 c 0.3587,0 0.709,0.033 1.0567,0.08 v -26.64066 c 0,-0.37292 0.035,-0.73828 0.08,-1.09961 z m 174.7559,0 c -0.3182,0 -0.575,0.10088 -0.7637,0.27149 0.2973,-0.11886 0.6064,-0.21264 0.9297,-0.27149 z M 8308.498,1022.834 c -0.3514,0 -0.5175,0.1657 -0.5175,0.5176 v 18.2773 c 0,0.352 0.1661,0.5156 0.5175,0.5156 h 164.4375 c 0.3515,0 0.5176,-0.1637 0.5176,-0.5156 v -18.2773 c 0,-0.3521 -0.1661,-0.5176 -0.5176,-0.5176 z m 308.2442,0 c -0.3492,0 -0.5234,0.1657 -0.5234,0.5176 v 18.2773 c 0,0.352 0.1719,0.5156 0.5234,0.5156 h 164.4316 c 0.3515,0 0.5254,-0.1637 0.5254,-0.5156 v -18.2773 c 0,-0.3521 -0.1739,-0.5176 -0.5254,-0.5176 z m 165.4883,26.791 c -0.3474,0.046 -0.6976,0.08 -1.0567,0.08 h -164.4316 c -0.1795,0 -0.3536,-0.016 -0.5313,-0.027 v 483.9805 c 0.1758,-0.011 0.3536,-0.027 0.5313,-0.027 h 164.4316 c 0.3583,0 0.709,0.033 1.0567,0.08 z m -474.25,0.053 v 483.9805 c 0.1738,-0.011 0.3437,-0.025 0.5175,-0.025 h 164.4375 c 0.1818,0 0.3556,0.014 0.5333,0.025 V 1049.678 c -0.1781,0.011 -0.3518,0.027 -0.5333,0.027 H 8308.498 c -0.1738,0 -0.3475,-0.016 -0.5175,-0.027 z m 68.3828,15.0918 a 2.822352,2.822352 0 0 1 2.8633,2.8653 v 75.9746 c 0,3.9874 -1.1342,7.9939 -3.8321,11.0722 -2.697,3.0784 -6.94,4.9981 -12.2461,4.9981 -5.9085,0 -9.8705,-3.9753 -12.0546,-7.4922 -2.1846,-3.5168 -3.004,-6.9844 -3.004,-6.9844 a 2.822352,2.822352 0 1 1 5.4844,-1.3281 c 0,0 0.6684,2.6926 2.3106,5.3359 1.6418,2.6433 3.8383,4.8282 7.2636,4.8282 4.0267,0 6.4059,-1.2564 8.002,-3.0782 1.5965,-1.8217 2.4297,-4.4321 2.4297,-7.3515 v -75.9746 a 2.822352,2.822352 0 0 1 2.7832,-2.8653 z m 30.7226,0 a 2.822352,2.822352 0 0 1 2.8633,2.8653 v 75.9746 c 0,2.9194 0.8336,5.5298 2.4297,7.3515 1.5965,1.8217 3.9749,3.0782 8.002,3.0782 3.4253,0 5.6218,-2.1849 7.2636,-4.8282 1.6422,-2.6433 2.3184,-5.3359 2.3184,-5.3359 a 2.822352,2.822352 0 1 1 5.4844,1.3281 c 0,0 -0.8272,3.4676 -3.0118,6.9844 -2.1841,3.5169 -6.1461,7.4922 -12.0546,7.4922 -5.3065,0 -9.5487,-1.9197 -12.2461,-4.9981 -2.6975,-3.0783 -3.8321,-7.0849 -3.8321,-11.0722 v -75.9746 a 2.822352,2.822352 0 0 1 2.7832,-2.8653 z m 277.5215,0 a 2.822352,2.822352 0 0 1 2.8633,2.8653 v 75.9746 c 0,3.9874 -1.1342,7.9939 -3.832,11.0722 -2.6971,3.0784 -6.94,4.9981 -12.2461,4.9981 -5.9086,0 -9.8701,-3.9753 -12.0547,-7.4922 -2.1846,-3.5168 -3.0039,-6.9844 -3.0039,-6.9844 a 2.822352,2.822352 0 1 1 5.4844,-1.3281 c 0,0 0.6683,2.6926 2.3105,5.3359 1.6418,2.6433 3.8383,4.8282 7.2637,4.8282 4.0267,0 6.4058,-1.2564 8.0019,-3.0782 1.5965,-1.8217 2.4297,-4.4321 2.4297,-7.3515 v -75.9746 a 2.822352,2.822352 0 0 1 2.7832,-2.8653 z m 30.7227,0 a 2.822352,2.822352 0 0 1 2.8633,2.8653 v 75.9746 c 0,2.9194 0.8336,5.5298 2.4296,7.3515 1.5965,1.8217 3.9749,3.0782 8.002,3.0782 3.4254,0 5.6218,-2.1849 7.2637,-4.8282 1.6422,-2.6433 2.3183,-5.3359 2.3183,-5.3359 a 2.822352,2.822352 0 1 1 5.4844,1.3281 c 0,0 -0.8271,3.4676 -3.0117,6.9844 -2.1842,3.5169 -6.1462,7.4922 -12.0547,7.4922 -5.3065,0 -9.5486,-1.9197 -12.2461,-4.9981 -2.6974,-3.0783 -3.832,-7.0849 -3.832,-11.0722 v -75.9746 a 2.822352,2.822352 0 0 1 2.7832,-2.8653 z m -338.9668,183.1387 a 2.822352,2.822352 0 0 1 2.8633,2.8633 v 75.9746 c 0,3.9873 -1.1342,8.0018 -3.8321,11.0801 -2.697,3.0783 -6.94,4.998 -12.2461,4.998 -5.9085,0 -9.8705,-3.9753 -12.0546,-7.4922 -2.1846,-3.5168 -3.004,-6.9843 -3.004,-6.9843 a 2.8226251,2.8226251 0 0 1 5.4844,-1.336 c 0,0 0.6684,2.6947 2.3106,5.3379 1.6418,2.6433 3.8383,4.8281 7.2636,4.8281 4.0267,0 6.4059,-1.2505 8.002,-3.0722 1.5965,-1.8218 2.4297,-4.44 2.4297,-7.3594 v -75.9746 a 2.822352,2.822352 0 0 1 2.7832,-2.8633 z m 30.7226,0 a 2.822352,2.822352 0 0 1 2.8633,2.8633 v 75.9746 c 0,2.9195 0.8336,5.5376 2.4297,7.3594 1.5965,1.8215 3.9749,3.0722 8.002,3.0722 3.4253,0 5.6218,-2.1848 7.2636,-4.8281 1.6422,-2.6432 2.3184,-5.3379 2.3184,-5.3379 a 2.8226251,2.8226251 0 0 1 5.4844,1.336 c 0,0 -0.8272,3.4675 -3.0118,6.9843 -2.1841,3.5169 -6.1461,7.4922 -12.0546,7.4922 -5.3065,0 -9.5487,-1.9197 -12.2461,-4.998 -2.6975,-3.0784 -3.8321,-7.0928 -3.8321,-11.0801 v -75.9746 a 2.822352,2.822352 0 0 1 2.7832,-2.8633 z m 277.5215,0 a 2.822352,2.822352 0 0 1 2.8633,2.8633 v 75.9746 c 0,3.9873 -1.1342,8.0018 -3.832,11.0801 -2.6971,3.0783 -6.94,4.998 -12.2461,4.998 -5.9086,0 -9.8701,-3.9753 -12.0547,-7.4922 -2.1846,-3.5168 -3.0039,-6.9843 -3.0039,-6.9843 a 2.8226251,2.8226251 0 0 1 5.4844,-1.336 c 0,0 0.6683,2.6947 2.3105,5.3379 1.6418,2.6433 3.8383,4.8281 7.2637,4.8281 4.0267,0 6.4058,-1.2505 8.0019,-3.0722 1.5965,-1.8218 2.4297,-4.44 2.4297,-7.3594 v -75.9746 a 2.822352,2.822352 0 0 1 2.7832,-2.8633 z m 30.7227,0 a 2.822352,2.822352 0 0 1 2.8633,2.8633 v 75.9746 c 0,2.9195 0.8336,5.5376 2.4296,7.3594 1.5965,1.8215 3.9749,3.0722 8.002,3.0722 3.4254,0 5.6218,-2.1848 7.2637,-4.8281 1.6422,-2.6432 2.3183,-5.3379 2.3183,-5.3379 a 2.8226251,2.8226251 0 0 1 5.4844,1.336 c 0,0 -0.8271,3.4675 -3.0117,6.9843 -2.1842,3.5169 -6.1462,7.4922 -12.0547,7.4922 -5.3065,0 -9.5486,-1.9197 -12.2461,-4.998 -2.6974,-3.0784 -3.832,-7.0928 -3.832,-11.0801 v -75.9746 a 2.822352,2.822352 0 0 1 2.7832,-2.8633 z m -338.9668,183.1445 a 2.822352,2.822352 0 0 1 2.8633,2.8633 v 75.9746 c 0,3.9874 -1.1342,7.994 -3.8321,11.0723 -2.697,3.0783 -6.94,4.998 -12.2461,4.998 -5.9085,0 -9.8705,-3.9757 -12.0546,-7.4921 -2.1846,-3.5168 -3.004,-6.9825 -3.004,-6.9825 a 2.822352,2.822352 0 1 1 5.4844,-1.3301 c 0,10e-5 0.6684,2.6947 2.3106,5.3379 1.6418,2.6433 3.8383,4.8282 7.2636,4.8282 4.0267,0 6.4059,-1.2565 8.002,-3.0782 1.5965,-1.8217 2.4297,-4.434 2.4297,-7.3535 v -75.9746 a 2.822352,2.822352 0 0 1 2.7832,-2.8633 z m 30.7226,0 a 2.822352,2.822352 0 0 1 2.8633,2.8633 v 75.9746 c 0,2.9195 0.8336,5.5318 2.4297,7.3535 1.5965,1.8217 3.9749,3.0782 8.002,3.0782 3.4253,0 5.6218,-2.1849 7.2636,-4.8282 1.6422,-2.6432 2.3184,-5.3378 2.3184,-5.3379 a 2.822352,2.822352 0 1 1 5.4844,1.3301 c 0,0 -0.8272,3.4657 -3.0118,6.9825 -2.1841,3.5164 -6.1461,7.4921 -12.0546,7.4921 -5.3065,0 -9.5487,-1.9196 -12.2461,-4.998 -2.6975,-3.0783 -3.8321,-7.0849 -3.8321,-11.0723 v -75.9746 a 2.822352,2.822352 0 0 1 2.7832,-2.8633 z m 277.5215,0 a 2.822352,2.822352 0 0 1 2.8633,2.8633 v 75.9746 c 0,3.9874 -1.1342,7.994 -3.832,11.0723 -2.6971,3.0783 -6.94,4.998 -12.2461,4.998 -5.9086,0 -9.8701,-3.9756 -12.0547,-7.4921 -2.1846,-3.5168 -3.0039,-6.9825 -3.0039,-6.9825 a 2.822352,2.822352 0 1 1 5.4844,-1.3301 c 0,10e-5 0.6683,2.6947 2.3105,5.3379 1.6418,2.6433 3.8383,4.8282 7.2637,4.8282 4.0267,0 6.4058,-1.2565 8.0019,-3.0782 1.5965,-1.8217 2.4297,-4.434 2.4297,-7.3535 v -75.9746 a 2.822352,2.822352 0 0 1 2.7832,-2.8633 z m 30.7227,0 a 2.822352,2.822352 0 0 1 2.8633,2.8633 v 75.9746 c 0,2.9195 0.8336,5.5318 2.4296,7.3535 1.5965,1.8217 3.9749,3.0782 8.002,3.0782 3.4254,0 5.6218,-2.1849 7.2637,-4.8282 1.6422,-2.6432 2.3183,-5.3378 2.3183,-5.3379 a 2.822352,2.822352 0 1 1 5.4844,1.3301 c 0,0 -0.8271,3.4657 -3.0117,6.9825 -2.1842,3.5165 -6.1462,7.4921 -12.0547,7.4921 -5.3065,0 -9.5486,-1.9196 -12.2461,-4.998 -2.6974,-3.0783 -3.832,-7.0849 -3.832,-11.0723 v -75.9746 a 2.822352,2.822352 0 0 1 2.7832,-2.8633 z m -406.8321,110.1387 c -0.3514,0 -0.5175,0.1716 -0.5175,0.5234 v 18.2696 c 0,0.352 0.1661,0.5176 0.5175,0.5176 h 164.4375 c 0.3515,0 0.5176,-0.1658 0.5176,-0.5176 v -18.2696 c 0,-0.3522 -0.1661,-0.5234 -0.5176,-0.5234 z m 308.2442,0 c -0.3492,0 -0.5234,0.1716 -0.5234,0.5234 v 18.2696 c 0,0.352 0.1719,0.5176 0.5234,0.5176 h 164.4316 c 0.3515,0 0.5254,-0.1658 0.5254,-0.5176 v -18.2696 c 0,-0.3522 -0.1739,-0.5234 -0.5254,-0.5234 z m 165.4863,26.7891 c -0.3469,0.046 -0.6976,0.08 -1.0566,0.08 h -164.4317 c -0.1795,0 -0.3536,-0.016 -0.5312,-0.027 v 26.6172 c 0,0.3655 -0.029,0.7236 -0.074,1.0781 h 166.1757 c -0.041,-0.3614 -0.08,-0.7266 -0.08,-1.0996 v -26.6484 z m -474.248,0.053 v 26.5957 c 0,0.3729 -0.033,0.7383 -0.078,1.0996 h 165.6445 c -0.038,-0.3544 -0.076,-0.7126 -0.076,-1.0781 v -26.6172 c -0.1781,0.011 -0.3518,0.027 -0.5333,0.027 H 8308.498 c -0.1738,0 -0.3475,-0.016 -0.5175,-0.027 z"
         style="opacity:1;fill:#0088aa;fill-opacity:1;stroke:none;stroke-width:7.53114176;stroke-linecap:round;stroke-linejoin:round;stroke-miterlimit:4;stroke-dasharray:none;stroke-dashoffset:0;stroke-opacity:1" />
      <path
         inkscape:connector-curvature="0"
         transform="matrix(0.26458333,0,0,0.26458333,-4605.1778,-75.570427)"
         id="rect1638"
         d="m 8483.1641,987.52344 c -2.7036,0 -4.8809,2.17537 -4.8809,4.8789 v 34.65036 c 0,-2.3804 -1.9164,-4.2968 -4.2969,-4.2968 h -164.4394 c -2.3738,0 -4.2842,1.9061 -4.2949,4.2773 v -34.62109 c 0,-2.70341 -2.1775,-4.88086 -4.8809,-4.88086 h -53.3945 c -2.7035,0 -4.8789,2.17745 -4.8789,4.88086 v 605.91599 c 0,2.7034 2.1754,4.8789 4.8789,4.8789 h 53.3945 c 2.7034,0 4.8809,-2.1755 4.8809,-4.8789 v -34.6211 c 0.011,2.3712 1.9211,4.2774 4.2949,4.2774 h 164.4394 c 2.3805,0 4.2969,-1.9164 4.2969,-4.2969 v 34.6582 c 0,2.7035 2.1773,4.8809 4.8809,4.8809 h 20.2539 c 2.7035,0 4.8789,-2.1774 4.8789,-4.8809 V 992.40234 c 0,-2.70353 -2.1754,-4.8789 -4.8789,-4.8789 z m 105.1972,0 c -2.7035,0 -4.8789,2.17537 -4.8789,4.8789 v 605.94336 c 0,2.7035 2.1754,4.8809 4.8789,4.8809 h 20.2539 c 2.7036,0 4.8809,-2.1774 4.8809,-4.8809 v -34.6582 c 0,2.3805 1.9164,4.2969 4.2969,4.2969 h 164.4375 c 2.3804,0 4.2968,-1.9164 4.2968,-4.2969 v -18.2773 c 0,-2.3805 -1.9164,-4.2969 -4.2968,-4.2969 H 8617.793 c -2.3805,0 -4.2969,1.9164 -4.2969,4.2969 v -500.0821 c 0,2.3805 1.9164,4.2969 4.2969,4.2969 h 164.4375 c 2.3804,0 4.2968,-1.9164 4.2968,-4.2969 v -18.2754 c 0,-2.3804 -1.9164,-4.2968 -4.2968,-4.2968 H 8617.793 c -2.3805,0 -4.2969,1.9164 -4.2969,4.2968 v -34.65036 c 0,-2.70353 -2.1773,-4.8789 -4.8809,-4.8789 z m 203.5782,0.008 c -2.7035,0 -4.879,2.17745 -4.879,4.88086 v 605.916 c 0,2.7034 2.1755,4.8789 4.879,4.8789 h 53.3945 c 2.7034,0 4.8808,-2.1755 4.8808,-4.8789 V 992.41211 c 0,-2.70341 -2.1774,-4.88086 -4.8808,-4.88086 z m -313.6563,57.79686 v 500.0821 c 0,-2.3805 -1.9164,-4.2969 -4.2969,-4.2969 h -164.4394 c -2.3738,0 -4.2842,1.9062 -4.2949,4.2773 v -500.0429 c 0.011,2.3711 1.9211,4.2773 4.2949,4.2773 h 164.4394 c 2.3805,0 4.2969,-1.9164 4.2969,-4.2969 z"
         style="opacity:1;fill:#ac9393;fill-opacity:1;stroke:none;stroke-width:7.55905533;stroke-linecap:round;stroke-linejoin:round;stroke-miterlimit:4;stroke-dasharray:none;stroke-dashoffset:0;stroke-opacity:1" />
      <path
         inkscape:connector-curvature="0"
         id="rect2163"
         d="m -2423.4443,183.73623 c -1.252,0 -2.2913,1.03883 -2.2913,2.29081 V 346.3418 c 0,1.25198 1.0393,2.29081 2.2913,2.29081 h 12.701 1.4278 48.3227 c 0.014,2.7e-4 0.027,0.002 0.04,0.002 h 5.3593 c 0.014,0 0.027,-0.002 0.04,-0.002 h 22.394 c 0.014,2.7e-4 0.027,0.002 0.04,0.002 h 5.3578 c 0.014,0 0.027,-0.002 0.04,-0.002 h 48.4653 1.4278 12.699 c 1.252,0 2.2913,-1.03883 2.2913,-2.29081 V 186.02704 c 0,-1.25198 -1.0393,-2.29081 -2.2913,-2.29081 h -12.699 -1.4278 -48.5056 -5.3578 -22.4746 -5.3593 -48.363 -1.4278 z m 0,1.99987 h 12.701 1.4278 c 0.1786,0 0.291,0.11236 0.291,0.29094 v 9.16431 4.83587 132.31442 4.8338 9.16636 c 0,0.17859 -0.1124,0.29093 -0.291,0.29093 h -1.4278 -12.701 c -0.1786,0 -0.2915,-0.11234 -0.2915,-0.29093 V 186.02704 c 0,-0.17858 0.1129,-0.29094 0.2915,-0.29094 z m 16.3985,0 h 43.8268 c -0.012,0.0943 -0.02,0.19004 -0.02,0.28733 v 7.03834 c -0.047,-0.003 -0.093,-0.007 -0.1411,-0.007 h -43.5074 c -0.046,0 -0.091,0.004 -0.137,0.007 v -7.0342 c 0,-0.0987 -0.01,-0.19532 -0.021,-0.29094 z m 46.0478,0 h 5.4508 c 0.152,0.0191 0.2491,0.12368 0.2491,0.28733 v 160.32406 c 0,0.16364 -0.097,0.26648 -0.2491,0.28524 h -5.4508 c -0.1522,-0.0186 -0.2495,-0.12147 -0.2496,-0.28524 V 337.254 c 0,-0.0263 0,-0.0521 0,-0.0786 v -4.8338 c 0,-0.0265 0,-0.0523 0,-0.0786 V 200.10577 c 0,-0.0263 0,-0.052 0,-0.0786 v -4.83587 c 0,-0.0265 0,-0.0523 0,-0.0786 v -9.08936 c 0,-0.16376 0.097,-0.26837 0.2496,-0.28733 z m 7.6714,0 h 17.9415 c -0.012,0.0943 -0.021,0.19004 -0.021,0.28733 v 160.32406 c 0,0.0967 0.01,0.19147 0.021,0.28524 h -17.941 c 0.012,-0.0938 0.02,-0.18854 0.02,-0.28524 V 186.02343 c 0,-0.0973 -0.01,-0.19299 -0.021,-0.28733 z m 20.1626,0 h 5.4487 c 0.1522,0.019 0.2491,0.12357 0.2491,0.28733 v 9.09555 c -8e-4,0.0242 0,0.048 0,0.0724 v 4.83587 c 0,0.0243 0,0.0478 0,0.0718 v 132.17022 c -8e-4,0.0242 0,0.048 0,0.0724 v 4.8338 c 0,0.0244 0,0.0482 0,0.0723 v 9.09971 c 0,0.16377 -0.097,0.26659 -0.2491,0.28524 h -5.4487 c -0.1522,-0.0186 -0.2491,-0.12147 -0.2491,-0.28524 V 186.02343 c 0,-0.16376 0.097,-0.26837 0.2491,-0.28733 z m 7.6713,0 h 43.9679 c -0.012,0.0956 -0.021,0.19227 -0.021,0.29094 v 7.04867 c -0.092,-0.0124 -0.1847,-0.0212 -0.2796,-0.0212 h -43.5059 c -0.047,0 -0.094,0.004 -0.1405,0.007 v -7.03834 c 0,-0.0973 -0.01,-0.19299 -0.021,-0.28733 z m 46.2375,0 h 1.4278 12.699 c 0.1786,0 0.2914,0.11236 0.2914,0.29094 V 346.3418 c 0,0.17859 -0.1128,0.29093 -0.2914,0.29093 h -12.699 -1.4278 c -0.1785,0 -0.2909,-0.11234 -0.2909,-0.29093 V 186.02704 c 0,-0.17858 0.1124,-0.29094 0.2909,-0.29094 z m -127.6325,9.3183 h 43.5074 c 0.093,0 0.137,0.0438 0.137,0.13695 v 4.83587 c 0,0.0931 -0.044,0.13642 -0.137,0.13644 h -43.5074 c -0.093,0 -0.137,-0.0433 -0.137,-0.13644 v -4.83587 c 0,-0.0931 0.044,-0.13695 0.137,-0.13695 z m 81.5562,0 h 43.5059 c 0.093,0 0.139,0.0438 0.139,0.13695 v 4.83587 c 0,0.0931 -0.046,0.13642 -0.139,0.13644 h -43.5059 c -0.093,0 -0.1384,-0.0433 -0.1384,-0.13644 v -4.83587 c 0,-0.0931 0.046,-0.13695 0.1384,-0.13695 z m 43.7855,7.08845 v 128.08109 c -0.092,-0.0124 -0.1848,-0.0212 -0.2796,-0.0212 h -43.5059 c -0.047,0 -0.094,0.004 -0.1405,0.007 V 202.15682 c 0.047,0.003 0.093,0.007 0.1405,0.007 h 43.5059 c 0.095,0 0.1877,-0.009 0.2796,-0.0212 z m -125.4787,0.014 c 0.045,0.003 0.091,0.007 0.137,0.007 h 43.5074 c 0.048,0 0.094,-0.004 0.1411,-0.007 V 330.21 c -0.047,-0.003 -0.093,-0.007 -0.1411,-0.007 h -43.5074 c -0.046,0 -0.091,0.004 -0.137,0.007 z m 0.137,130.04631 h 43.5074 c 0.093,0 0.137,0.0453 0.137,0.13851 v 4.8338 c 0,0.0931 -0.044,0.13695 -0.137,0.13695 h -43.5074 c -0.093,0 -0.137,-0.0438 -0.137,-0.13695 v -4.8338 c 0,-0.0931 0.044,-0.13851 0.137,-0.13851 z m 81.5562,0 h 43.5059 c 0.093,0 0.139,0.0453 0.139,0.13851 v 4.8338 c 0,0.0931 -0.046,0.13695 -0.139,0.13695 h -43.5059 c -0.093,0 -0.1384,-0.0438 -0.1384,-0.13695 v -4.8338 c 0,-0.0931 0.046,-0.13851 0.1384,-0.13851 z m 43.7855,7.08795 v 7.05072 c 0,0.0987 0.01,0.19531 0.021,0.29093 h -43.9674 c 0.012,-0.0938 0.02,-0.18854 0.02,-0.28524 v -7.04247 c 0.047,0.003 0.093,0.007 0.1405,0.007 h 43.5059 c 0.095,0 0.1878,-0.009 0.2796,-0.0212 z m -125.4787,0.0139 c 0.045,0.003 0.091,0.007 0.137,0.007 h 43.5074 c 0.048,0 0.094,-0.004 0.1411,-0.007 v 7.04247 c 0,0.0967 0.01,0.19147 0.02,0.28524 h -43.8268 c 0.012,-0.0956 0.021,-0.19227 0.021,-0.29093 z"
         style="color:#000000;font-style:normal;font-variant:normal;font-weight:normal;font-stretch:normal;font-size:medium;line-height:normal;font-family:sans-serif;font-variant-ligatures:normal;font-variant-position:normal;font-variant-caps:normal;font-variant-numeric:normal;font-variant-alternates:normal;font-feature-settings:normal;text-indent:0;text-align:start;text-decoration:none;text-decoration-line:none;text-decoration-style:solid;text-decoration-color:#000000;letter-spacing:normal;word-spacing:normal;text-transform:none;writing-mode:lr-tb;direction:ltr;text-orientation:mixed;dominant-baseline:auto;baseline-shift:baseline;text-anchor:start;white-space:normal;shape-padding:0;clip-rule:nonzero;display:inline;overflow:visible;visibility:visible;opacity:1;isolation:auto;mix-blend-mode:normal;color-interpolation:sRGB;color-interpolation-filters:linearRGB;solid-color:#000000;solid-opacity:1;vector-effect:none;fill:#000000;fill-opacity:1;fill-rule:nonzero;stroke:none;stroke-width:2;stroke-linecap:round;stroke-linejoin:round;stroke-miterlimit:4;stroke-dasharray:none;stroke-dashoffset:0;stroke-opacity:1;color-rendering:auto;image-rendering:auto;shape-rendering:auto;text-rendering:auto;enable-background:accumulate" />
    </g>
  </g>
</svg>
