<?xml version="1.0" encoding="UTF-8" standalone="no"?>
<!-- Created with Inkscape (http://www.inkscape.org/) -->

<svg
   xmlns:dc="http://purl.org/dc/elements/1.1/"
   xmlns:cc="http://creativecommons.org/ns#"
   xmlns:rdf="http://www.w3.org/1999/02/22-rdf-syntax-ns#"
   xmlns:svg="http://www.w3.org/2000/svg"
   xmlns="http://www.w3.org/2000/svg"
   xmlns:sodipodi="http://sodipodi.sourceforge.net/DTD/sodipodi-0.dtd"
   xmlns:inkscape="http://www.inkscape.org/namespaces/inkscape"
   width="165.8672mm"
   height="165.86719mm"
   viewBox="0 0 165.8672 165.86717"
   version="1.1"
   id="svg2206"
   inkscape:version="0.92.4 (5da689c313, 2019-01-14)"
   sodipodi:docname="tanque.svg">
  <defs
     id="defs2200" />
  <sodipodi:namedview
     id="base"
     pagecolor="#ffffff"
     bordercolor="#666666"
     borderopacity="1.0"
     inkscape:pageopacity="0.0"
     inkscape:pageshadow="2"
     inkscape:zoom="0.49497475"
     inkscape:cx="305.92833"
     inkscape:cy="278.46958"
     inkscape:document-units="mm"
     inkscape:current-layer="layer1"
     showgrid="false"
     inkscape:window-width="1366"
     inkscape:window-height="705"
     inkscape:window-x="-8"
     inkscape:window-y="-8"
     inkscape:window-maximized="1" />
  <metadata
     id="metadata2203">
    <rdf:RDF>
      <cc:Work
         rdf:about="">
        <dc:format>image/svg+xml</dc:format>
        <dc:type
           rdf:resource="http://purl.org/dc/dcmitype/StillImage" />
        <dc:title></dc:title>
      </cc:Work>
    </rdf:RDF>
  </metadata>
  <g
     inkscape:label="Capa 1"
     inkscape:groupmode="layer"
     id="layer1"
     transform="translate(207.34936,74.868511)">
    <path
       inkscape:connector-curvature="0"
       id="path2042"
       d="m -124.41616,-73.868391 a 81.934256,81.934256 0 0 0 -81.934,81.9340018 81.934256,81.934256 0 0 0 81.934,81.9340292 81.934256,81.934256 0 0 0 81.934098,-81.9340292 81.934256,81.934256 0 0 0 -81.934098,-81.9340018 z m 0,4.73097 a 77.20308,77.20308 0 0 1 77.203099,77.2030318 77.20308,77.20308 0 0 1 -77.203099,77.2030592 77.20308,77.20308 0 0 1 -77.203,-77.2030592 77.20308,77.20308 0 0 1 77.203,-77.2030318 z"
       style="opacity:1;fill:#ac9393;fill-opacity:1;stroke:none;stroke-width:2;stroke-linecap:round;stroke-linejoin:round;stroke-miterlimit:4;stroke-dasharray:none;stroke-dashoffset:0;stroke-opacity:1" />
    <path
       inkscape:connector-curvature="0"
       style="opacity:1;fill:#0088aa;fill-opacity:1;stroke:none;stroke-width:2;stroke-linecap:round;stroke-linejoin:round;stroke-miterlimit:4;stroke-dasharray:none;stroke-dashoffset:0;stroke-opacity:1"
       d="M -124.41621,-69.137421 A 77.203078,77.203078 0 0 0 -201.61925,8.0656138 77.203078,77.203078 0 0 0 -124.41621,85.268676 77.203078,77.203078 0 0 0 -47.213183,8.0656138 77.203078,77.203078 0 0 0 -124.41621,-69.137421 Z m -31.21052,22.183142 a 1.0001,1.0001 0 0 1 0.0704,0 1.0001,1.0001 0 0 1 0.45508,1.872748 c -18.98941,10.963539 -30.68531,31.219589 -30.68531,53.1466418 0,21.9270532 11.6959,42.1846382 30.68531,53.1481772 a 1.00038,1.00038 0 1 1 -1.00039,1.732703 C -175.707,51.626799 -187.78655,30.70347 -187.78655,8.0651108 c 0,-22.6383848 12.07955,-43.5596238 31.68491,-54.8788168 a 1.0001,1.0001 0 0 1 0.4744,-0.140573 z m 76.843464,1.771994 a 1.0008907,1.0008907 0 0 1 0.04075,0 1.0008907,1.0008907 0 0 1 0.635,0.261991 c 14.276916,13.094705 22.560227,31.472134 22.91715,50.8413538 0.356923,19.3692202 -7.243763,38.0393312 -21.02829,51.6511122 a 1.0001,1.0001 0 0 1 -0.491331,0.273367 1.0001,1.0001 0 0 1 -0.913606,-1.697064 c 13.39506,-13.227632 20.780639,-31.367068 20.43377,-50.1896852 -0.346604,-18.8226438 -8.396552,-36.6780768 -22.270508,-49.4031858 a 1.0008907,1.0008907 0 0 1 0.676011,-1.738921 z m -45.769474,8.246534 c 4.81171,-0.01535 9.65518,0.741415 14.34438,2.301663 a 1.0001,1.0001 0 1 1 -0.63235,1.896507 c -13.65858,-4.544431 -28.6811,-1.953075 -40.0296,6.902423 a 1.0006246,1.0006246 0 0 1 -1.23058,-1.578186 c 7.4213,-5.7912 16.34834,-9.020916 25.48837,-9.468671 0.68553,-0.0336 1.37266,-0.05165 2.05978,-0.05374 z m 0.13653,36.02569236 a 8.9760531,8.9760531 0 0 1 8.46772,6.02961644 h 51.373613 c 1.632215,0 2.946136,1.313973 2.946136,2.946056 0,1.632108 -1.313921,2.9460822 -2.946136,2.9460822 h -51.373613 a 8.9760531,8.9760531 0 0 1 -8.46772,6.030119 8.9760531,8.9760531 0 0 1 -8.97573,-8.9762012 8.9760531,8.9760531 0 0 1 8.97573,-8.97567244 z m -22.2131,45.97963564 a 1.0001,1.0001 0 0 1 0.57097,0.156052 c 12.43859,7.244715 27.67277,7.784068 40.59396,1.439703 a 1.0005888,1.0005888 0 0 1 0.88106,1.796786 c -8.44999,4.149037 -17.84614,5.483013 -26.88404,4.049897 -5.4229,-0.859869 -10.71642,-2.716768 -15.59692,-5.559345 a 1.0001,1.0001 0 0 1 0.43497,-1.883093 z"
       id="path1826" />
    <path
       style="color:#000000;font-style:normal;font-variant:normal;font-weight:normal;font-stretch:normal;font-size:medium;line-height:normal;font-family:sans-serif;font-variant-ligatures:normal;font-variant-position:normal;font-variant-caps:normal;font-variant-numeric:normal;font-variant-alternates:normal;font-feature-settings:normal;text-indent:0;text-align:start;text-decoration:none;text-decoration-line:none;text-decoration-style:solid;text-decoration-color:#000000;letter-spacing:normal;word-spacing:normal;text-transform:none;writing-mode:lr-tb;direction:ltr;text-orientation:mixed;dominant-baseline:auto;baseline-shift:baseline;text-anchor:start;white-space:normal;shape-padding:0;clip-rule:nonzero;display:inline;overflow:visible;visibility:visible;opacity:1;isolation:auto;mix-blend-mode:normal;color-interpolation:sRGB;color-interpolation-filters:linearRGB;solid-color:#000000;solid-opacity:1;vector-effect:none;fill:#000000;fill-opacity:1;fill-rule:nonzero;stroke:none;stroke-width:2;stroke-linecap:round;stroke-linejoin:round;stroke-miterlimit:4;stroke-dasharray:none;stroke-dashoffset:0;stroke-opacity:1;color-rendering:auto;image-rendering:auto;shape-rendering:auto;text-rendering:auto;enable-background:accumulate"
       d="m -124.41576,-74.868511 c -45.7913,1.4e-4 -82.9335,37.142312 -82.9336,82.9335898 1e-4,45.7912922 37.1423,82.9334532 82.9336,82.9335912 45.791297,-8e-5 82.933397,-37.142259 82.933598,-82.9335912 -2.01e-4,-45.7913208 -37.142301,-82.9335098 -82.933598,-82.9335898 z m 0,2 c 44.710397,8e-5 80.933398,36.22315 80.933599,80.9335898 -1e-4,44.7104512 -36.223202,80.9335132 -80.933599,80.9335922 -44.7104,-1.4e-4 -80.9335,-36.223181 -80.9336,-80.9335922 1e-4,-44.7103998 36.2232,-80.9334598 80.9336,-80.9335898 z m 0,2.73046 c -43.1785,5e-5 -78.2031,35.02466 -78.2031,78.2031298 0,43.1784822 35.0246,78.2030812 78.2031,78.2031212 43.178497,2.1e-5 78.203099,-35.0246 78.203099,-78.2031212 0,-43.1785098 -35.024602,-78.2031398 -78.203099,-78.2031298 z m 0,2 c 42.097597,-10e-6 76.203098,34.105501 76.203098,76.2031298 0,42.0976402 -34.105501,76.2031412 -76.203098,76.2031222 -42.0976,-3.9e-5 -76.2031,-34.105522 -76.2031,-76.2031222 0,-42.0975888 34.1055,-76.2030798 76.2031,-76.2031298 z"
       id="path1888"
       inkscape:connector-curvature="0" />
  </g>
</svg>
