<?xml version="1.0" encoding="UTF-8" standalone="no"?>
<!-- Created with Inkscape (http://www.inkscape.org/) -->

<svg
   xmlns:dc="http://purl.org/dc/elements/1.1/"
   xmlns:cc="http://creativecommons.org/ns#"
   xmlns:rdf="http://www.w3.org/1999/02/22-rdf-syntax-ns#"
   xmlns:svg="http://www.w3.org/2000/svg"
   xmlns="http://www.w3.org/2000/svg"
   xmlns:sodipodi="http://sodipodi.sourceforge.net/DTD/sodipodi-0.dtd"
   xmlns:inkscape="http://www.inkscape.org/namespaces/inkscape"
   width="151.71478mm"
   height="164.71896mm"
   viewBox="0 0 151.71478 164.71896"
   version="1.1"
   id="svg2206"
   inkscape:version="0.92.4 (5da689c313, 2019-01-14)"
   sodipodi:docname="vertedero_entrada.svg">
  <defs
     id="defs2200" />
  <sodipodi:namedview
     id="base"
     pagecolor="#ffffff"
     bordercolor="#666666"
     borderopacity="1.0"
     inkscape:pageopacity="0.0"
     inkscape:pageshadow="2"
     inkscape:zoom="0.49497475"
     inkscape:cx="371.98674"
     inkscape:cy="269.88169"
     inkscape:document-units="mm"
     inkscape:current-layer="layer1"
     showgrid="false"
     inkscape:window-width="1366"
     inkscape:window-height="705"
     inkscape:window-x="-8"
     inkscape:window-y="-8"
     inkscape:window-maximized="1" />
  <metadata
     id="metadata2203">
    <rdf:RDF>
      <cc:Work
         rdf:about="">
        <dc:format>image/svg+xml</dc:format>
        <dc:type
           rdf:resource="http://purl.org/dc/dcmitype/StillImage" />
        <dc:title></dc:title>
      </cc:Work>
    </rdf:RDF>
  </metadata>
  <g
     inkscape:label="Capa 1"
     inkscape:groupmode="layer"
     id="layer1"
     transform="translate(197.56582,3.8297181)">
    <g
       id="g2764">
      <path
         sodipodi:nodetypes="sssssssssccscsccccscsccccscsscccscsccccsssccccscsccccccsccccscsccccscsscccscsccccscsscccscscc"
         inkscape:connector-curvature="0"
         id="rect1395"
         d="m -171.48246,88.213765 c -0.62984,0 -1.13689,0.507047 -1.13689,1.136888 v 69.969877 c 0,0.62982 0.50705,1.13689 1.13689,1.13689 h 99.546376 c 0.62982,0 1.13687,-0.50707 1.13687,-1.13689 V 89.350653 c 0,-0.629841 -0.50705,-1.136888 -1.13687,-1.136888 z m 44.69392,11.920195 c 0.56396,-0.009 1.0238,0.44989 1.01594,1.01388 v 26.92188 c 0,1.4129 -0.40174,2.83298 -1.35755,3.9238 -0.9557,1.0908 -2.45948,1.77147 -4.33977,1.77147 -2.0937,0 -3.49748,-1.40793 -4.27157,-2.65412 -0.77412,-1.24619 -1.06661,-2.47478 -1.06661,-2.47478 -0.31385,-1.29707 1.63176,-1.76784 1.94561,-0.47077 0,0 0.23614,0.95422 0.81804,1.89084 0.58182,0.93663 1.36083,1.70895 2.57453,1.70895 1.427,0 2.27039,-0.44228 2.83599,-1.08779 0.5656,-0.64553 0.86092,-1.57308 0.86092,-2.6076 v -26.92188 c -0.008,-0.55166 0.43284,-1.00531 0.98447,-1.01388 z m 10.88665,0 c 0.56398,-0.009 1.02383,0.44989 1.01597,1.01388 v 26.92188 c 0,1.03452 0.29377,1.96207 0.85937,2.6076 0.5656,0.64551 1.40901,1.08779 2.83601,1.08779 1.2136,0 1.99221,-0.77232 2.574,-1.70895 0.5818,-0.93662 0.82011,-1.89084 0.82011,-1.89084 0.29257,-1.33017 2.29208,-0.84582 1.94355,0.47077 0,0 -0.29033,1.22859 -1.06453,2.47478 -0.77412,1.24619 -2.17953,2.65412 -4.27313,2.65412 -1.88031,0 -3.38449,-0.68067 -4.3403,-1.77147 -0.9557,-1.09082 -1.35496,-2.5109 -1.35496,-3.9238 v -26.92188 c -0.008,-0.55144 0.43249,-1.00502 0.98391,-1.01388 z m -42.73227,16.81654 c 0.56316,-0.008 1.02171,0.45072 1.01391,1.01389 v 26.92188 c 0,1.4129 -0.39968,2.83297 -1.35549,3.9238 -0.95581,1.09082 -2.45949,1.77146 -4.33978,1.77146 -2.0937,0 -3.49945,-1.40843 -4.27365,-2.65462 -0.77409,-1.24618 -1.06453,-2.47427 -1.06453,-2.47427 -0.31522,-1.29569 1.62833,-1.76853 1.94355,-0.47284 0,0 0.23821,0.95422 0.82011,1.89084 0.58179,0.93663 1.3608,1.71101 2.57452,1.71101 1.42698,0 2.26989,-0.44434 2.83549,-1.08987 0.5656,-0.64548 0.85937,-1.57102 0.85937,-2.60551 v -26.92188 c -0.008,-0.55243 0.43407,-1.00643 0.9865,-1.01389 z m 10.88667,0 c 0.56399,-0.009 1.02384,0.4499 1.01598,1.01389 v 26.92188 c -3e-5,1.03449 0.29324,1.96003 0.85884,2.60551 0.5656,0.64553 1.40901,1.08987 2.83601,1.08987 1.21359,0 1.99271,-0.77438 2.57453,-1.71101 0.58179,-0.93662 0.8201,-1.89084 0.8201,-1.89084 0.31523,-1.29569 2.25878,-0.82285 1.94355,0.47284 0,0 -0.29035,1.22809 -1.06455,2.47427 -0.77409,1.24619 -2.18003,2.65462 -4.27363,2.65462 -1.88031,0 -3.38399,-0.68064 -4.3398,-1.77146 -0.95565,-1.09083 -1.35546,-2.5109 -1.35546,-3.9238 v -26.92188 c -0.008,-0.55163 0.4328,-1.00529 0.98443,-1.01389 z m 52.804536,0 c 0.56396,-0.009 1.02381,0.4499 1.01595,1.01389 v 26.92188 c 0,1.4129 -0.39968,2.83297 -1.35546,3.9238 -0.95581,1.09082 -2.46155,1.77146 -4.341865,1.77146 -2.093701,0 -3.497471,-1.40843 -4.271561,-2.65462 -0.7741,-1.24618 -1.06453,-2.47427 -1.06453,-2.47427 -0.31522,-1.29569 1.62833,-1.76853 1.94355,-0.47284 0,0 0.23829,0.95422 0.8201,1.89084 0.5819,0.93663 1.35875,1.71101 2.572441,1.71101 1.427004,0 2.272485,-0.44434 2.838075,-1.08987 0.5656,-0.64548 0.85937,-1.57102 0.85937,-2.60551 v -26.92188 c -0.008,-0.55145 0.43252,-1.00502 0.98393,-1.01389 z m 10.88875,0 c 0.56316,-0.008 1.02168,0.45072 1.01388,1.01389 v 26.92188 c 0,1.03449 0.29586,1.96003 0.86146,2.60551 0.5656,0.64553 1.40858,1.08987 2.83548,1.08987 1.2137,0 1.99065,-0.77438 2.57244,-1.71101 0.58179,-0.93662 0.82063,-1.89084 0.82063,-1.89084 0.30242,-1.3176 2.28127,-0.83656 1.94509,0.47284 0,0 -0.29239,1.22809 -1.06659,2.47427 -0.77409,1.24619 -2.17787,2.65462 -4.27157,2.65462 -1.88031,0 -3.38555,-0.68064 -4.34133,-1.77146 -0.95571,-1.09083 -1.35549,-2.5109 -1.35549,-3.9238 v -26.92188 c -0.008,-0.55224 0.43376,-1.00616 0.986,-1.01389 z"
         style="opacity:1;fill:#0088aa;fill-opacity:1;stroke:none;stroke-width:2.00826526;stroke-linecap:round;stroke-linejoin:miter;stroke-miterlimit:4;stroke-dasharray:none;stroke-dashoffset:0;stroke-opacity:1" />
      <path
         id="rect1367"
         d="m -171.48246,-2.8292624 c -0.62984,0 -1.13689,0.5070502 -1.13689,1.1368829 V 34.69197 c 0,0.629814 0.50705,1.136861 1.13689,1.136861 h 99.546376 c 0.62982,0 1.13687,-0.507047 1.13687,-1.136861 V -1.6923795 c 0,-0.6298327 -0.50705,-1.1368829 -1.13687,-1.1368829 z m -23.94739,38.6580934 c -0.62984,0 -1.13689,0.507074 -1.13689,1.136888 V 139.46178 c 0,0.62984 0.50705,1.13689 1.13689,1.13689 h 21.67361 c 0.62984,0 1.13689,-0.50705 1.13689,-1.13689 V 36.965719 c 0,-0.629814 -0.50705,-1.136888 -1.13689,-1.136888 z m 125.767516,0 c -0.62984,0 -1.13688,0.507074 -1.13688,1.136888 V 139.46178 c 0,0.62984 0.50704,1.13689 1.13688,1.13689 h 21.67361 c 0.62984,0 1.13689,-0.50705 1.13689,-1.13689 V 36.965719 c 0,-0.629814 -0.50705,-1.136888 -1.13689,-1.136888 z"
         style="opacity:1;fill:#ac9393;fill-opacity:1;stroke:none;stroke-width:2;stroke-linecap:butt;stroke-linejoin:miter;stroke-miterlimit:4;stroke-dasharray:none;stroke-dashoffset:0;stroke-opacity:1"
         inkscape:connector-curvature="0" />
      <path
         id="rect2121"
         d="m -171.48196,-3.8297181 c -1.1666,0 -2.13836,0.9702906 -2.13836,2.13682 V 34.69197 c 0,0.04866 0.004,0.09625 0.007,0.144171 -0.0479,-0.0034 -0.0955,-0.0077 -0.14417,-0.0077 H -195.429 c -1.16649,0 -2.13682,0.97028 -2.13682,2.136828 V 139.46136 c 0,1.16652 0.97033,2.13683 2.13682,2.13683 h 21.67155 c 0.0461,0 0.0915,-0.004 0.13695,-0.007 v 18.29811 a 1.0001,1.0001 0 0 0 0.99994,0.99994 h 101.822196 a 1.0001,1.0001 0 0 0 0.99994,-0.99994 v -18.29811 c 0.0455,0.003 0.0908,0.007 0.13695,0.007 h 21.67154 c 1.1665,0 2.13889,-0.97031 2.13889,-2.13683 V 36.965217 c 0,-1.166548 -0.97239,-2.136828 -2.13889,-2.136828 h -21.67154 c -0.0494,0 -0.0981,0.0042 -0.14677,0.0077 0.003,-0.04792 0.008,-0.09551 0.008,-0.144172 V -1.6928981 c -3.3e-4,-1.1665294 -0.97013,-2.13682 -2.13662,-2.13682 z m 0,1.9998796 h 99.545346 c 0.093,0 0.13642,0.04382 0.13642,0.1369404 V 34.69197 c 0,0.09308 -0.0437,0.136419 -0.13642,0.136419 h -99.545346 c -0.093,0 -0.13848,-0.04331 -0.13848,-0.136419 V -1.6928981 c 0,-0.093099 0.0458,-0.1369404 0.13848,-0.1369404 z m -0.14417,38.6508575 c 0.0479,0.0034 0.0955,0.0077 0.14417,0.0077 h 99.545346 c 0.0487,0 0.0963,-0.0045 0.14418,-0.0077 -0.003,0.04794 -0.008,0.09551 -0.008,0.144198 V 87.213296 H -171.6183 V 36.965217 c 0,-0.04868 -0.005,-0.09626 -0.008,-0.144198 z m -23.80269,0.0077 h 21.67155 c 0.093,0 0.13851,0.04331 0.13851,0.136445 v 51.071807 a 1.0001,1.0001 0 0 0 0,0.346234 V 132.7634 a 1.0001,1.0001 0 0 0 -0.003,0.0708 v 6.63837 c -0.004,0.0844 -0.0487,0.12557 -0.13695,0.12557 h -21.67159 c -0.093,0 -0.13695,-0.0438 -0.13695,-0.13695 V 36.965217 c 0,-0.09311 0.0443,-0.136446 0.13695,-0.136446 z m 125.767526,0 h 21.67154 c 0.093,0 0.13901,0.04331 0.13901,0.136445 V 139.4612 c 0,0.0931 -0.0464,0.13695 -0.13901,0.13695 h -21.67154 c -0.0875,0 -0.13185,-0.0404 -0.13695,-0.12248 v -0.75242 a 1.0001,1.0001 0 0 0 -0.003,-0.0666 V 88.411091 a 1.0001,1.0001 0 0 0 0,-0.394811 V 36.965217 c 0,-0.09311 0.0453,-0.136446 0.13901,-0.136446 z M -171.61838,89.213096 h 99.818186 V 139.4612 c 0,0.0132 0.003,0.0262 0.003,0.0393 v 19.38849 H -171.61986 V 139.5005 c 2.4e-4,-0.0132 0.003,-0.0259 0.003,-0.0393 z"
         style="color:#000000;font-style:normal;font-variant:normal;font-weight:normal;font-stretch:normal;font-size:medium;line-height:normal;font-family:sans-serif;font-variant-ligatures:normal;font-variant-position:normal;font-variant-caps:normal;font-variant-numeric:normal;font-variant-alternates:normal;font-feature-settings:normal;text-indent:0;text-align:start;text-decoration:none;text-decoration-line:none;text-decoration-style:solid;text-decoration-color:#000000;letter-spacing:normal;word-spacing:normal;text-transform:none;writing-mode:lr-tb;direction:ltr;text-orientation:mixed;dominant-baseline:auto;baseline-shift:baseline;text-anchor:start;white-space:normal;shape-padding:0;clip-rule:nonzero;display:inline;overflow:visible;visibility:visible;opacity:1;isolation:auto;mix-blend-mode:normal;color-interpolation:sRGB;color-interpolation-filters:linearRGB;solid-color:#000000;solid-opacity:1;vector-effect:none;fill:#000000;fill-opacity:1;fill-rule:nonzero;stroke:none;stroke-width:2;stroke-linecap:butt;stroke-linejoin:miter;stroke-miterlimit:4;stroke-dasharray:none;stroke-dashoffset:0;stroke-opacity:1;color-rendering:auto;image-rendering:auto;shape-rendering:auto;text-rendering:auto;enable-background:accumulate"
         inkscape:connector-curvature="0" />
    </g>
  </g>
</svg>
